<svg width="146" height="47" viewBox="0 0 146 47" fill="none" xmlns="http://www.w3.org/2000/svg">
<rect width="146" height="47" rx="6" fill="black"/>
<path d="M29.8552 23.868C29.869 22.8415 30.1444 21.8355 30.6552 20.945C31.1679 20.0516 31.8982 19.3023 32.7782 18.767C32.2164 17.9726 31.4772 17.32 30.6192 16.861C29.7589 16.4005 28.8036 16.1451 27.8282 16.115C25.7452 15.899 23.7272 17.35 22.6652 17.35C21.5832 17.35 19.9502 16.137 18.1902 16.173C17.0531 16.2088 15.9443 16.5363 14.9702 17.124C14.0003 17.7096 13.1986 18.5365 12.6432 19.524C10.2442 23.639 12.0332 29.685 14.3312 33.011C15.4812 34.639 16.8242 36.458 18.5812 36.394C20.3022 36.323 20.9452 35.307 23.0212 35.307C25.0782 35.307 25.6812 36.394 27.4742 36.353C29.3202 36.323 30.4842 34.717 31.5932 33.073C32.4184 31.9142 33.054 30.6315 33.4762 29.273C32.406 28.8259 31.4907 28.074 30.8442 27.111C30.201 26.1517 29.8568 25.0231 29.8552 23.868ZM26.4682 13.928C27.4731 12.7351 27.9694 11.1952 27.8502 9.64001C26.3158 9.79854 24.8964 10.5264 23.8722 11.68C23.3742 12.2412 22.9922 12.8955 22.7482 13.605C22.5046 14.3132 22.4044 15.0627 22.4532 15.81C23.2232 15.818 23.9832 15.652 24.6792 15.327C25.3735 15.002 25.9851 14.5231 26.4682 13.928ZM51.6002 32.271H45.7302L44.3202 36.395H41.8342L47.3942 21.137H49.9772L55.5372 36.395H53.0102L51.6002 32.271ZM46.3382 30.368H50.9912L48.6972 23.675H48.6332L46.3382 30.368ZM67.5462 30.834C67.5462 34.291 65.6782 36.511 62.8602 36.511C62.1468 36.5483 61.4371 36.3855 60.8112 36.041C60.1878 35.6981 59.6735 35.1866 59.3272 34.565H59.2742V40.075H56.9692V25.271H59.1992V27.121H59.2422C59.6045 26.5022 60.1277 25.9931 60.7562 25.648C61.3868 25.3015 62.099 25.1308 62.8182 25.154C65.6682 25.154 67.5462 27.386 67.5462 30.834ZM65.1762 30.834C65.1762 28.581 64.0022 27.101 62.2102 27.101C60.4492 27.101 59.2642 28.613 59.2642 30.834C59.2642 33.075 60.4492 34.576 62.2102 34.576C64.0022 34.576 65.1762 33.106 65.1762 30.834ZM79.9042 30.834C79.9042 34.291 78.0372 36.511 75.2182 36.511C74.5051 36.548 73.7958 36.3852 73.1702 36.041C72.5468 35.6981 72.0325 35.1866 71.6862 34.565H71.6322V40.075H69.3272V25.271H71.5582V27.121H71.6012C71.9631 26.5023 72.486 25.9932 73.1142 25.648C73.7448 25.3015 74.457 25.1308 75.1762 25.154C78.0262 25.154 79.9042 27.386 79.9042 30.834ZM77.5352 30.834C77.5352 28.581 76.3612 27.101 74.5682 27.101C72.8072 27.101 71.6232 28.613 71.6232 30.834C71.6232 33.075 72.8072 34.576 74.5682 34.576C76.3612 34.576 77.5352 33.106 77.5352 30.834ZM88.0722 32.144C88.2422 33.657 89.7262 34.65 91.7542 34.65C93.6962 34.65 95.0942 33.657 95.0942 32.293C95.0942 31.108 94.2512 30.399 92.2552 29.913L90.2592 29.437C87.4312 28.76 86.1192 27.45 86.1192 25.324C86.1192 22.691 88.4342 20.883 91.7222 20.883C94.9772 20.883 97.2082 22.691 97.2822 25.323H94.9562C94.8162 23.801 93.5462 22.882 91.6902 22.882C89.8332 22.882 88.5622 23.812 88.5622 25.165C88.5622 26.244 89.3742 26.879 91.3592 27.365L93.0562 27.777C96.2162 28.517 97.5282 29.775 97.5282 32.007C97.5282 34.862 95.2332 36.649 91.5832 36.649C88.1682 36.649 85.8622 34.904 85.7132 32.144H88.0722ZM102.503 22.638V25.271H104.638V27.079H102.503V33.212C102.503 34.164 102.93 34.608 103.869 34.608C104.122 34.604 104.375 34.586 104.627 34.556V36.353C104.205 36.4313 103.776 36.4668 103.347 36.459C101.074 36.459 100.187 35.613 100.187 33.455V27.08H98.5542V25.272H100.187V22.639L102.503 22.638ZM105.875 30.834C105.875 27.334 107.955 25.134 111.2 25.134C114.455 25.134 116.526 27.334 116.526 30.834C116.526 34.344 114.466 36.533 111.2 36.533C107.935 36.533 105.875 34.344 105.875 30.834ZM114.178 30.834C114.178 28.433 113.067 27.015 111.2 27.015C109.332 27.015 108.223 28.443 108.223 30.834C108.223 33.244 109.332 34.65 111.2 34.65C113.067 34.65 114.178 33.244 114.178 30.834ZM118.427 25.27H120.625V27.164H120.678C120.828 26.5713 121.178 26.0485 121.668 25.684C122.161 25.3175 122.765 25.1305 123.379 25.154C123.644 25.154 123.909 25.182 124.169 25.24V27.376C123.834 27.2742 123.484 27.2273 123.133 27.237C122.799 27.2241 122.466 27.2828 122.156 27.4092C121.847 27.5356 121.568 27.7269 121.338 27.97C121.11 28.2122 120.938 28.5011 120.833 28.8166C120.729 29.1321 120.694 29.4667 120.731 29.797V36.395H118.427V25.27ZM134.795 33.128C134.485 35.148 132.5 36.533 129.96 36.533C126.694 36.533 124.667 34.365 124.667 30.886C124.667 27.397 126.705 25.134 129.863 25.134C132.97 25.134 134.924 27.248 134.924 30.621V31.404H126.993V31.541C126.958 31.9509 127.01 32.3635 127.147 32.7515C127.284 33.1395 127.502 33.4939 127.786 33.791C128.074 34.0891 128.42 34.3233 128.804 34.4783C129.188 34.6334 129.6 34.7059 130.014 34.691C130.558 34.742 131.104 34.6176 131.572 34.336C132.038 34.0551 132.401 33.6315 132.607 33.128H134.795ZM127.004 29.808H132.618C132.639 29.4392 132.582 29.0703 132.452 28.7246C132.322 28.3789 132.121 28.064 131.863 27.8C131.604 27.5336 131.293 27.3236 130.948 27.1832C130.604 27.0428 130.235 26.975 129.863 26.984C129.107 26.9799 128.379 27.2754 127.84 27.806C127.575 28.0675 127.364 28.3792 127.221 28.7229C127.077 29.0666 127.004 29.4355 127.004 29.808Z" fill="white"/>
<path d="M46.2371 12.5703H47.3986C48.5886 12.5703 49.2981 13.131 49.2981 14.0751C49.2981 14.9848 48.5429 15.6084 47.4386 15.6084C46.3058 15.6084 45.5162 15.0477 45.4247 14.1781H44.4291C44.5035 15.5855 45.7107 16.5239 47.4501 16.5239C49.0807 16.5239 50.3566 15.4654 50.3566 14.1037C50.3566 12.9823 49.6815 12.1927 48.5829 12.0497V12.0039C49.4926 11.7807 50.1163 11.0026 50.1163 10.0872C50.1163 8.79984 49.012 7.87868 47.4672 7.87868C45.8252 7.87868 44.7552 8.75979 44.6523 10.1902H45.6535C45.7393 9.3205 46.403 8.79412 47.4272 8.79412C48.4399 8.79412 49.0693 9.32622 49.0693 10.1787C49.0693 11.0427 48.3598 11.6549 47.3528 11.6549H46.2371V12.5703ZM53.4519 15.5855C52.7367 15.5855 52.2619 15.2137 52.2619 14.6472C52.2619 14.0865 52.7196 13.7318 53.5206 13.6803L55.1112 13.583V14.0694C55.1112 14.9276 54.3903 15.5855 53.4519 15.5855ZM53.2288 16.4323C54.0298 16.4323 54.785 15.9861 55.1398 15.3052H55.1627V16.3293H56.1067V12.2156C56.1067 11.0312 55.2256 10.276 53.8295 10.276C52.4221 10.276 51.5409 11.0656 51.4723 12.0954H52.4335C52.5594 11.5118 53.04 11.1514 53.8067 11.1514C54.6306 11.1514 55.1112 11.5862 55.1112 12.3128V12.8106L53.4062 12.9079C52.033 12.988 51.2492 13.6288 51.2492 14.6472C51.2492 15.7171 52.0444 16.4323 53.2288 16.4323ZM61.3076 11.1972V10.379H57.4799V16.3293H58.464V11.1972H61.3076ZM65.284 10.276C64.4201 10.276 63.7278 10.7165 63.3616 11.386H63.3387V10.379H62.3946V18.3147H63.3902V15.3624H63.4131C63.7678 16.0147 64.4544 16.4323 65.3069 16.4323C66.8059 16.4323 67.8301 15.2194 67.8301 13.3542C67.8301 11.489 66.8002 10.276 65.284 10.276ZM65.0895 15.5569C64.071 15.5569 63.3845 14.6816 63.3845 13.3542C63.3845 12.0325 64.071 11.1514 65.0895 11.1514C66.148 11.1514 66.8117 12.0096 66.8117 13.3542C66.8117 14.7044 66.148 15.5569 65.0895 15.5569ZM69.2605 18.555C70.3361 18.555 70.8281 18.1373 71.3374 16.747L73.6775 10.379H72.6304L70.9826 15.3338H70.9655L69.3177 10.379H68.2535L70.4505 16.3351L70.3132 16.7527C70.0844 17.445 69.7754 17.714 69.2204 17.714C69.0945 17.714 68.9401 17.7082 68.8313 17.6853V18.5207C68.9401 18.5436 69.1403 18.555 69.2605 18.555ZM76.5497 16.4323C77.9457 16.4323 78.8726 15.6828 78.8726 14.5728C78.8726 13.8863 78.4664 13.3828 77.6825 13.2111V13.1654C78.2776 13.028 78.6666 12.4902 78.6666 11.8837C78.6666 10.9282 77.9285 10.276 76.5725 10.276C75.3138 10.276 74.4556 10.8996 74.3297 11.8837H75.2966C75.3767 11.4088 75.8688 11.1056 76.5725 11.1056C77.3392 11.1056 77.694 11.4661 77.694 11.9638C77.694 12.5474 77.3049 12.8335 76.5497 12.8335H75.6571V13.646H76.5497C77.4479 13.646 77.8942 13.9492 77.8942 14.6186C77.8942 15.1965 77.4136 15.6084 76.5497 15.6084C75.8116 15.6084 75.3195 15.3052 75.2051 14.7845H74.1981C74.3011 15.7915 75.2452 16.4323 76.5497 16.4323ZM80.9953 16.3293L83.9705 11.9009H84.0162V16.3293H85.0003V10.379H84.0162L81.041 14.8074H80.9953V10.379H80.0112V16.3293H80.9953ZM90.7504 10.379H85.9215V11.1972H87.8439V16.3293H88.828V11.1972H90.7504V10.379ZM93.9488 11.1399C94.8871 11.1399 95.5107 11.8494 95.5336 12.8449H92.301C92.3639 11.8551 93.0162 11.1399 93.9488 11.1399ZM95.5107 14.6243C95.3448 15.185 94.7898 15.5684 94.0346 15.5684C92.9647 15.5684 92.2952 14.8189 92.2952 13.6803V13.6231H96.5635V13.2455C96.5635 11.4432 95.5737 10.276 93.9659 10.276C92.3239 10.276 91.2711 11.529 91.2711 13.377C91.2711 15.248 92.3067 16.4323 94.0117 16.4323C95.3105 16.4323 96.3175 15.6657 96.4891 14.6243H95.5107ZM102.48 11.1857C103.103 11.1857 103.441 11.4775 103.441 12.0039C103.441 12.576 103.08 12.8507 102.331 12.8507H101.055V11.1857H102.48ZM102.411 13.6517C103.281 13.6517 103.698 13.9606 103.698 14.5957C103.698 15.1965 103.309 15.5226 102.588 15.5226H101.055V13.6517H102.411ZM100.071 16.3293H102.634C103.898 16.3293 104.677 15.6714 104.677 14.6186C104.677 13.8748 104.185 13.3313 103.435 13.2283V13.1825C103.984 13.0681 104.413 12.5074 104.413 11.9009C104.413 10.9569 103.733 10.379 102.617 10.379H100.071V16.3293Z" fill="white"/>
</svg>
