<?xml version="1.0" standalone="no"?>
<!DOCTYPE svg PUBLIC "-//W3C//DTD SVG 20010904//EN"
 "http://www.w3.org/TR/2001/REC-SVG-20010904/DTD/svg10.dtd">
<svg version="1.0" xmlns="http://www.w3.org/2000/svg"
 width="573.000000pt" height="294.000000pt" viewBox="0 0 573.000000 294.000000"
 preserveAspectRatio="xMidYMid meet">

<g transform="translate(0.000000,294.000000) scale(0.100000,-0.100000)"
fill="#000000" stroke="none">
<path d="M3720 2900 c-19 -5 -21 -9 -10 -14 39 -17 325 -104 329 -101 2 3 -9
21 -24 41 -41 54 -114 84 -200 83 -38 -1 -81 -4 -95 -9z"/>
<path d="M3867 2753 c-4 -3 -7 -23 -7 -43 0 -50 -45 -135 -97 -186 -55 -52
-151 -99 -256 -124 -108 -26 -148 -25 -237 5 -40 14 -79 25 -85 25 -6 0 -18
-11 -25 -25 -11 -21 -21 -25 -60 -25 -109 0 -434 53 -710 116 -85 19 -225 50
-310 68 -85 18 -162 36 -170 39 -24 10 -407 77 -437 77 -19 0 36 -29 62 -33
33 -5 -124 1 -225 8 -175 13 -477 -31 -654 -96 -203 -74 -349 -213 -412 -393
-35 -98 -37 -227 -4 -311 l12 -30 23 62 c132 362 607 572 1185 524 254 -21
392 -44 900 -151 179 -38 398 -81 488 -96 90 -15 162 -32 162 -38 0 -6 86 -39
189 -72 l189 -61 27 73 c15 41 28 74 29 74 0 1 19 3 41 6 71 10 218 63 294
105 92 51 213 168 242 233 27 61 30 168 7 212 -10 17 -33 39 -52 48 -34 16
-97 22 -109 9z m-580 -379 c-3 -3 -12 -4 -19 -1 -8 3 -5 6 6 6 11 1 17 -2 13
-5z m-204 -251 c-7 -2 -21 -2 -30 0 -10 3 -4 5 12 5 17 0 24 -2 18 -5z"/>
<path d="M4609 2022 c-30 -15 -53 -32 -52 -37 3 -12 451 -70 461 -60 16 16
-76 84 -143 104 -101 31 -198 29 -266 -7z"/>
<path d="M3960 1900 c80 -40 155 -76 168 -81 l23 -9 -21 30 c-50 70 -148 121
-245 127 l-70 4 145 -71z"/>
<path d="M3600 1899 c-82 -33 -206 -166 -328 -352 -69 -104 -75 -118 -162
-384 -76 -229 -97 -283 -125 -316 -74 -86 -105 -210 -72 -288 10 -26 13 -56
10 -100 -3 -35 -6 -65 -7 -66 -2 -2 -42 11 -91 27 -49 17 -94 30 -99 30 -24
-1 65 -70 103 -80 70 -19 90 -1 119 102 l25 87 27 -42 c15 -23 38 -52 51 -64
65 -59 217 -98 333 -85 l59 7 -241 115 c-155 74 -242 121 -245 133 -6 20 8 23
16 3 8 -21 89 -56 128 -56 28 1 31 2 17 11 -22 12 -23 47 -3 76 40 57 194 112
312 113 l52 0 54 83 c30 45 64 101 76 125 l21 42 -108 0 c-131 0 -258 -15
-329 -39 -29 -10 -53 -15 -53 -12 1 17 116 221 181 321 174 265 354 440 454
440 24 0 26 2 19 38 -10 51 -31 99 -54 122 -22 22 -95 27 -140 9z"/>
<path d="M5007 1882 c-45 -49 -86 -215 -69 -277 8 -29 9 -28 30 35 24 71 65
250 59 256 -2 2 -11 -4 -20 -14z"/>
<path d="M4485 1257 c-40 -67 -130 -159 -182 -186 -23 -11 -70 -28 -104 -35
-33 -8 -62 -16 -64 -18 -1 -2 -21 -39 -43 -83 -23 -44 -56 -104 -73 -133 l-32
-54 44 6 c24 3 73 8 109 11 102 10 218 42 289 81 73 40 159 110 191 154 l21
29 -64 139 -63 139 -29 -50z"/>
<path d="M5485 1222 c-69 -119 -241 -289 -317 -314 -6 -2 -6 -19 2 -48 7 -25
15 -89 19 -144 l6 -98 105 53 c87 45 120 69 196 144 103 101 194 231 194 277
0 39 -33 101 -83 155 -66 72 -66 72 -122 -25z"/>
<path d="M4635 739 c-126 -47 -295 -134 -357 -184 -68 -55 -112 -118 -128
-185 -10 -43 -10 -54 4 -75 23 -34 81 -71 142 -88 l51 -15 13 41 c35 116 160
219 313 258 61 15 67 30 67 154 0 90 -5 126 -19 124 -3 0 -42 -14 -86 -30z"/>
<path d="M4189 172 c19 -35 93 -94 155 -123 97 -45 269 -56 381 -23 30 9 156
67 152 70 -1 2 -144 21 -317 43 -173 23 -330 43 -348 46 -30 6 -32 4 -23 -13z"/>
</g>
</svg>
