<svg width="146" height="47" viewBox="0 0 146 47" fill="none" xmlns="http://www.w3.org/2000/svg">
<rect width="146" height="47" rx="6" fill="black"/>
<path d="M73.6918 25.8305C71.1377 25.8305 69.1152 27.7299 69.1152 30.3684C69.1152 32.9009 71.1377 34.9054 73.6918 34.9054C76.2468 34.9054 78.2692 33.006 78.2692 30.3684C78.2692 27.6248 76.2468 25.8305 73.6918 25.8305ZM73.6918 33.006C72.3088 33.006 71.1377 31.8457 71.1377 30.2624C71.1377 28.68 72.3079 27.5188 73.6918 27.5188C75.0748 27.5188 76.2468 28.574 76.2468 30.2624C76.2468 31.8448 75.0757 33.006 73.6918 33.006ZM63.7933 25.8305C61.2392 25.8305 59.2168 27.7299 59.2168 30.3684C59.2168 32.9009 61.2383 34.9054 63.7933 34.9054C66.3474 34.9054 68.3698 33.006 68.3698 30.3684C68.3698 27.6248 66.3474 25.8305 63.7933 25.8305V25.8305ZM63.7933 33.006C62.4103 33.006 61.2392 31.8457 61.2392 30.2624C61.2392 28.68 62.4094 27.5188 63.7933 27.5188C65.1763 27.5188 66.3474 28.574 66.3474 30.2624C66.3474 31.8448 65.1772 33.006 63.7933 33.006ZM51.9784 27.2027V29.1012H56.5558C56.4489 30.1564 56.0232 31.0006 55.4907 31.5287C54.8531 32.1618 53.788 32.9 51.9793 32.9C49.1054 32.9 46.9761 30.6845 46.9761 27.8349C46.9761 24.9863 49.2114 22.7698 51.9784 22.7698C53.4691 22.7698 54.6393 23.4039 55.4907 24.1421L56.8746 22.7707C55.7044 21.7155 54.2136 20.8713 52.0852 20.8713C48.2532 20.8713 44.9546 24.0361 44.9546 27.8358C44.9546 31.6346 48.2532 34.8003 52.0852 34.8003C54.2136 34.8003 55.7044 34.1663 56.9815 32.7949C58.2585 31.5287 58.6842 29.7352 58.6842 28.363C58.6842 27.9409 58.6842 27.5188 58.5782 27.2018H51.9784V27.2027ZM100.301 28.68C99.8758 27.6248 98.8115 25.8305 96.4694 25.8305C94.1281 25.8305 92.2117 27.6248 92.2117 30.3684C92.2117 32.9009 94.1281 34.9054 96.6822 34.9054C98.7047 34.9054 99.9817 33.6391 100.407 32.9L98.9175 31.8448C98.385 32.5839 97.7464 33.1111 96.6822 33.1111C95.618 33.1111 94.9795 32.689 94.447 31.7397L100.514 29.2072L100.301 28.68V28.68ZM94.1281 30.1573C94.1281 28.469 95.5112 27.5188 96.4694 27.5188C97.2148 27.5188 97.9593 27.9409 98.1721 28.4681L94.1281 30.1564V30.1573ZM89.1259 34.4833H91.1475V21.2925H89.125V34.4833H89.1259ZM85.9324 26.7797C85.3999 26.2525 84.5494 25.7245 83.4843 25.7245C81.249 25.7245 79.1197 27.7299 79.1197 30.2624C79.1197 32.7949 81.1421 34.6944 83.4843 34.6944C84.5485 34.6944 85.3998 34.1672 85.8255 33.6391H85.9324V34.2723C85.9324 35.9606 84.9742 36.9108 83.4843 36.9108C82.3132 36.9108 81.4618 36.0666 81.249 35.3275L79.5463 36.0666C80.0779 37.2269 81.355 38.7042 83.5902 38.7042C85.9324 38.7042 87.848 37.332 87.848 34.0612V26.0415H85.9324V26.7797ZM83.5902 33.006C82.2072 33.006 81.0361 31.8457 81.0361 30.2624C81.0361 28.68 82.2072 27.5188 83.5902 27.5188C84.9742 27.5188 86.0384 28.68 86.0384 30.2624C86.0384 31.8448 84.9742 33.006 83.5902 33.006ZM109.561 21.2934H104.772V34.4833H106.794V29.5233H109.561C111.797 29.5233 113.925 27.9409 113.925 25.4084C113.925 22.8758 111.797 21.2934 109.561 21.2934V21.2934ZM109.667 27.6248H106.794V23.0869H109.667C111.158 23.0869 112.01 24.3531 112.01 25.3033C111.903 26.4636 111.051 27.6248 109.667 27.6248V27.6248ZM121.908 25.7245C120.418 25.7245 118.928 26.3585 118.396 27.7299L120.205 28.4681C120.631 27.7299 121.269 27.5188 122.015 27.5188C123.079 27.5188 124.036 28.152 124.143 29.2072V29.3123C123.824 29.1012 122.972 28.7851 122.121 28.7851C120.205 28.7851 118.289 29.8403 118.289 31.7397C118.289 33.5341 119.886 34.6944 121.589 34.6944C122.972 34.6944 123.611 34.0612 124.143 33.4281H124.249V34.4833H126.166V29.4182C125.953 27.0967 124.143 25.7245 121.908 25.7245V25.7245ZM121.695 33.006C121.057 33.006 120.098 32.6899 120.098 31.8457C120.098 30.7896 121.269 30.4734 122.228 30.4734C123.079 30.4734 123.505 30.6845 124.036 30.8955C123.824 32.1618 122.759 33.006 121.695 33.006V33.006ZM132.871 26.0415L130.636 31.7397H130.529L128.188 26.0415H126.059L129.571 34.0612L127.55 38.4932H129.571L135 26.0415H132.871V26.0415ZM114.989 34.4833H117.012V21.2925H114.989V34.4833V34.4833Z" fill="white"/>
<path d="M12.2772 10.741C11.9575 11.0571 11.8516 11.5851 11.8516 12.2174V35.5383C11.8516 36.1715 12.0644 36.6995 12.3832 37.0157L12.4901 37.1207L25.6881 24.0359V23.8258L12.2772 10.741Z" fill="url(#paint0_linear_8782_9240)"/>
<path d="M29.9466 28.468L25.582 24.142V23.8259L29.9466 19.499L30.0526 19.6041L35.2686 22.5587C36.7593 23.4029 36.7593 24.7752 35.2686 25.6193L29.9466 28.468Z" fill="url(#paint1_linear_8782_9240)"/>
<path d="M30.0518 28.3629L25.5822 23.9309L12.2773 37.1217C12.809 37.6489 13.5544 37.6489 14.5126 37.2268L30.0518 28.3629V28.3629Z" fill="url(#paint2_linear_8782_9240)"/>
<path d="M30.0527 19.499L14.5135 10.7402C13.5553 10.213 12.8108 10.3181 12.2773 10.8462L25.584 23.931L30.0536 19.499H30.0527Z" fill="url(#paint3_linear_8782_9240)"/>
<path d="M47.2245 14.5788L47.4513 10.9598H50.1149V16.3594H46.7371V16.3208C47.0797 15.9058 47.1762 15.375 47.2245 14.5788ZM45.9506 17.1411H51.0462V18.5163H51.852V16.3594H50.9835V10.1781H46.6744L46.409 14.5595C46.3559 15.4715 46.1677 16.0892 45.6611 16.3594H45.1448V18.5163H45.9506V17.1411ZM55.804 10.0623C53.8304 10.0623 52.5951 11.452 52.5951 13.662C52.5951 15.872 53.8304 17.2569 55.804 17.2569C57.7776 17.2569 59.0129 15.872 59.0129 13.662C59.0129 11.452 57.7776 10.0623 55.804 10.0623ZM55.804 10.8633C57.2275 10.8633 58.1202 11.9442 58.1202 13.662C58.1202 15.375 57.2275 16.4559 55.804 16.4559C54.3805 16.4559 53.4878 15.375 53.4878 13.662C53.4878 11.9442 54.3805 10.8633 55.804 10.8633ZM63.0565 17.2569C64.562 17.2569 65.585 16.5235 65.9276 15.2013H65.0398C64.7647 15.9975 64.0506 16.4559 63.0614 16.4559C61.6861 16.4559 60.8127 15.3654 60.8127 13.6572C60.8127 11.9635 61.6958 10.8633 63.0565 10.8633C64.0119 10.8633 64.7888 11.4182 65.0398 12.2771H65.9276C65.6719 10.9405 64.5379 10.0623 63.0565 10.0623C61.1505 10.0623 59.92 11.4713 59.92 13.6572C59.92 15.8624 61.136 17.2569 63.0565 17.2569ZM69.1992 17.1411V10.9598H71.3948V10.1781H66.1351V10.9598H68.3307V17.1411H69.1992ZM73.0933 17.1894C74.1163 17.1894 74.6567 16.6924 75.3178 15.1482L77.4506 10.1781H76.5483L74.7243 14.6898H74.6471L72.7796 10.1781H71.8532L74.2321 15.6549C73.957 16.1664 73.6144 16.3835 73.0933 16.3835C72.9437 16.3835 72.8038 16.3691 72.7073 16.3449V17.1266C72.7845 17.1652 72.9341 17.1894 73.0933 17.1894ZM83.7525 17.1411V10.1781H78.295V17.1411H79.1684V10.9695H82.8936V17.1411H83.7525ZM90.7638 17.1411V10.1781H89.8952V13.1891H86.0735V10.1781H85.205V17.1411H86.0735V13.9708H89.8952V17.1411H90.7638ZM95.15 10.0623C93.1765 10.0623 91.9412 11.452 91.9412 13.662C91.9412 15.872 93.1765 17.2569 95.15 17.2569C97.1236 17.2569 98.3589 15.872 98.3589 13.662C98.3589 11.452 97.1236 10.0623 95.15 10.0623ZM95.15 10.8633C96.5735 10.8633 97.4662 11.9442 97.4662 13.662C97.4662 15.375 96.5735 16.4559 95.15 16.4559C93.7266 16.4559 92.8339 15.375 92.8339 13.662C92.8339 11.9442 93.7266 10.8633 95.15 10.8633ZM104.193 17.1411C105.674 17.1411 106.552 16.4125 106.552 15.1868C106.552 14.2604 105.944 13.5945 104.999 13.4738V13.4352C105.669 13.3146 106.2 12.639 106.2 11.9152C106.2 10.873 105.394 10.1781 104.202 10.1781H101.563V17.1411H104.193ZM102.432 10.9453H104.005C104.849 10.9453 105.322 11.3265 105.322 12.0166C105.322 12.7693 104.762 13.1795 103.734 13.1795H102.432V10.9453ZM102.432 16.3739V13.9274H103.98C105.09 13.9274 105.66 14.3376 105.66 15.1434C105.66 15.9492 105.11 16.3739 104.062 16.3739H102.432Z" fill="white"/>
<defs>
<linearGradient id="paint0_linear_8782_9240" x1="24.411" y1="12.0171" x2="6.70206" y2="29.8787" gradientUnits="userSpaceOnUse">
<stop stop-color="#00A0FF"/>
<stop offset="0.007" stop-color="#00A1FF"/>
<stop offset="0.26" stop-color="#00BEFF"/>
<stop offset="0.512" stop-color="#00D2FF"/>
<stop offset="0.76" stop-color="#00DFFF"/>
<stop offset="1" stop-color="#00E3FF"/>
</linearGradient>
<linearGradient id="paint1_linear_8782_9240" x1="37.221" y1="23.9328" x2="11.4662" y2="23.9328" gradientUnits="userSpaceOnUse">
<stop stop-color="#FFE000"/>
<stop offset="0.409" stop-color="#FFBD00"/>
<stop offset="0.775" stop-color="#FFA500"/>
<stop offset="1" stop-color="#FF9C00"/>
</linearGradient>
<linearGradient id="paint2_linear_8782_9240" x1="27.6325" y1="26.3539" x2="3.6182" y2="50.5765" gradientUnits="userSpaceOnUse">
<stop stop-color="#FF3A44"/>
<stop offset="1" stop-color="#C31162"/>
</linearGradient>
<linearGradient id="paint3_linear_8782_9240" x1="8.97606" y1="3.01236" x2="19.699" y2="13.8287" gradientUnits="userSpaceOnUse">
<stop stop-color="#32A071"/>
<stop offset="0.069" stop-color="#2DA771"/>
<stop offset="0.476" stop-color="#15CF74"/>
<stop offset="0.801" stop-color="#06E775"/>
<stop offset="1" stop-color="#00F076"/>
</linearGradient>
</defs>
</svg>
