<svg width="68" height="68" viewBox="0 0 68 68" fill="none" xmlns="http://www.w3.org/2000/svg">
<rect width="68" height="68" rx="8" fill="#0177FF"/>
<path d="M35.6701 45.9C22.8919 45.9 15.6035 36.966 15.2998 22.1H21.7006C21.9108 33.0113 26.6296 37.6331 30.3673 38.5861V22.1H36.3942V31.5104C40.0852 31.1054 43.963 26.8171 45.2712 22.1H51.2982C50.8052 24.5464 49.8226 26.8628 48.4117 28.9042C47.0009 30.9457 45.1921 32.6683 43.0987 33.9642C45.4355 35.1484 47.4995 36.8245 49.1545 38.8819C50.8095 40.9394 52.0178 43.3313 52.6998 45.9H46.0654C45.4532 43.6689 44.209 41.6717 42.4886 40.1588C40.7682 38.6458 38.6482 37.6843 36.3942 37.3949V45.9H35.6701Z" fill="white"/>
</svg>
