<svg width="68" height="68" viewBox="0 0 68 68" fill="none" xmlns="http://www.w3.org/2000/svg">
<rect width="68" height="68" rx="8" fill="#2CB742"/>
<path d="M33.9997 17.6801C43.0132 17.6801 50.3197 24.9865 50.3197 34C50.3197 43.0136 43.0132 50.32 33.9997 50.32C31.1156 50.325 28.2821 49.5617 25.7907 48.1087L17.6862 50.32L19.8927 42.2123C18.4385 39.7201 17.6747 36.8854 17.6797 34C17.6797 24.9865 24.9862 17.6801 33.9997 17.6801ZM28.4378 26.3296L28.1114 26.3427C27.9004 26.3572 27.6942 26.4127 27.5043 26.5059C27.3274 26.6063 27.1658 26.7316 27.0245 26.878C26.8287 27.0624 26.7177 27.2224 26.5986 27.3774C25.9949 28.1622 25.6699 29.1258 25.6749 30.1159C25.6781 30.9156 25.887 31.694 26.2134 32.4219C26.8809 33.894 27.9793 35.4525 29.4285 36.8968C29.7777 37.2445 30.1204 37.5937 30.4893 37.9185C32.2901 39.5038 34.4359 40.6471 36.7561 41.2575L37.6831 41.3995C37.985 41.4158 38.287 41.393 38.5905 41.3783C39.0657 41.3532 39.5297 41.2246 39.95 41.0013C40.1635 40.8909 40.3721 40.7711 40.575 40.6423C40.575 40.6423 40.6441 40.5955 40.779 40.4954C40.9993 40.3322 41.1348 40.2163 41.3176 40.0254C41.4547 39.8839 41.5689 39.7197 41.6603 39.5325C41.7876 39.2665 41.9149 38.7589 41.9671 38.3363C42.0063 38.0131 41.9949 37.8369 41.99 37.7275C41.9834 37.5529 41.8382 37.3718 41.6799 37.295L40.7301 36.8691C40.7301 36.8691 39.3102 36.2506 38.442 35.8556C38.3511 35.8161 38.2538 35.7934 38.1548 35.7887C38.0431 35.777 37.9302 35.7895 37.8238 35.8253C37.7173 35.861 37.6198 35.9192 37.5379 35.996C37.5297 35.9927 37.4204 36.0857 36.2404 37.5154C36.1727 37.6064 36.0794 37.6751 35.9725 37.7129C35.8655 37.7507 35.7497 37.7558 35.6399 37.7275C35.5335 37.6992 35.4293 37.6632 35.3281 37.6198C35.1258 37.535 35.0556 37.5023 34.9169 37.4436C33.9799 37.0354 33.1126 36.4831 32.3465 35.8067C32.1409 35.6271 31.9499 35.4313 31.7541 35.242C31.1121 34.6271 30.5525 33.9315 30.0894 33.1726L29.9931 33.0176C29.925 32.9128 29.8692 32.8005 29.8267 32.683C29.7647 32.4431 29.9262 32.2505 29.9262 32.2505C29.9262 32.2505 30.3228 31.8164 30.5072 31.5814C30.6867 31.3529 30.8385 31.131 30.9364 30.9727C31.129 30.6626 31.1894 30.3444 31.0882 30.0979C30.6313 28.9816 30.1591 27.8713 29.6716 26.767C29.5754 26.5483 29.2898 26.3917 29.0303 26.3607C28.9421 26.3498 28.854 26.3411 28.7659 26.3345C28.5467 26.322 28.327 26.3242 28.1082 26.3411L28.4378 26.3296Z" fill="white"/>
</svg>
