<?xml version="1.0" encoding="utf-8"?>
<!-- Generator: Adobe Illustrator 25.0.1, SVG Export Plug-In . SVG Version: 6.00 Build 0)  -->
<svg version="1.0" id="katman_1" xmlns="http://www.w3.org/2000/svg" xmlns:xlink="http://www.w3.org/1999/xlink" x="0px" y="0px"
	 viewBox="0 0 560 400" style="enable-background:new 0 0 560 400;" xml:space="preserve">
<style type="text/css">
	.st0{fill-rule:evenodd;clip-rule:evenodd;fill:url(#SVGID_1_);}
	.st1{fill-rule:evenodd;clip-rule:evenodd;fill:#FFFFFF;}
	.st2{fill-rule:evenodd;clip-rule:evenodd;fill:#EC1C24;}
</style>
<linearGradient id="SVGID_1_" gradientUnits="userSpaceOnUse" x1="-118.6133" y1="502.0587" x2="-117.6133" y2="502.0587" gradientTransform="matrix(0 256 256 0 -128247 30365)">
	<stop  offset="0" style="stop-color:#EDEDEE"/>
	<stop  offset="1" style="stop-color:#EDEDEE"/>
</linearGradient>
<path class="st0" d="M430,200c0,82.9-67.2,150-150,150s-150-67.2-150-150S197.2,50,280,50S430,117.2,430,200"/>
<path class="st1" d="M422.7,200c0,78.8-63.9,142.7-142.7,142.7c-78.8,0-142.7-63.9-142.7-142.7c0-78.8,63.9-142.7,142.7-142.7
	S422.7,121.2,422.7,200"/>
<path class="st2" d="M376.6,138.1l-80.3,78.5v97.6c0,1.8-7.6,3.2-16.3,3.3c-8.3-0.1-16.3-1.5-16.3-3.3v-97.6l-80.3-78.5
	c-1.3-1.3,2.8-7.4,9.1-13.7c6.3-6.3,12.5-10.4,13.7-9.1l73.6,71.8l73.6-71.8c1.3-1.3,7.4,2.8,13.7,9.1
	C373.5,130.7,377.7,136.8,376.6,138.1"/>
</svg>
