<svg width="1920" height="274" viewBox="0 0 1920 274" fill="none" xmlns="http://www.w3.org/2000/svg">
<g clip-path="url(#clip0_64_2477)">
<path opacity="0.3" d="M327.5 206.221C225.974 226.443 185.033 232.9 -16 261.021V273.279H1920V0C1724.39 65.6158 1580.59 41.8211 1387.85 64.1737C1195.12 86.5263 1070.25 248.059 924.97 206.221C714.646 145.653 479.542 175.937 327.5 206.221Z" fill="url(#paint0_linear_64_2477)"/>
<path d="M-16 261.021C158 247.5 227.474 226.443 329 206.221C481.042 175.937 714.646 145.653 924.97 206.221C1070.25 248.059 1195.12 86.5263 1387.85 64.1737C1580.59 41.8211 1724.39 65.6158 1920 0" stroke="#D2F3FF"/>
<path d="M321.5 186.5C188.969 186.5 143.575 253.496 0 274H1920V23C1566.58 177.842 1278.58 92.9972 1095.93 92.9972C913.274 92.9972 823.715 217.5 669.5 217.5C496.19 217.5 508.403 186.5 321.5 186.5Z" fill="url(#paint1_linear_64_2477)"/>
<path d="M0 274C143.575 253.496 181 191 305 187C491.805 180.974 496.69 217.5 670 217.5C824.215 217.5 913.274 92.9972 1095.93 92.9972C1278.58 92.9972 1566.58 177.842 1920 23" stroke="#C0F9EB"/>
<line x1="1151.5" y1="69.5" x2="1151.5" y2="272.5" stroke="url(#paint2_linear_64_2477)" stroke-linecap="round" stroke-dasharray="6 6"/>
<g filter="url(#filter0_d_64_2477)">
<circle cx="1151" cy="95" r="6" fill="white"/>
</g>
<circle cx="1151" cy="95" r="4" fill="#C0F9EB"/>
<line x1="759.5" y1="69.5" x2="759.5" y2="272.5" stroke="url(#paint3_linear_64_2477)" stroke-linecap="round" stroke-dasharray="6 6"/>
<g filter="url(#filter1_d_64_2477)">
<circle cx="759" cy="177" r="6" fill="white"/>
</g>
<circle cx="759" cy="177" r="4" fill="#D2F3FF"/>
</g>
<defs>
<filter id="filter0_d_64_2477" x="1141" y="89" width="20" height="20" filterUnits="userSpaceOnUse" color-interpolation-filters="sRGB">
<feFlood flood-opacity="0" result="BackgroundImageFix"/>
<feColorMatrix in="SourceAlpha" type="matrix" values="0 0 0 0 0 0 0 0 0 0 0 0 0 0 0 0 0 0 127 0" result="hardAlpha"/>
<feOffset dy="4"/>
<feGaussianBlur stdDeviation="2"/>
<feComposite in2="hardAlpha" operator="out"/>
<feColorMatrix type="matrix" values="0 0 0 0 0.12549 0 0 0 0 0.12549 0 0 0 0 0.137255 0 0 0 0.05 0"/>
<feBlend mode="normal" in2="BackgroundImageFix" result="effect1_dropShadow_64_2477"/>
<feBlend mode="normal" in="SourceGraphic" in2="effect1_dropShadow_64_2477" result="shape"/>
</filter>
<filter id="filter1_d_64_2477" x="749" y="171" width="20" height="20" filterUnits="userSpaceOnUse" color-interpolation-filters="sRGB">
<feFlood flood-opacity="0" result="BackgroundImageFix"/>
<feColorMatrix in="SourceAlpha" type="matrix" values="0 0 0 0 0 0 0 0 0 0 0 0 0 0 0 0 0 0 127 0" result="hardAlpha"/>
<feOffset dy="4"/>
<feGaussianBlur stdDeviation="2"/>
<feComposite in2="hardAlpha" operator="out"/>
<feColorMatrix type="matrix" values="0 0 0 0 0.12549 0 0 0 0 0.12549 0 0 0 0 0.137255 0 0 0 0.05 0"/>
<feBlend mode="normal" in2="BackgroundImageFix" result="effect1_dropShadow_64_2477"/>
<feBlend mode="normal" in="SourceGraphic" in2="effect1_dropShadow_64_2477" result="shape"/>
</filter>
<linearGradient id="paint0_linear_64_2477" x1="927.504" y1="50.4737" x2="945.397" y2="273.808" gradientUnits="userSpaceOnUse">
<stop stop-color="#E6F8FF"/>
<stop offset="1" stop-color="#E6F8FF" stop-opacity="0"/>
</linearGradient>
<linearGradient id="paint1_linear_64_2477" x1="960" y1="73.5" x2="951.17" y2="273.61" gradientUnits="userSpaceOnUse">
<stop offset="0.615554" stop-color="#F5FFFD"/>
<stop offset="0.9548" stop-color="#FBFCFC"/>
</linearGradient>
<linearGradient id="paint2_linear_64_2477" x1="1151" y1="171" x2="1151.67" y2="245.259" gradientUnits="userSpaceOnUse">
<stop stop-color="#F7F8F8"/>
<stop offset="1" stop-color="#F7F8F8" stop-opacity="0"/>
</linearGradient>
<linearGradient id="paint3_linear_64_2477" x1="759" y1="171" x2="759.666" y2="245.259" gradientUnits="userSpaceOnUse">
<stop stop-color="#F7F8F8"/>
<stop offset="1" stop-color="#F7F8F8" stop-opacity="0"/>
</linearGradient>
<clipPath id="clip0_64_2477">
<rect width="1920" height="274" fill="white"/>
</clipPath>
</defs>
</svg>
