<svg width="358" height="190" viewBox="0 0 358 190" fill="none" xmlns="http://www.w3.org/2000/svg">
<g clip-path="url(#clip0_661_3217)">
<rect width="358" height="190" fill="white"/>
<g filter="url(#filter0_f_661_3217)">
<path d="M-127 104C-127 99.5817 -123.418 96 -119 96H38C42.4183 96 46 99.5817 46 104V197C46 201.418 42.4183 205 38 205H-119C-123.418 205 -127 201.418 -127 197V104Z" fill="#DEE3E9" fill-opacity="0.6"/>
</g>
<path d="M-136.5 94C-136.5 89.8579 -133.142 86.5 -129 86.5H48C52.1421 86.5 55.5 89.8579 55.5 94V192C55.5 196.142 52.1421 199.5 48 199.5H-129C-133.142 199.5 -136.5 196.142 -136.5 192V94Z" fill="white" stroke="#F2F5F5"/>
<rect x="-131" y="92" width="181" height="26" rx="5" fill="#D35448"/>
<g opacity="0.1" filter="url(#filter1_f_661_3217)">
<path d="M21 -80C21 -84.4183 24.5817 -88 29 -88H186C190.418 -88 194 -84.4183 194 -80V13C194 17.4183 190.418 21 186 21H29C24.5817 21 21 17.4183 21 13V-80Z" fill="#38E55E"/>
</g>
<path d="M11.5 -90C11.5 -94.1421 14.8579 -97.5 19 -97.5H196C200.142 -97.5 203.5 -94.1421 203.5 -90V8C203.5 12.1421 200.142 15.5 196 15.5H19C14.8579 15.5 11.5 12.1421 11.5 8V-90Z" fill="white" stroke="#F2F5F5"/>
<g opacity="0.1" filter="url(#filter2_f_661_3217)">
<path d="M319 34C319 29.5817 322.582 26 327 26H484C488.418 26 492 29.5817 492 34V127C492 131.418 488.418 135 484 135H327C322.582 135 319 131.418 319 127V34Z" fill="#04B6DC"/>
</g>
<path d="M309.5 24C309.5 19.8579 312.858 16.5 317 16.5H494C498.142 16.5 501.5 19.8579 501.5 24V122C501.5 126.142 498.142 129.5 494 129.5H317C312.858 129.5 309.5 126.142 309.5 122V24Z" fill="white" stroke="#F2F5F5"/>
<rect x="315" y="22" width="181" height="26" rx="5" fill="#38E55E"/>
<path d="M104 18C104 36 179.5 18 179.5 36" stroke="#A2CDCD" stroke-width="2.25907"/>
<circle cx="104.271" cy="14.2712" r="6.4007" fill="#A2CDCD" stroke="white" stroke-width="2.25907"/>
<path d="M137.44 160.094C137.44 177.423 90 177.16 90 196.239" stroke="url(#paint0_linear_661_3217)" stroke-width="2.25907"/>
<path d="M222 160C223.5 185.5 335 174.165 335 190" stroke="url(#paint1_linear_661_3217)" stroke-width="2.25907"/>
<g opacity="0.1" filter="url(#filter3_f_661_3217)">
<path d="M93 59.5522C93 55.134 96.5817 51.5522 101 51.5522H258C262.418 51.5522 266 55.134 266 59.5522V152.552C266 156.971 262.418 160.552 258 160.552H101C96.5817 160.552 93 156.971 93 152.552V59.5522Z" fill="#FDAD3E"/>
</g>
<path d="M83.5 49.5522C83.5 45.4101 86.8579 42.0522 91 42.0522H268C272.142 42.0522 275.5 45.4101 275.5 49.5522V147.552C275.5 151.694 272.142 155.052 268 155.052H91C86.8579 155.052 83.5 151.694 83.5 147.552V49.5522Z" fill="white" stroke="#F2F5F5"/>
<rect opacity="0.3" x="112" y="92.5522" width="48" height="22" rx="4" fill="#C6D5DC"/>
<rect opacity="0.3" x="162" y="92.5522" width="50" height="22" rx="4" fill="#C6D5DC"/>
<rect x="214" y="92.5522" width="29" height="22" rx="4" fill="#FEEFEC"/>
<rect opacity="0.5" x="120" y="101.552" width="33" height="4" rx="2" fill="#688FA1"/>
<rect opacity="0.5" x="170" y="101.552" width="34" height="4" rx="2" fill="#688FA1"/>
<rect x="222" y="101.552" width="13" height="4" rx="2" fill="#F25A3E"/>
<rect x="131" y="134.552" width="12" height="4" rx="2" fill="#F25A3E"/>
<rect x="216" y="134.552" width="12" height="4" rx="2" fill="#38E55E"/>
<rect x="89" y="47.5522" width="181" height="26" rx="5" fill="#FDAD3E"/>
<rect opacity="0.5" x="139" y="58.5522" width="82" height="4" rx="2" fill="white"/>
<circle cx="180.271" cy="40.2712" r="6.4007" fill="#A2CDCD" stroke="white" stroke-width="2.25907"/>
<circle cx="142" cy="27" r="4" fill="#A2CDCD"/>
<circle cx="137.441" cy="154.823" r="6.4007" fill="#A2CDCD" stroke="white" stroke-width="2.25907"/>
<circle cx="222.271" cy="154.823" r="6.4007" fill="#A2CDCD" stroke="white" stroke-width="2.25907"/>
</g>
<defs>
<filter id="filter0_f_661_3217" x="-137" y="86" width="193" height="129" filterUnits="userSpaceOnUse" color-interpolation-filters="sRGB">
<feFlood flood-opacity="0" result="BackgroundImageFix"/>
<feBlend mode="normal" in="SourceGraphic" in2="BackgroundImageFix" result="shape"/>
<feGaussianBlur stdDeviation="5" result="effect1_foregroundBlur_661_3217"/>
</filter>
<filter id="filter1_f_661_3217" x="2.9" y="-106.1" width="209.2" height="145.2" filterUnits="userSpaceOnUse" color-interpolation-filters="sRGB">
<feFlood flood-opacity="0" result="BackgroundImageFix"/>
<feBlend mode="normal" in="SourceGraphic" in2="BackgroundImageFix" result="shape"/>
<feGaussianBlur stdDeviation="9.05" result="effect1_foregroundBlur_661_3217"/>
</filter>
<filter id="filter2_f_661_3217" x="300.9" y="7.9" width="209.2" height="145.2" filterUnits="userSpaceOnUse" color-interpolation-filters="sRGB">
<feFlood flood-opacity="0" result="BackgroundImageFix"/>
<feBlend mode="normal" in="SourceGraphic" in2="BackgroundImageFix" result="shape"/>
<feGaussianBlur stdDeviation="9.05" result="effect1_foregroundBlur_661_3217"/>
</filter>
<filter id="filter3_f_661_3217" x="74.9" y="33.4522" width="209.2" height="145.2" filterUnits="userSpaceOnUse" color-interpolation-filters="sRGB">
<feFlood flood-opacity="0" result="BackgroundImageFix"/>
<feBlend mode="normal" in="SourceGraphic" in2="BackgroundImageFix" result="shape"/>
<feGaussianBlur stdDeviation="9.05" result="effect1_foregroundBlur_661_3217"/>
</filter>
<linearGradient id="paint0_linear_661_3217" x1="113.72" y1="160.094" x2="113.72" y2="182.54" gradientUnits="userSpaceOnUse">
<stop stop-color="#A2CDCD"/>
<stop offset="1" stop-color="#A2CDCD" stop-opacity="0"/>
</linearGradient>
<linearGradient id="paint1_linear_661_3217" x1="278.5" y1="160" x2="278.5" y2="178.629" gradientUnits="userSpaceOnUse">
<stop stop-color="#A2CDCD"/>
<stop offset="1" stop-color="#A2CDCD" stop-opacity="0"/>
</linearGradient>
<clipPath id="clip0_661_3217">
<rect width="358" height="190" fill="white"/>
</clipPath>
</defs>
</svg>
