<svg width="358" height="190" viewBox="0 0 358 190" fill="none" xmlns="http://www.w3.org/2000/svg">
<g clip-path="url(#clip0_659_2561)">
<rect width="358" height="190" fill="white"/>
<ellipse cx="57.359" cy="165" rx="24.7238" ry="25" fill="#0055FF"/>
<path d="M64.3086 151H49.3582C45.9213 151 43 153.856 43 157.217V169.818C43 173.347 45.9213 176.203 49.3582 176.203H60.0125V180.404C65.8552 180.404 70.6669 175.699 70.6669 169.986V157.385C70.8387 153.856 67.9174 151 64.3086 151ZM53.4825 165.786C52.2796 165.786 51.2485 164.778 51.2485 163.602C51.2485 162.425 52.2796 161.417 53.4825 161.417C54.6854 161.417 55.7164 162.425 55.7164 163.602C55.7164 164.778 54.6854 165.786 53.4825 165.786ZM60.3562 165.786C59.1533 165.786 58.1223 164.778 58.1223 163.602C58.1223 162.425 59.1533 161.417 60.3562 161.417C61.5591 161.417 62.5902 162.425 62.5902 163.602C62.762 164.778 61.731 165.786 60.3562 165.786Z" fill="white"/>
<g filter="url(#filter0_f_659_2561)">
<rect x="97" y="54" width="112" height="127" rx="8" fill="#DEE3E9" fill-opacity="0.6"/>
</g>
<rect x="93.5" y="44.5" width="119" height="136" rx="7.5" fill="white" stroke="#DEEDEF"/>
<rect opacity="0.5" x="108" y="60" width="65" height="4" rx="2" fill="#688FA1"/>
<rect opacity="0.5" x="108" y="72" width="57" height="4" rx="2" fill="#688FA1"/>
<rect x="107.307" y="120.5" width="91.9613" height="19" rx="3.5" fill="white" stroke="#DEEDEF"/>
<rect x="107.307" y="96.5" width="91.9613" height="19" rx="3.5" fill="white" stroke="#DEEDEF"/>
<rect opacity="0.5" x="115" y="128" width="32" height="4" rx="2" fill="#688FA1"/>
<rect opacity="0.5" x="115" y="104" width="45" height="4" rx="2" fill="#688FA1"/>
<circle cx="203" cy="54" r="6" fill="#F5F5F7" fill-opacity="0.5"/>
<path d="M204.667 52.2856L201.333 55.6191" stroke="#818791" stroke-width="0.776471" stroke-linecap="round"/>
<path d="M204.619 55.6191L201.286 52.2856" stroke="#818791" stroke-width="0.776471" stroke-linecap="round"/>
<rect x="106.807" y="145" width="92.9613" height="20" rx="4" fill="#38E65E"/>
<rect opacity="0.5" x="139" y="153" width="32" height="4" rx="2" fill="white"/>
<g filter="url(#filter1_f_659_2561)">
<rect x="-8" y="6" width="382" height="34" rx="8" fill="#DEE3E9" fill-opacity="0.6"/>
</g>
<rect x="-8" width="382" height="34" rx="8" fill="white"/>
<rect x="216.729" y="7" width="92.9613" height="20" rx="4" fill="#F9C775"/>
<rect opacity="0.5" x="250" y="15" width="32" height="4" rx="2" fill="white"/>
<rect opacity="0.5" x="43" y="15" width="40" height="4" rx="2" fill="#688FA1"/>
<rect opacity="0.5" x="156" y="15" width="36" height="4" rx="2" fill="#688FA1"/>
<rect opacity="0.5" x="87" y="15" width="65" height="4" rx="2" fill="#688FA1"/>
<g filter="url(#filter2_f_659_2561)">
<rect x="-41" y="62" width="118" height="73" rx="8" fill="#DEE3E9" fill-opacity="0.6"/>
</g>
<rect x="-40.5" y="58.5" width="119" height="71" rx="7.5" fill="white" stroke="#DEEDEF"/>
<circle cx="21" cy="94" r="16" fill="#B3C7D0"/>
<circle cx="69" cy="68" r="6" fill="#F5F5F7" fill-opacity="0.5"/>
<path d="M70.667 66.2856L67.3335 69.6191" stroke="#818791" stroke-width="0.776471" stroke-linecap="round"/>
<path d="M70.6191 69.6191L67.2856 66.2856" stroke="#818791" stroke-width="0.776471" stroke-linecap="round"/>
<path d="M25 92.268C26.3333 93.0378 26.3333 94.9623 25 95.7321L20.5 98.3301C19.1667 99.0999 17.5 98.1377 17.5 96.5981L17.5 91.4019C17.5 89.8623 19.1667 88.9001 20.5 89.6699L25 92.268Z" fill="white"/>
<g filter="url(#filter3_f_659_2561)">
<ellipse cx="246.5" cy="66.5" rx="19.5" ry="17.5" fill="#DEE3E9" fill-opacity="0.6"/>
</g>
<circle cx="246.5" cy="63.5" r="19" fill="white" stroke="#EFF6F6"/>
<g clip-path="url(#clip1_659_2561)">
<path fill-rule="evenodd" clip-rule="evenodd" d="M234.8 63.147C234.8 56.6292 239.91 51.8003 246.498 51.8003C253.086 51.8003 258.197 56.6292 258.197 63.1558C258.197 69.6735 253.086 74.5025 246.498 74.5025C245.311 74.5025 244.176 74.3441 243.112 74.0539C242.91 73.9923 242.681 74.0099 242.487 74.0979L240.165 75.1182C239.558 75.3908 238.872 74.9511 238.855 74.2914L238.793 72.2067C238.784 71.9517 238.67 71.7054 238.476 71.5383C236.198 69.5064 234.8 66.5598 234.8 63.147ZM242.91 61.0184L239.471 66.4719C239.146 66.9908 239.788 67.5802 240.28 67.2019L243.975 64.396C244.221 64.2113 244.564 64.2113 244.819 64.396L247.555 66.4455C248.381 67.0612 249.551 66.8501 250.097 65.9793L253.536 60.5347C253.861 60.0157 253.219 59.4176 252.726 59.7958L249.032 62.6017C248.786 62.7864 248.443 62.7864 248.188 62.6017L245.452 60.5522C244.625 59.9365 243.456 60.1476 242.91 61.0184Z" fill="url(#paint0_radial_659_2561)"/>
</g>
<g filter="url(#filter4_f_659_2561)">
<path d="M287.5 84C298.27 84 307 76.165 307 66.5C307 56.835 298.27 49 287.5 49C276.73 49 268 56.835 268 66.5C268 76.165 276.73 84 287.5 84Z" fill="#DEE3E9" fill-opacity="0.6"/>
</g>
<path d="M306.08 63.5C306.08 73.9987 297.665 82.5 287.296 82.5C276.927 82.5 268.511 73.9987 268.511 63.5C268.511 53.0013 276.927 44.5 287.296 44.5C297.665 44.5 306.08 53.0013 306.08 63.5Z" fill="white" stroke="#EFF6F6"/>
<path d="M276.037 63.331L289.024 57.9206C290.306 57.357 294.653 55.5535 294.653 55.5535C294.653 55.5535 296.659 54.7645 296.492 56.6807C296.437 57.4697 295.991 60.2312 295.545 63.2182L294.151 72.0665C294.151 72.0665 294.04 73.3627 293.092 73.5882C292.145 73.8136 290.584 72.7992 290.306 72.5737C290.083 72.4047 286.125 69.8685 284.676 68.6286C284.286 68.2905 283.84 67.6142 284.732 66.8252C286.739 64.9653 289.135 62.6547 290.584 61.1893C291.253 60.513 291.922 58.935 289.135 60.8512L281.276 66.2052C281.276 66.2052 280.385 66.7688 278.713 66.2616C277.041 65.7544 275.09 65.0781 275.09 65.0781C275.09 65.0781 273.752 64.2327 276.037 63.331Z" fill="url(#paint1_linear_659_2561)"/>
<g filter="url(#filter5_f_659_2561)">
<ellipse cx="331.5" cy="66.5" rx="19.5" ry="17.5" fill="#DEE3E9" fill-opacity="0.6"/>
</g>
<circle cx="331.5" cy="63.5" r="19" fill="white" stroke="#EFF6F6"/>
<g clip-path="url(#clip2_659_2561)">
<path d="M327.601 63.5003C327.601 61.3465 329.346 59.6 331.5 59.6C333.654 59.6 335.401 61.3465 335.401 63.5003C335.401 65.6541 333.654 67.4006 331.5 67.4006C329.346 67.4006 327.601 65.6541 327.601 63.5003ZM325.492 63.5003C325.492 66.8184 328.182 69.5081 331.5 69.5081C334.819 69.5081 337.508 66.8184 337.508 63.5003C337.508 60.1822 334.819 57.4925 331.5 57.4925C328.182 57.4925 325.492 60.1822 325.492 63.5003ZM336.342 57.2543C336.342 57.532 336.424 57.8034 336.578 58.0344C336.733 58.2653 336.952 58.4454 337.208 58.5517C337.465 58.6581 337.747 58.686 338.02 58.632C338.292 58.5779 338.542 58.4443 338.739 58.248C338.935 58.0517 339.069 57.8016 339.123 57.5293C339.177 57.257 339.15 56.9747 339.044 56.7181C338.937 56.4615 338.758 56.2421 338.527 56.0878C338.296 55.9334 338.024 55.8509 337.747 55.8508H337.746C337.374 55.851 337.017 55.9989 336.754 56.262C336.49 56.5252 336.342 56.8821 336.342 57.2543ZM326.773 73.0238C325.633 72.9719 325.013 72.7819 324.6 72.6213C324.054 72.4087 323.664 72.1554 323.255 71.7462C322.845 71.337 322.591 70.9476 322.379 70.4013C322.219 69.9895 322.029 69.3693 321.977 68.2286C321.92 66.9953 321.909 66.6248 321.909 63.5004C321.909 60.3759 321.921 60.0065 321.977 58.7722C322.029 57.6315 322.22 57.0125 322.379 56.5994C322.592 56.0532 322.845 55.6634 323.255 55.2537C323.664 54.8439 324.053 54.5902 324.6 54.3785C325.012 54.2179 325.633 54.0279 326.773 53.976C328.007 53.9193 328.377 53.908 331.5 53.908C334.623 53.908 334.994 53.9202 336.229 53.976C337.369 54.028 337.988 54.2194 338.401 54.3785C338.948 54.5902 339.338 54.8444 339.747 55.2537C340.157 55.6629 340.41 56.0532 340.623 56.5994C340.783 57.0113 340.973 57.6315 341.025 58.7722C341.082 60.0065 341.093 60.3759 341.093 63.5004C341.093 66.6248 341.082 66.9943 341.025 68.2286C340.973 69.3693 340.782 69.9893 340.623 70.4013C340.41 70.9476 340.157 71.3373 339.747 71.7462C339.338 72.155 338.948 72.4087 338.401 72.6213C337.99 72.7819 337.369 72.972 336.229 73.0238C334.995 73.0805 334.625 73.0919 331.5 73.0919C328.376 73.0919 328.006 73.0805 326.773 73.0238ZM326.676 51.8711C325.431 51.9279 324.58 52.1254 323.836 52.4146C323.067 52.7133 322.415 53.114 321.764 53.7641C321.113 54.4143 320.713 55.0669 320.414 55.8367C320.125 56.5804 319.927 57.4311 319.871 58.6766C319.813 59.9241 319.8 60.3229 319.8 63.5003C319.8 66.6776 319.813 67.0765 319.871 68.324C319.927 69.5696 320.125 70.4201 320.414 71.1639C320.713 71.9332 321.113 72.5866 321.764 73.2365C322.415 73.8863 323.067 74.2865 323.836 74.586C324.581 74.8752 325.431 75.0727 326.676 75.1294C327.925 75.1862 328.323 75.2003 331.5 75.2003C334.678 75.2003 335.077 75.1871 336.324 75.1294C337.57 75.0727 338.42 74.8752 339.164 74.586C339.934 74.2865 340.586 73.8866 341.237 73.2365C341.888 72.5863 342.287 71.9332 342.586 71.1639C342.876 70.4201 343.074 69.5695 343.13 68.324C343.187 67.0755 343.2 66.6776 343.2 63.5003C343.2 60.3229 343.187 59.9241 343.13 58.6766C343.073 57.431 342.876 56.58 342.586 55.8367C342.287 55.0674 341.887 54.4153 341.237 53.7641C340.587 53.1129 339.934 52.7133 339.165 52.4146C338.42 52.1254 337.57 51.9269 336.325 51.8711C335.078 51.8144 334.679 51.8003 331.501 51.8003C328.324 51.8003 327.925 51.8135 326.676 51.8711Z" fill="url(#paint2_linear_659_2561)"/>
</g>
<rect x="227.5" y="93.5" width="193" height="103" rx="7.5" stroke="#DEEDEF"/>
<rect opacity="0.5" x="312" y="110" width="68" height="4" rx="2" fill="#688FA1"/>
<rect opacity="0.5" x="312" y="122" width="60" height="4" rx="2" fill="#688FA1"/>
<rect x="312.02" y="136.5" width="91.9613" height="19" rx="3.5" fill="white" stroke="#DEEDEF"/>
<rect opacity="0.5" x="319" y="144" width="31" height="4" rx="2" fill="#688FA1"/>
<rect x="258" y="130" width="25" height="25" rx="3" fill="#D6E3E3"/>
<path d="M268.041 141.22L260.789 148.284C260.146 148.91 260.589 150 261.486 150H276.03C276.929 150 277.372 148.907 276.726 148.282L269.435 141.219C269.046 140.842 268.429 140.843 268.041 141.22Z" fill="white"/>
<path d="M273.951 142.99L268.741 148.3C268.12 148.932 268.569 150 269.455 150L279.705 150C280.583 150 281.035 148.949 280.43 148.312L275.39 143.002C275 142.592 274.347 142.586 273.951 142.99Z" fill="white"/>
<circle cx="277" cy="138" r="3" fill="white"/>
<rect x="311.52" y="161" width="92.9613" height="20" rx="4" fill="#0155FF"/>
<rect opacity="0.5" x="346" y="169" width="32" height="4" rx="2" fill="white"/>
</g>
<defs>
<filter id="filter0_f_659_2561" x="87" y="44" width="132" height="147" filterUnits="userSpaceOnUse" color-interpolation-filters="sRGB">
<feFlood flood-opacity="0" result="BackgroundImageFix"/>
<feBlend mode="normal" in="SourceGraphic" in2="BackgroundImageFix" result="shape"/>
<feGaussianBlur stdDeviation="5" result="effect1_foregroundBlur_659_2561"/>
</filter>
<filter id="filter1_f_659_2561" x="-18" y="-4" width="402" height="54" filterUnits="userSpaceOnUse" color-interpolation-filters="sRGB">
<feFlood flood-opacity="0" result="BackgroundImageFix"/>
<feBlend mode="normal" in="SourceGraphic" in2="BackgroundImageFix" result="shape"/>
<feGaussianBlur stdDeviation="5" result="effect1_foregroundBlur_659_2561"/>
</filter>
<filter id="filter2_f_659_2561" x="-51" y="52" width="138" height="93" filterUnits="userSpaceOnUse" color-interpolation-filters="sRGB">
<feFlood flood-opacity="0" result="BackgroundImageFix"/>
<feBlend mode="normal" in="SourceGraphic" in2="BackgroundImageFix" result="shape"/>
<feGaussianBlur stdDeviation="5" result="effect1_foregroundBlur_659_2561"/>
</filter>
<filter id="filter3_f_659_2561" x="217" y="39" width="59" height="55" filterUnits="userSpaceOnUse" color-interpolation-filters="sRGB">
<feFlood flood-opacity="0" result="BackgroundImageFix"/>
<feBlend mode="normal" in="SourceGraphic" in2="BackgroundImageFix" result="shape"/>
<feGaussianBlur stdDeviation="5" result="effect1_foregroundBlur_659_2561"/>
</filter>
<filter id="filter4_f_659_2561" x="258" y="39" width="59" height="55" filterUnits="userSpaceOnUse" color-interpolation-filters="sRGB">
<feFlood flood-opacity="0" result="BackgroundImageFix"/>
<feBlend mode="normal" in="SourceGraphic" in2="BackgroundImageFix" result="shape"/>
<feGaussianBlur stdDeviation="5" result="effect1_foregroundBlur_659_2561"/>
</filter>
<filter id="filter5_f_659_2561" x="302" y="39" width="59" height="55" filterUnits="userSpaceOnUse" color-interpolation-filters="sRGB">
<feFlood flood-opacity="0" result="BackgroundImageFix"/>
<feBlend mode="normal" in="SourceGraphic" in2="BackgroundImageFix" result="shape"/>
<feGaussianBlur stdDeviation="5" result="effect1_foregroundBlur_659_2561"/>
</filter>
<radialGradient id="paint0_radial_659_2561" cx="0" cy="0" r="1" gradientUnits="userSpaceOnUse" gradientTransform="translate(239.302 75.0507) scale(25.4949 25.4948)">
<stop stop-color="#0099FF"/>
<stop offset="0.6098" stop-color="#A033FF"/>
<stop offset="0.9348" stop-color="#FF5280"/>
<stop offset="1" stop-color="#FF7061"/>
</radialGradient>
<linearGradient id="paint1_linear_659_2561" x1="289.236" y1="58.4313" x2="285.239" y2="69.5845" gradientUnits="userSpaceOnUse">
<stop stop-color="#37AEE2"/>
<stop offset="1" stop-color="#1E96C8"/>
</linearGradient>
<linearGradient id="paint2_linear_659_2561" x1="337.65" y1="69.0717" x2="325.086" y2="57.6897" gradientUnits="userSpaceOnUse">
<stop stop-color="#FC9F4F"/>
<stop offset="0.3273" stop-color="#F2203E"/>
<stop offset="0.6485" stop-color="#B729A8"/>
<stop offset="1" stop-color="#5342D6"/>
</linearGradient>
<clipPath id="clip0_659_2561">
<rect width="358" height="190" fill="white"/>
</clipPath>
<clipPath id="clip1_659_2561">
<rect width="23.4" height="23.4" fill="white" transform="translate(234.8 51.8003)"/>
</clipPath>
<clipPath id="clip2_659_2561">
<rect width="23.4" height="23.4" fill="white" transform="translate(319.8 51.8003)"/>
</clipPath>
</defs>
</svg>
