<svg width="358" height="190" viewBox="0 0 358 190" fill="none" xmlns="http://www.w3.org/2000/svg">
<g clip-path="url(#clip0_661_3148)">
<rect width="358" height="190" fill="white"/>
<path opacity="0.7" d="M67 0H370V195H67V0Z" fill="url(#paint0_linear_661_3148)"/>
<path d="M78.5 218C78.5 218.276 78.7239 218.5 79 218.5C79.2761 218.5 79.5 218.276 79.5 218H78.5ZM79.5 215.059C79.5 214.783 79.2761 214.559 79 214.559C78.7239 214.559 78.5 214.783 78.5 215.059H79.5ZM78.5 209.176C78.5 209.453 78.7239 209.676 79 209.676C79.2761 209.676 79.5 209.453 79.5 209.176H78.5ZM79.5 203.294C79.5 203.018 79.2761 202.794 79 202.794C78.7239 202.794 78.5 203.018 78.5 203.294H79.5ZM78.5 197.412C78.5 197.688 78.7239 197.912 79 197.912C79.2761 197.912 79.5 197.688 79.5 197.412H78.5ZM79.5 191.529C79.5 191.253 79.2761 191.029 79 191.029C78.7239 191.029 78.5 191.253 78.5 191.529H79.5ZM78.5 185.647C78.5 185.923 78.7239 186.147 79 186.147C79.2761 186.147 79.5 185.923 79.5 185.647H78.5ZM79.5 179.765C79.5 179.489 79.2761 179.265 79 179.265C78.7239 179.265 78.5 179.489 78.5 179.765H79.5ZM78.5 173.882C78.5 174.158 78.7239 174.382 79 174.382C79.2761 174.382 79.5 174.158 79.5 173.882H78.5ZM79.5 168C79.5 167.724 79.2761 167.5 79 167.5C78.7239 167.5 78.5 167.724 78.5 168H79.5ZM78.5 162.118C78.5 162.394 78.7239 162.618 79 162.618C79.2761 162.618 79.5 162.394 79.5 162.118H78.5ZM79.5 156.235C79.5 155.959 79.2761 155.735 79 155.735C78.7239 155.735 78.5 155.959 78.5 156.235H79.5ZM78.5 150.353C78.5 150.629 78.7239 150.853 79 150.853C79.2761 150.853 79.5 150.629 79.5 150.353H78.5ZM79.5 144.471C79.5 144.194 79.2761 143.971 79 143.971C78.7239 143.971 78.5 144.194 78.5 144.471H79.5ZM78.5 138.588C78.5 138.864 78.7239 139.088 79 139.088C79.2761 139.088 79.5 138.864 79.5 138.588H78.5ZM79.5 132.706C79.5 132.43 79.2761 132.206 79 132.206C78.7239 132.206 78.5 132.43 78.5 132.706H79.5ZM78.5 126.824C78.5 127.1 78.7239 127.324 79 127.324C79.2761 127.324 79.5 127.1 79.5 126.824H78.5ZM79.5 120.941C79.5 120.665 79.2761 120.441 79 120.441C78.7239 120.441 78.5 120.665 78.5 120.941H79.5ZM78.5 115.059C78.5 115.335 78.7239 115.559 79 115.559C79.2761 115.559 79.5 115.335 79.5 115.059H78.5ZM79.5 109.176C79.5 108.9 79.2761 108.676 79 108.676C78.7239 108.676 78.5 108.9 78.5 109.176H79.5ZM78.5 103.294C78.5 103.57 78.7239 103.794 79 103.794C79.2761 103.794 79.5 103.57 79.5 103.294H78.5ZM79.5 97.4117C79.5 97.1356 79.2761 96.9117 79 96.9117C78.7239 96.9117 78.5 97.1356 78.5 97.4117H79.5ZM78.5 91.5294C78.5 91.8055 78.7239 92.0294 79 92.0294C79.2761 92.0294 79.5 91.8055 79.5 91.5294H78.5ZM79.5 85.647C79.5 85.3709 79.2761 85.147 79 85.147C78.7239 85.147 78.5 85.3709 78.5 85.647H79.5ZM78.5 79.7647C78.5 80.0408 78.7239 80.2647 79 80.2647C79.2761 80.2647 79.5 80.0408 79.5 79.7647H78.5ZM79.5 73.8823C79.5 73.6062 79.2761 73.3823 79 73.3823C78.7239 73.3823 78.5 73.6062 78.5 73.8823H79.5ZM78.5 68C78.5 68.2761 78.7239 68.5 79 68.5C79.2761 68.5 79.5 68.2761 79.5 68H78.5ZM79.5 62.1176C79.5 61.8415 79.2761 61.6176 79 61.6176C78.7239 61.6176 78.5 61.8415 78.5 62.1176H79.5ZM78.5 56.2353C78.5 56.5114 78.7239 56.7353 79 56.7353C79.2761 56.7353 79.5 56.5114 79.5 56.2353H78.5ZM79.5 50.3529C79.5 50.0768 79.2761 49.8529 79 49.8529C78.7239 49.8529 78.5 50.0768 78.5 50.3529H79.5ZM78.5 44.4706C78.5 44.7467 78.7239 44.9706 79 44.9706C79.2761 44.9706 79.5 44.7467 79.5 44.4706H78.5ZM79.5 38.5882C79.5 38.3121 79.2761 38.0882 79 38.0882C78.7239 38.0882 78.5 38.3121 78.5 38.5882H79.5ZM78.5 32.7058C78.5 32.982 78.7239 33.2058 79 33.2058C79.2761 33.2058 79.5 32.982 79.5 32.7058H78.5ZM79.5 26.8235C79.5 26.5474 79.2761 26.3235 79 26.3235C78.7239 26.3235 78.5 26.5474 78.5 26.8235H79.5ZM78.5 20.9411C78.5 21.2173 78.7239 21.4411 79 21.4411C79.2761 21.4411 79.5 21.2173 79.5 20.9411H78.5ZM79.9171 15.8948C80.0229 15.6397 79.9019 15.3472 79.6468 15.2414C79.3917 15.1356 79.0992 15.2567 78.9934 15.5117L79.9171 15.8948ZM82.5117 11.9934C82.2567 12.0992 82.1356 12.3917 82.2414 12.6468C82.3472 12.9019 82.6397 13.0229 82.8948 12.9171L82.5117 11.9934ZM87.9688 12.5C88.2449 12.5 88.4688 12.2761 88.4688 12C88.4688 11.7239 88.2449 11.5 87.9688 11.5V12.5ZM93.9062 11.5C93.6301 11.5 93.4062 11.7239 93.4062 12C93.4062 12.2761 93.6301 12.5 93.9062 12.5V11.5ZM99.8438 12.5C100.12 12.5 100.344 12.2761 100.344 12C100.344 11.7239 100.12 11.5 99.8438 11.5V12.5ZM105.781 11.5C105.505 11.5 105.281 11.7239 105.281 12C105.281 12.2761 105.505 12.5 105.781 12.5V11.5ZM111.719 12.5C111.995 12.5 112.219 12.2761 112.219 12C112.219 11.7239 111.995 11.5 111.719 11.5V12.5ZM117.656 11.5C117.38 11.5 117.156 11.7239 117.156 12C117.156 12.2761 117.38 12.5 117.656 12.5V11.5ZM123.594 12.5C123.87 12.5 124.094 12.2761 124.094 12C124.094 11.7239 123.87 11.5 123.594 11.5V12.5ZM129.531 11.5C129.255 11.5 129.031 11.7239 129.031 12C129.031 12.2761 129.255 12.5 129.531 12.5V11.5ZM135.469 12.5C135.745 12.5 135.969 12.2761 135.969 12C135.969 11.7239 135.745 11.5 135.469 11.5V12.5ZM141.406 11.5C141.13 11.5 140.906 11.7239 140.906 12C140.906 12.2761 141.13 12.5 141.406 12.5V11.5ZM147.344 12.5C147.62 12.5 147.844 12.2761 147.844 12C147.844 11.7239 147.62 11.5 147.344 11.5V12.5ZM153.281 11.5C153.005 11.5 152.781 11.7239 152.781 12C152.781 12.2761 153.005 12.5 153.281 12.5V11.5ZM159.219 12.5C159.495 12.5 159.719 12.2761 159.719 12C159.719 11.7239 159.495 11.5 159.219 11.5V12.5ZM165.156 11.5C164.88 11.5 164.656 11.7239 164.656 12C164.656 12.2761 164.88 12.5 165.156 12.5V11.5ZM171.094 12.5C171.37 12.5 171.594 12.2761 171.594 12C171.594 11.7239 171.37 11.5 171.094 11.5V12.5ZM177.031 11.5C176.755 11.5 176.531 11.7239 176.531 12C176.531 12.2761 176.755 12.5 177.031 12.5V11.5ZM182.969 12.5C183.245 12.5 183.469 12.2761 183.469 12C183.469 11.7239 183.245 11.5 182.969 11.5V12.5ZM188.906 11.5C188.63 11.5 188.406 11.7239 188.406 12C188.406 12.2761 188.63 12.5 188.906 12.5V11.5ZM194.844 12.5C195.12 12.5 195.344 12.2761 195.344 12C195.344 11.7239 195.12 11.5 194.844 11.5V12.5ZM200.781 11.5C200.505 11.5 200.281 11.7239 200.281 12C200.281 12.2761 200.505 12.5 200.781 12.5V11.5ZM206.719 12.5C206.995 12.5 207.219 12.2761 207.219 12C207.219 11.7239 206.995 11.5 206.719 11.5V12.5ZM212.656 11.5C212.38 11.5 212.156 11.7239 212.156 12C212.156 12.2761 212.38 12.5 212.656 12.5V11.5ZM218.594 12.5C218.87 12.5 219.094 12.2761 219.094 12C219.094 11.7239 218.87 11.5 218.594 11.5V12.5ZM224.531 11.5C224.255 11.5 224.031 11.7239 224.031 12C224.031 12.2761 224.255 12.5 224.531 12.5V11.5ZM230.469 12.5C230.745 12.5 230.969 12.2761 230.969 12C230.969 11.7239 230.745 11.5 230.469 11.5V12.5ZM236.406 11.5C236.13 11.5 235.906 11.7239 235.906 12C235.906 12.2761 236.13 12.5 236.406 12.5V11.5ZM242.344 12.5C242.62 12.5 242.844 12.2761 242.844 12C242.844 11.7239 242.62 11.5 242.344 11.5V12.5ZM248.281 11.5C248.005 11.5 247.781 11.7239 247.781 12C247.781 12.2761 248.005 12.5 248.281 12.5V11.5ZM254.219 12.5C254.495 12.5 254.719 12.2761 254.719 12C254.719 11.7239 254.495 11.5 254.219 11.5V12.5ZM260.156 11.5C259.88 11.5 259.656 11.7239 259.656 12C259.656 12.2761 259.88 12.5 260.156 12.5V11.5ZM266.094 12.5C266.37 12.5 266.594 12.2761 266.594 12C266.594 11.7239 266.37 11.5 266.094 11.5V12.5ZM272.031 11.5C271.755 11.5 271.531 11.7239 271.531 12C271.531 12.2761 271.755 12.5 272.031 12.5V11.5ZM277.969 12.5C278.245 12.5 278.469 12.2761 278.469 12C278.469 11.7239 278.245 11.5 277.969 11.5V12.5ZM283.906 11.5C283.63 11.5 283.406 11.7239 283.406 12C283.406 12.2761 283.63 12.5 283.906 12.5V11.5ZM289.844 12.5C290.12 12.5 290.344 12.2761 290.344 12C290.344 11.7239 290.12 11.5 289.844 11.5V12.5ZM295.781 11.5C295.505 11.5 295.281 11.7239 295.281 12C295.281 12.2761 295.505 12.5 295.781 12.5V11.5ZM301.719 12.5C301.995 12.5 302.219 12.2761 302.219 12C302.219 11.7239 301.995 11.5 301.719 11.5V12.5ZM307.656 11.5C307.38 11.5 307.156 11.7239 307.156 12C307.156 12.2761 307.38 12.5 307.656 12.5V11.5ZM313.594 12.5C313.87 12.5 314.094 12.2761 314.094 12C314.094 11.7239 313.87 11.5 313.594 11.5V12.5ZM319.531 11.5C319.255 11.5 319.031 11.7239 319.031 12C319.031 12.2761 319.255 12.5 319.531 12.5V11.5ZM325.469 12.5C325.745 12.5 325.969 12.2761 325.969 12C325.969 11.7239 325.745 11.5 325.469 11.5V12.5ZM331.406 11.5C331.13 11.5 330.906 11.7239 330.906 12C330.906 12.2761 331.13 12.5 331.406 12.5V11.5ZM337.344 12.5C337.62 12.5 337.844 12.2761 337.844 12C337.844 11.7239 337.62 11.5 337.344 11.5V12.5ZM343.281 11.5C343.005 11.5 342.781 11.7239 342.781 12C342.781 12.2761 343.005 12.5 343.281 12.5V11.5ZM349.219 12.5C349.495 12.5 349.719 12.2761 349.719 12C349.719 11.7239 349.495 11.5 349.219 11.5V12.5ZM355.156 11.5C354.88 11.5 354.656 11.7239 354.656 12C354.656 12.2761 354.88 12.5 355.156 12.5V11.5ZM361.094 12.5C361.37 12.5 361.594 12.2761 361.594 12C361.594 11.7239 361.37 11.5 361.094 11.5V12.5ZM367.031 11.5C366.755 11.5 366.531 11.7239 366.531 12C366.531 12.2761 366.755 12.5 367.031 12.5V11.5ZM79.5 218V215.059H78.5V218H79.5ZM79.5 209.176V203.294H78.5V209.176H79.5ZM79.5 197.412V191.529H78.5V197.412H79.5ZM79.5 185.647V179.765H78.5V185.647H79.5ZM79.5 173.882V168H78.5V173.882H79.5ZM79.5 162.118V156.235H78.5V162.118H79.5ZM79.5 150.353V144.471H78.5V150.353H79.5ZM79.5 138.588V132.706H78.5V138.588H79.5ZM79.5 126.824V120.941H78.5V126.824H79.5ZM79.5 115.059V109.176H78.5V115.059H79.5ZM79.5 103.294V97.4117H78.5V103.294H79.5ZM79.5 91.5294V85.647H78.5V91.5294H79.5ZM79.5 79.7647V73.8823H78.5V79.7647H79.5ZM79.5 68V62.1176H78.5V68H79.5ZM79.5 56.2353V50.3529H78.5V56.2353H79.5ZM79.5 44.4706V38.5882H78.5V44.4706H79.5ZM79.5 32.7058V26.8235H78.5V32.7058H79.5ZM79.5 20.9411V18H78.5V20.9411H79.5ZM79.5 18C79.5 17.2533 79.6485 16.5426 79.9171 15.8948L78.9934 15.5117C78.6753 16.2788 78.5 17.1196 78.5 18H79.5ZM82.8948 12.9171C83.5426 12.6485 84.2533 12.5 85 12.5V11.5C84.1196 11.5 83.2788 11.6753 82.5117 11.9934L82.8948 12.9171ZM85 12.5H87.9688V11.5H85V12.5ZM93.9062 12.5H99.8438V11.5H93.9062V12.5ZM105.781 12.5H111.719V11.5H105.781V12.5ZM117.656 12.5H123.594V11.5H117.656V12.5ZM129.531 12.5H135.469V11.5H129.531V12.5ZM141.406 12.5H147.344V11.5H141.406V12.5ZM153.281 12.5H159.219V11.5H153.281V12.5ZM165.156 12.5H171.094V11.5H165.156V12.5ZM177.031 12.5H182.969V11.5H177.031V12.5ZM188.906 12.5H194.844V11.5H188.906V12.5ZM200.781 12.5H206.719V11.5H200.781V12.5ZM212.656 12.5H218.594V11.5H212.656V12.5ZM224.531 12.5H230.469V11.5H224.531V12.5ZM236.406 12.5H242.344V11.5H236.406V12.5ZM248.281 12.5H254.219V11.5H248.281V12.5ZM260.156 12.5H266.094V11.5H260.156V12.5ZM272.031 12.5H277.969V11.5H272.031V12.5ZM283.906 12.5H289.844V11.5H283.906V12.5ZM295.781 12.5H301.719V11.5H295.781V12.5ZM307.656 12.5H313.594V11.5H307.656V12.5ZM319.531 12.5H325.469V11.5H319.531V12.5ZM331.406 12.5H337.344V11.5H331.406V12.5ZM343.281 12.5H349.219V11.5H343.281V12.5ZM355.156 12.5H361.094V11.5H355.156V12.5ZM367.031 12.5H370V11.5H367.031V12.5ZM78.5 218C78.5 218.276 78.7239 218.5 79 218.5C79.2761 218.5 79.5 218.276 79.5 218H78.5ZM79.5 215.059C79.5 214.783 79.2761 214.559 79 214.559C78.7239 214.559 78.5 214.783 78.5 215.059H79.5ZM78.5 209.176C78.5 209.453 78.7239 209.676 79 209.676C79.2761 209.676 79.5 209.453 79.5 209.176H78.5ZM79.5 203.294C79.5 203.018 79.2761 202.794 79 202.794C78.7239 202.794 78.5 203.018 78.5 203.294H79.5ZM78.5 197.412C78.5 197.688 78.7239 197.912 79 197.912C79.2761 197.912 79.5 197.688 79.5 197.412H78.5ZM79.5 191.529C79.5 191.253 79.2761 191.029 79 191.029C78.7239 191.029 78.5 191.253 78.5 191.529H79.5ZM78.5 185.647C78.5 185.923 78.7239 186.147 79 186.147C79.2761 186.147 79.5 185.923 79.5 185.647H78.5ZM79.5 179.765C79.5 179.489 79.2761 179.265 79 179.265C78.7239 179.265 78.5 179.489 78.5 179.765H79.5ZM78.5 173.882C78.5 174.158 78.7239 174.382 79 174.382C79.2761 174.382 79.5 174.158 79.5 173.882H78.5ZM79.5 168C79.5 167.724 79.2761 167.5 79 167.5C78.7239 167.5 78.5 167.724 78.5 168H79.5ZM78.5 162.118C78.5 162.394 78.7239 162.618 79 162.618C79.2761 162.618 79.5 162.394 79.5 162.118H78.5ZM79.5 156.235C79.5 155.959 79.2761 155.735 79 155.735C78.7239 155.735 78.5 155.959 78.5 156.235H79.5ZM78.5 150.353C78.5 150.629 78.7239 150.853 79 150.853C79.2761 150.853 79.5 150.629 79.5 150.353H78.5ZM79.5 144.471C79.5 144.194 79.2761 143.971 79 143.971C78.7239 143.971 78.5 144.194 78.5 144.471H79.5ZM78.5 138.588C78.5 138.864 78.7239 139.088 79 139.088C79.2761 139.088 79.5 138.864 79.5 138.588H78.5ZM79.5 132.706C79.5 132.43 79.2761 132.206 79 132.206C78.7239 132.206 78.5 132.43 78.5 132.706H79.5ZM78.5 126.824C78.5 127.1 78.7239 127.324 79 127.324C79.2761 127.324 79.5 127.1 79.5 126.824H78.5ZM79.5 120.941C79.5 120.665 79.2761 120.441 79 120.441C78.7239 120.441 78.5 120.665 78.5 120.941H79.5ZM78.5 115.059C78.5 115.335 78.7239 115.559 79 115.559C79.2761 115.559 79.5 115.335 79.5 115.059H78.5ZM79.5 109.176C79.5 108.9 79.2761 108.676 79 108.676C78.7239 108.676 78.5 108.9 78.5 109.176H79.5ZM78.5 103.294C78.5 103.57 78.7239 103.794 79 103.794C79.2761 103.794 79.5 103.57 79.5 103.294H78.5ZM79.5 97.4117C79.5 97.1356 79.2761 96.9117 79 96.9117C78.7239 96.9117 78.5 97.1356 78.5 97.4117H79.5ZM78.5 91.5294C78.5 91.8055 78.7239 92.0294 79 92.0294C79.2761 92.0294 79.5 91.8055 79.5 91.5294H78.5ZM79.5 85.647C79.5 85.3709 79.2761 85.147 79 85.147C78.7239 85.147 78.5 85.3709 78.5 85.647H79.5ZM78.5 79.7647C78.5 80.0408 78.7239 80.2647 79 80.2647C79.2761 80.2647 79.5 80.0408 79.5 79.7647H78.5ZM79.5 73.8823C79.5 73.6062 79.2761 73.3823 79 73.3823C78.7239 73.3823 78.5 73.6062 78.5 73.8823H79.5ZM78.5 68C78.5 68.2761 78.7239 68.5 79 68.5C79.2761 68.5 79.5 68.2761 79.5 68H78.5ZM79.5 62.1176C79.5 61.8415 79.2761 61.6176 79 61.6176C78.7239 61.6176 78.5 61.8415 78.5 62.1176H79.5ZM78.5 56.2353C78.5 56.5114 78.7239 56.7353 79 56.7353C79.2761 56.7353 79.5 56.5114 79.5 56.2353H78.5ZM79.5 50.3529C79.5 50.0768 79.2761 49.8529 79 49.8529C78.7239 49.8529 78.5 50.0768 78.5 50.3529H79.5ZM78.5 44.4706C78.5 44.7467 78.7239 44.9706 79 44.9706C79.2761 44.9706 79.5 44.7467 79.5 44.4706H78.5ZM79.5 38.5882C79.5 38.3121 79.2761 38.0882 79 38.0882C78.7239 38.0882 78.5 38.3121 78.5 38.5882H79.5ZM78.5 32.7058C78.5 32.982 78.7239 33.2058 79 33.2058C79.2761 33.2058 79.5 32.982 79.5 32.7058H78.5ZM79.5 26.8235C79.5 26.5474 79.2761 26.3235 79 26.3235C78.7239 26.3235 78.5 26.5474 78.5 26.8235H79.5ZM78.5 20.9411C78.5 21.2173 78.7239 21.4411 79 21.4411C79.2761 21.4411 79.5 21.2173 79.5 20.9411H78.5ZM79.9171 15.8948C80.0229 15.6397 79.9019 15.3472 79.6468 15.2414C79.3917 15.1356 79.0992 15.2567 78.9934 15.5117L79.9171 15.8948ZM82.5117 11.9934C82.2567 12.0992 82.1356 12.3917 82.2414 12.6468C82.3472 12.9019 82.6397 13.0229 82.8948 12.9171L82.5117 11.9934ZM87.9688 12.5C88.2449 12.5 88.4688 12.2761 88.4688 12C88.4688 11.7239 88.2449 11.5 87.9688 11.5V12.5ZM93.9062 11.5C93.6301 11.5 93.4062 11.7239 93.4062 12C93.4062 12.2761 93.6301 12.5 93.9062 12.5V11.5ZM99.8438 12.5C100.12 12.5 100.344 12.2761 100.344 12C100.344 11.7239 100.12 11.5 99.8438 11.5V12.5ZM105.781 11.5C105.505 11.5 105.281 11.7239 105.281 12C105.281 12.2761 105.505 12.5 105.781 12.5V11.5ZM111.719 12.5C111.995 12.5 112.219 12.2761 112.219 12C112.219 11.7239 111.995 11.5 111.719 11.5V12.5ZM117.656 11.5C117.38 11.5 117.156 11.7239 117.156 12C117.156 12.2761 117.38 12.5 117.656 12.5V11.5ZM123.594 12.5C123.87 12.5 124.094 12.2761 124.094 12C124.094 11.7239 123.87 11.5 123.594 11.5V12.5ZM129.531 11.5C129.255 11.5 129.031 11.7239 129.031 12C129.031 12.2761 129.255 12.5 129.531 12.5V11.5ZM135.469 12.5C135.745 12.5 135.969 12.2761 135.969 12C135.969 11.7239 135.745 11.5 135.469 11.5V12.5ZM141.406 11.5C141.13 11.5 140.906 11.7239 140.906 12C140.906 12.2761 141.13 12.5 141.406 12.5V11.5ZM147.344 12.5C147.62 12.5 147.844 12.2761 147.844 12C147.844 11.7239 147.62 11.5 147.344 11.5V12.5ZM153.281 11.5C153.005 11.5 152.781 11.7239 152.781 12C152.781 12.2761 153.005 12.5 153.281 12.5V11.5ZM159.219 12.5C159.495 12.5 159.719 12.2761 159.719 12C159.719 11.7239 159.495 11.5 159.219 11.5V12.5ZM165.156 11.5C164.88 11.5 164.656 11.7239 164.656 12C164.656 12.2761 164.88 12.5 165.156 12.5V11.5ZM171.094 12.5C171.37 12.5 171.594 12.2761 171.594 12C171.594 11.7239 171.37 11.5 171.094 11.5V12.5ZM177.031 11.5C176.755 11.5 176.531 11.7239 176.531 12C176.531 12.2761 176.755 12.5 177.031 12.5V11.5ZM182.969 12.5C183.245 12.5 183.469 12.2761 183.469 12C183.469 11.7239 183.245 11.5 182.969 11.5V12.5ZM188.906 11.5C188.63 11.5 188.406 11.7239 188.406 12C188.406 12.2761 188.63 12.5 188.906 12.5V11.5ZM194.844 12.5C195.12 12.5 195.344 12.2761 195.344 12C195.344 11.7239 195.12 11.5 194.844 11.5V12.5ZM200.781 11.5C200.505 11.5 200.281 11.7239 200.281 12C200.281 12.2761 200.505 12.5 200.781 12.5V11.5ZM206.719 12.5C206.995 12.5 207.219 12.2761 207.219 12C207.219 11.7239 206.995 11.5 206.719 11.5V12.5ZM212.656 11.5C212.38 11.5 212.156 11.7239 212.156 12C212.156 12.2761 212.38 12.5 212.656 12.5V11.5ZM218.594 12.5C218.87 12.5 219.094 12.2761 219.094 12C219.094 11.7239 218.87 11.5 218.594 11.5V12.5ZM224.531 11.5C224.255 11.5 224.031 11.7239 224.031 12C224.031 12.2761 224.255 12.5 224.531 12.5V11.5ZM230.469 12.5C230.745 12.5 230.969 12.2761 230.969 12C230.969 11.7239 230.745 11.5 230.469 11.5V12.5ZM236.406 11.5C236.13 11.5 235.906 11.7239 235.906 12C235.906 12.2761 236.13 12.5 236.406 12.5V11.5ZM242.344 12.5C242.62 12.5 242.844 12.2761 242.844 12C242.844 11.7239 242.62 11.5 242.344 11.5V12.5ZM248.281 11.5C248.005 11.5 247.781 11.7239 247.781 12C247.781 12.2761 248.005 12.5 248.281 12.5V11.5ZM254.219 12.5C254.495 12.5 254.719 12.2761 254.719 12C254.719 11.7239 254.495 11.5 254.219 11.5V12.5ZM260.156 11.5C259.88 11.5 259.656 11.7239 259.656 12C259.656 12.2761 259.88 12.5 260.156 12.5V11.5ZM266.094 12.5C266.37 12.5 266.594 12.2761 266.594 12C266.594 11.7239 266.37 11.5 266.094 11.5V12.5ZM272.031 11.5C271.755 11.5 271.531 11.7239 271.531 12C271.531 12.2761 271.755 12.5 272.031 12.5V11.5ZM277.969 12.5C278.245 12.5 278.469 12.2761 278.469 12C278.469 11.7239 278.245 11.5 277.969 11.5V12.5ZM283.906 11.5C283.63 11.5 283.406 11.7239 283.406 12C283.406 12.2761 283.63 12.5 283.906 12.5V11.5ZM289.844 12.5C290.12 12.5 290.344 12.2761 290.344 12C290.344 11.7239 290.12 11.5 289.844 11.5V12.5ZM295.781 11.5C295.505 11.5 295.281 11.7239 295.281 12C295.281 12.2761 295.505 12.5 295.781 12.5V11.5ZM301.719 12.5C301.995 12.5 302.219 12.2761 302.219 12C302.219 11.7239 301.995 11.5 301.719 11.5V12.5ZM307.656 11.5C307.38 11.5 307.156 11.7239 307.156 12C307.156 12.2761 307.38 12.5 307.656 12.5V11.5ZM313.594 12.5C313.87 12.5 314.094 12.2761 314.094 12C314.094 11.7239 313.87 11.5 313.594 11.5V12.5ZM319.531 11.5C319.255 11.5 319.031 11.7239 319.031 12C319.031 12.2761 319.255 12.5 319.531 12.5V11.5ZM325.469 12.5C325.745 12.5 325.969 12.2761 325.969 12C325.969 11.7239 325.745 11.5 325.469 11.5V12.5ZM331.406 11.5C331.13 11.5 330.906 11.7239 330.906 12C330.906 12.2761 331.13 12.5 331.406 12.5V11.5ZM337.344 12.5C337.62 12.5 337.844 12.2761 337.844 12C337.844 11.7239 337.62 11.5 337.344 11.5V12.5ZM343.281 11.5C343.005 11.5 342.781 11.7239 342.781 12C342.781 12.2761 343.005 12.5 343.281 12.5V11.5ZM349.219 12.5C349.495 12.5 349.719 12.2761 349.719 12C349.719 11.7239 349.495 11.5 349.219 11.5V12.5ZM355.156 11.5C354.88 11.5 354.656 11.7239 354.656 12C354.656 12.2761 354.88 12.5 355.156 12.5V11.5ZM361.094 12.5C361.37 12.5 361.594 12.2761 361.594 12C361.594 11.7239 361.37 11.5 361.094 11.5V12.5ZM367.031 11.5C366.755 11.5 366.531 11.7239 366.531 12C366.531 12.2761 366.755 12.5 367.031 12.5V11.5ZM79.5 218V215.059H78.5V218H79.5ZM79.5 209.176V203.294H78.5V209.176H79.5ZM79.5 197.412V191.529H78.5V197.412H79.5ZM79.5 185.647V179.765H78.5V185.647H79.5ZM79.5 173.882V168H78.5V173.882H79.5ZM79.5 162.118V156.235H78.5V162.118H79.5ZM79.5 150.353V144.471H78.5V150.353H79.5ZM79.5 138.588V132.706H78.5V138.588H79.5ZM79.5 126.824V120.941H78.5V126.824H79.5ZM79.5 115.059V109.176H78.5V115.059H79.5ZM79.5 103.294V97.4117H78.5V103.294H79.5ZM79.5 91.5294V85.647H78.5V91.5294H79.5ZM79.5 79.7647V73.8823H78.5V79.7647H79.5ZM79.5 68V62.1176H78.5V68H79.5ZM79.5 56.2353V50.3529H78.5V56.2353H79.5ZM79.5 44.4706V38.5882H78.5V44.4706H79.5ZM79.5 32.7058V26.8235H78.5V32.7058H79.5ZM79.5 20.9411V18H78.5V20.9411H79.5ZM79.5 18C79.5 17.2533 79.6485 16.5426 79.9171 15.8948L78.9934 15.5117C78.6753 16.2788 78.5 17.1196 78.5 18H79.5ZM82.8948 12.9171C83.5426 12.6485 84.2533 12.5 85 12.5V11.5C84.1196 11.5 83.2788 11.6753 82.5117 11.9934L82.8948 12.9171ZM85 12.5H87.9688V11.5H85V12.5ZM93.9062 12.5H99.8438V11.5H93.9062V12.5ZM105.781 12.5H111.719V11.5H105.781V12.5ZM117.656 12.5H123.594V11.5H117.656V12.5ZM129.531 12.5H135.469V11.5H129.531V12.5ZM141.406 12.5H147.344V11.5H141.406V12.5ZM153.281 12.5H159.219V11.5H153.281V12.5ZM165.156 12.5H171.094V11.5H165.156V12.5ZM177.031 12.5H182.969V11.5H177.031V12.5ZM188.906 12.5H194.844V11.5H188.906V12.5ZM200.781 12.5H206.719V11.5H200.781V12.5ZM212.656 12.5H218.594V11.5H212.656V12.5ZM224.531 12.5H230.469V11.5H224.531V12.5ZM236.406 12.5H242.344V11.5H236.406V12.5ZM248.281 12.5H254.219V11.5H248.281V12.5ZM260.156 12.5H266.094V11.5H260.156V12.5ZM272.031 12.5H277.969V11.5H272.031V12.5ZM283.906 12.5H289.844V11.5H283.906V12.5ZM295.781 12.5H301.719V11.5H295.781V12.5ZM307.656 12.5H313.594V11.5H307.656V12.5ZM319.531 12.5H325.469V11.5H319.531V12.5ZM331.406 12.5H337.344V11.5H331.406V12.5ZM343.281 12.5H349.219V11.5H343.281V12.5ZM355.156 12.5H361.094V11.5H355.156V12.5ZM367.031 12.5H370V11.5H367.031V12.5Z" fill="#92EABD"/>
<g filter="url(#filter0_f_661_3148)">
<rect x="170.355" y="98.2861" width="56.9119" height="56.82" rx="8" transform="rotate(-15 170.355 98.2861)" fill="#DEE3E9" fill-opacity="0.6"/>
</g>
<rect x="164.947" y="91.2725" width="64.6284" height="61.0691" rx="10" transform="rotate(-15 164.947 91.2725)" fill="white"/>
<rect x="201.127" y="107.821" width="22.7275" height="22.7275" rx="4" transform="rotate(-15 201.127 107.821)" stroke="#F5A623" stroke-width="3" stroke-miterlimit="10"/>
<rect x="180.349" y="101.624" width="22.7275" height="22.7275" rx="4" transform="rotate(-15 180.349 101.624)" fill="white" stroke="#F5A623" stroke-width="3" stroke-miterlimit="10"/>
<circle cx="197.044" cy="105.044" r="2.48582" transform="rotate(-15 197.044 105.044)" stroke="#F5A623" stroke-width="3" stroke-miterlimit="10" stroke-linecap="round"/>
<path d="M203.243 113.117L200.504 111.496C199.964 111.177 199.271 111.302 198.877 111.791L196.792 114.377C196.519 114.715 196.033 114.79 195.671 114.549L190.617 111.189C190.022 110.793 189.218 110.969 188.843 111.577L187.371 113.963" stroke="#F5A623" stroke-width="3" stroke-miterlimit="10" stroke-linecap="round"/>
<path d="M218.86 113.937C219.604 114.137 219.853 115.066 219.308 115.61L214.799 120.12C214.255 120.664 213.325 120.415 213.126 119.672L211.475 113.512C211.276 112.768 211.957 112.088 212.7 112.287L218.86 113.937Z" stroke="#F5A623" stroke-width="3" stroke-miterlimit="10" stroke-linecap="round"/>
<rect x="12.5" y="12.5" width="42" height="42" rx="5.5" fill="white" stroke="#F4F8F9"/>
<path d="M33.3455 40.5129L27.6068 23.7473C27.373 23.064 26.4083 23.0592 26.1676 23.7402L20.2407 40.5129" stroke="#B9554A" stroke-width="2" stroke-miterlimit="10" stroke-linecap="round"/>
<line x1="22.8789" y1="35.418" x2="30.7075" y2="35.418" stroke="#B9554A" stroke-width="2" stroke-miterlimit="10" stroke-linecap="round"/>
<path d="M45.6309 31.5039L45.6309 40.1039" stroke="#B9554A" stroke-width="2" stroke-miterlimit="10" stroke-linecap="round"/>
<ellipse cx="41.1263" cy="36.8278" rx="4.50476" ry="3.68571" stroke="#B9554A" stroke-width="2" stroke-miterlimit="10" stroke-linecap="round"/>
<path d="M45.6309 31.5037C45.6309 29.6943 43.7974 28.2275 41.5357 28.2275C39.2739 28.2275 37.4404 29.6943 37.4404 31.5037" stroke="#B9554A" stroke-width="2" stroke-miterlimit="10" stroke-linecap="round"/>
<rect x="12.5" y="57.5" width="42" height="42" rx="5.5" fill="white" stroke="#F4F8F9"/>
<path d="M45.5664 87.5318L46.5532 87.3697L45.5664 87.5318ZM43.4305 89.8496L43.3493 90.8463H43.3493L43.4305 89.8496ZM39.9065 89.5625L39.9877 88.5658L39.9065 89.5625ZM38.952 89.7515L39.3887 90.6511L38.952 89.7515ZM45.119 83.1187L46.0482 83.4884L45.119 83.1187ZM22 78.5C22 84.8513 27.1487 90 33.5 90V92C26.0442 92 20 85.9558 20 78.5H22ZM33.5 67C27.1487 67 22 72.1487 22 78.5H20C20 71.0442 26.0442 65 33.5 65V67ZM45 78.5C45 72.1487 39.8513 67 33.5 67V65C40.9558 65 47 71.0442 47 78.5H45ZM44.1898 82.749C44.7123 81.4359 45 80.0027 45 78.5H47C47 80.2601 46.6626 81.9438 46.0482 83.4884L44.1898 82.749ZM44.5797 87.694L44.0157 84.2621L45.9892 83.9378L46.5532 87.3697L44.5797 87.694ZM43.5117 88.8529C44.1598 88.9057 44.6851 88.3356 44.5797 87.694L46.5532 87.3697C46.8695 89.2946 45.2936 91.0046 43.3493 90.8463L43.5117 88.8529ZM39.9877 88.5658L43.5117 88.8529L43.3493 90.8463L39.8253 90.5592L39.9877 88.5658ZM33.5 90C35.3 90 37.0008 89.5872 38.5153 88.8519L39.3887 90.6511C37.6079 91.5156 35.6091 92 33.5 92V90ZM39.8253 90.5592C39.6947 90.5486 39.5441 90.5757 39.3887 90.6511L38.5153 88.8519C38.9539 88.639 39.4602 88.5229 39.9877 88.5658L39.8253 90.5592ZM46.0482 83.4884C45.9832 83.6516 45.9676 83.8064 45.9892 83.9378L44.0157 84.2621C43.9285 83.7315 44.0068 83.2092 44.1898 82.749L46.0482 83.4884Z" fill="#2F80ED"/>
<circle cx="33.5" cy="78.5" r="1.5" fill="#2F80ED"/>
<circle cx="28.5" cy="78.5" r="1.5" fill="#2F80ED"/>
<circle cx="38.5" cy="78.5" r="1.5" fill="#2F80ED"/>
<rect x="12.5" y="102.5" width="42" height="42" rx="5.5" fill="white" stroke="#F4F8F9"/>
<circle cx="26.1389" cy="134.273" r="1.75272" stroke="#F2C826" stroke-width="2"/>
<circle cx="41.3289" cy="134.273" r="1.75272" stroke="#F2C826" stroke-width="2"/>
<path d="M23.2174 117.331H43.0489C43.692 117.331 44.1945 117.886 44.1305 118.526L43.1794 128.037C43.1238 128.592 42.6563 129.015 42.0978 129.015H25.3184C24.7819 129.015 24.3257 128.624 24.2441 128.094L22.1907 114.747C22.1091 114.217 21.6529 113.825 21.1164 113.825H17.375" stroke="#F2C826" stroke-width="2" stroke-linecap="round"/>
<rect x="12.5" y="147.5" width="42" height="42" rx="5.5" fill="white" stroke="#F4F8F9"/>
<path d="M47 170.625V161.524C47 160.682 46.3178 160 45.4762 160H21.5238C20.6822 160 20 160.682 20 161.524V175.476C20 176.318 20.6822 177 21.5238 177H39.1466" stroke="#5BA657" stroke-width="2" stroke-linecap="round"/>
<path d="M40.2865 172.205L41.4517 177.098C41.5897 177.678 42.3101 177.882 42.7316 177.461L46.4602 173.732C46.8817 173.311 46.6778 172.59 46.0979 172.452L41.2041 171.287C40.6519 171.155 40.155 171.652 40.2865 172.205Z" fill="#5BA657"/>
<path d="M46 177L41.9999 173" stroke="#5BA657" stroke-width="2" stroke-miterlimit="10" stroke-linecap="round"/>
<circle cx="33.5" cy="168.5" r="1.5" fill="#5BA657"/>
<circle cx="28.5" cy="168.5" r="1.5" fill="#5BA657"/>
<circle cx="38.5" cy="168.5" r="1.5" fill="#5BA657"/>
<g filter="url(#filter1_f_661_3148)">
<path d="M129 26H123C118.582 26 115 29.5817 115 34V40C115 44.4183 118.582 48 123 48H129C133.418 48 137 44.4183 137 40V34C137 29.5817 133.418 26 129 26Z" fill="#DEE3E9" fill-opacity="0.4"/>
</g>
<path d="M133 24H119C116.791 24 115 25.7909 115 28V42C115 44.2091 116.791 46 119 46H133C135.209 46 137 44.2091 137 42V28C137 25.7909 135.209 24 133 24Z" fill="white"/>
<path d="M126.895 29.2889L120.873 35.7853C120.645 36.032 120.419 36.5243 120.368 36.868L120.043 39.3441C119.929 40.2383 120.513 40.8684 121.345 40.7384L123.653 40.3814C123.976 40.3291 124.432 40.0888 124.659 39.8344L130.681 33.3379C131.723 32.2166 132.212 30.9187 130.673 29.2723C129.142 27.6415 127.936 28.1676 126.895 29.2889Z" stroke="#9DB5C4" stroke-width="2" stroke-miterlimit="10" stroke-linecap="round" stroke-linejoin="round"/>
<path d="M125.471 31.0449C124.983 33.5449 127.097 35.0449 128.399 35.0449" stroke="#9DB5C4" stroke-width="2" stroke-miterlimit="10" stroke-linecap="round" stroke-linejoin="round"/>
<g filter="url(#filter2_f_661_3148)">
<path d="M105 26H99C94.5817 26 91 29.5817 91 34V40C91 44.4183 94.5817 48 99 48H105C109.418 48 113 44.4183 113 40V34C113 29.5817 109.418 26 105 26Z" fill="#DEE3E9" fill-opacity="0.4"/>
</g>
<path d="M109 24H95C92.7909 24 91 25.7909 91 28V42C91 44.2091 92.7909 46 95 46H109C111.209 46 113 44.2091 113 42V28C113 25.7909 111.209 24 109 24Z" fill="#00B175"/>
<path d="M96.9888 33.0317L94.9999 35.0247L96.9888 37.0176" stroke="white" stroke-width="2" stroke-miterlimit="10" stroke-linecap="round" stroke-linejoin="round"/>
<path d="M100 40.0068L101.989 41.9998L103.978 40.0068" stroke="white" stroke-width="2" stroke-miterlimit="10" stroke-linecap="round" stroke-linejoin="round"/>
<path d="M106.989 37.0181L108.978 35.0251L106.989 33.0322" stroke="white" stroke-width="2" stroke-miterlimit="10" stroke-linecap="round" stroke-linejoin="round"/>
<path d="M103.978 30.042L101.989 28.049L99.9998 30.042" stroke="white" stroke-width="2" stroke-miterlimit="10" stroke-linecap="round" stroke-linejoin="round"/>
<line x1="96" y1="35" x2="100" y2="35" stroke="white" stroke-width="2" stroke-miterlimit="10" stroke-linecap="round" stroke-linejoin="round"/>
<line x1="102" y1="41" x2="102" y2="37" stroke="white" stroke-width="2" stroke-miterlimit="10" stroke-linecap="round" stroke-linejoin="round"/>
<line x1="108" y1="35" x2="104" y2="35" stroke="white" stroke-width="2" stroke-miterlimit="10" stroke-linecap="round" stroke-linejoin="round"/>
<line x1="102" y1="29" x2="102" y2="33" stroke="white" stroke-width="2" stroke-miterlimit="10" stroke-linecap="round" stroke-linejoin="round"/>
<g filter="url(#filter3_f_661_3148)">
<path d="M153 26H147C142.582 26 139 29.5817 139 34V40C139 44.4183 142.582 48 147 48H153C157.418 48 161 44.4183 161 40V34C161 29.5817 157.418 26 153 26Z" fill="#DEE3E9" fill-opacity="0.4"/>
</g>
<path d="M157 24H143C140.791 24 139 25.7909 139 28V42C139 44.2091 140.791 46 143 46H157C159.209 46 161 44.2091 161 42V28C161 25.7909 159.209 24 157 24Z" fill="white"/>
<circle cx="145" cy="35" r="2" fill="#9DB5C4"/>
<circle cx="150" cy="35" r="2" fill="#9DB5C4"/>
<circle cx="155" cy="35" r="2" fill="#9DB5C4"/>
<g opacity="0.1" filter="url(#filter4_f_661_3148)">
<path d="M228.601 131.252C230.447 127.124 236.25 126.969 238.315 130.992L251.81 157.291C254.116 161.784 249.531 166.695 244.89 164.704L236.518 161.111C235.068 160.489 233.419 160.533 232.005 161.231L223.836 165.267C219.309 167.504 214.468 162.844 216.53 158.235L228.601 131.252Z" fill="url(#paint1_linear_661_3148)"/>
</g>
<path d="M232.452 133.124C230.537 130.325 232.714 126.555 236.096 126.813L265.57 129.064C269.346 129.352 270.687 134.209 267.594 136.395L260.153 141.652C258.542 142.789 257.511 144.575 257.331 146.538L256.499 155.612C256.153 159.383 251.276 160.65 249.138 157.524L232.452 133.124Z" fill="url(#paint2_linear_661_3148)" stroke="black" stroke-width="2.69448"/>
</g>
<defs>
<filter id="filter0_f_661_3148" x="162.151" y="75.3521" width="86.0869" height="86.022" filterUnits="userSpaceOnUse" color-interpolation-filters="sRGB">
<feFlood flood-opacity="0" result="BackgroundImageFix"/>
<feBlend mode="normal" in="SourceGraphic" in2="BackgroundImageFix" result="shape"/>
<feGaussianBlur stdDeviation="5" result="effect1_foregroundBlur_661_3148"/>
</filter>
<filter id="filter1_f_661_3148" x="105" y="16" width="42" height="42" filterUnits="userSpaceOnUse" color-interpolation-filters="sRGB">
<feFlood flood-opacity="0" result="BackgroundImageFix"/>
<feBlend mode="normal" in="SourceGraphic" in2="BackgroundImageFix" result="shape"/>
<feGaussianBlur stdDeviation="5" result="effect1_foregroundBlur_661_3148"/>
</filter>
<filter id="filter2_f_661_3148" x="81" y="16" width="42" height="42" filterUnits="userSpaceOnUse" color-interpolation-filters="sRGB">
<feFlood flood-opacity="0" result="BackgroundImageFix"/>
<feBlend mode="normal" in="SourceGraphic" in2="BackgroundImageFix" result="shape"/>
<feGaussianBlur stdDeviation="5" result="effect1_foregroundBlur_661_3148"/>
</filter>
<filter id="filter3_f_661_3148" x="129" y="16" width="42" height="42" filterUnits="userSpaceOnUse" color-interpolation-filters="sRGB">
<feFlood flood-opacity="0" result="BackgroundImageFix"/>
<feBlend mode="normal" in="SourceGraphic" in2="BackgroundImageFix" result="shape"/>
<feGaussianBlur stdDeviation="5" result="effect1_foregroundBlur_661_3148"/>
</filter>
<filter id="filter4_f_661_3148" x="212.041" y="124.063" width="44.3843" height="45.7817" filterUnits="userSpaceOnUse" color-interpolation-filters="sRGB">
<feFlood flood-opacity="0" result="BackgroundImageFix"/>
<feBlend mode="normal" in="SourceGraphic" in2="BackgroundImageFix" result="shape"/>
<feGaussianBlur stdDeviation="2" result="effect1_foregroundBlur_661_3148"/>
</filter>
<linearGradient id="paint0_linear_661_3148" x1="218.5" y1="0" x2="218.5" y2="195" gradientUnits="userSpaceOnUse">
<stop offset="0.608413" stop-color="#F4F9FB"/>
<stop offset="1" stop-color="#F4F9FB" stop-opacity="0"/>
</linearGradient>
<linearGradient id="paint1_linear_661_3148" x1="232" y1="130.5" x2="233" y2="166" gradientUnits="userSpaceOnUse">
<stop stop-color="#010B0E"/>
<stop offset="1" stop-color="#009FC1" stop-opacity="0"/>
</linearGradient>
<linearGradient id="paint2_linear_661_3148" x1="245.633" y1="112.427" x2="260.912" y2="169.448" gradientUnits="userSpaceOnUse">
<stop stop-color="#14C8EF"/>
<stop offset="1" stop-color="#009FC1"/>
</linearGradient>
<clipPath id="clip0_661_3148">
<rect width="358" height="190" fill="white"/>
</clipPath>
</defs>
</svg>
