<svg width="358" height="190" viewBox="0 0 358 190" fill="none" xmlns="http://www.w3.org/2000/svg">
<g clip-path="url(#clip0_659_2683)">
<rect width="358" height="190" fill="white"/>
<rect x="17" y="38" width="324" height="115" rx="5" stroke="#56D693" stroke-width="2"/>
<rect x="331" y="83" width="20" height="24" rx="3.77984" fill="#56D693"/>
<circle cx="339" cy="90.9998" r="1.33333" fill="white"/>
<circle cx="339" cy="94.9998" r="1.33333" fill="white"/>
<circle cx="339" cy="98.9994" r="1.33333" fill="white"/>
<circle cx="343" cy="90.9998" r="1.33333" fill="white"/>
<circle cx="343" cy="94.9998" r="1.33333" fill="white"/>
<circle cx="343" cy="98.9994" r="1.33333" fill="white"/>
<rect opacity="0.5" x="16" y="16" width="129" height="8" rx="4" fill="#688FA1"/>
<rect opacity="0.6" x="25" y="83" width="59" height="6" rx="3" fill="#C6D8DF"/>
<rect opacity="0.6" x="89" y="83" width="31" height="6" rx="3" fill="#C6D8DF"/>
<rect x="24" y="45" width="310" height="26" rx="4" fill="#E6ECEC"/>
<rect x="295" y="54" width="10" height="1" fill="#333333"/>
<rect x="297" y="56" width="6" height="1" fill="#333333"/>
<rect x="295" y="58" width="10" height="1" fill="#333333"/>
<rect x="297" y="60" width="6" height="1" fill="#333333"/>
<path d="M260.238 58.4707C260.558 58.7903 260.991 58.97 261.443 58.9703C261.593 58.9682 261.741 58.9492 261.886 58.9136C262.174 58.8338 262.436 58.6812 262.648 58.4707L263.052 58.0674L264.251 56.864C264.476 56.6233 264.626 56.3224 264.683 55.9979C264.74 55.6735 264.702 55.3394 264.573 55.0362C264.444 54.733 264.23 54.4737 263.957 54.2899C263.683 54.106 263.363 54.0054 263.033 54.0003C262.592 53.9924 262.164 54.1561 261.841 54.4569L260.642 55.6607M261.039 60.0774L259.834 61.2807C259.592 61.495 259.293 61.6357 258.973 61.6865C258.653 61.7372 258.325 61.6958 258.028 61.5671C257.731 61.4385 257.476 61.2279 257.294 60.9599C257.113 60.692 257.011 60.3777 257.001 60.054C256.988 59.6202 257.142 59.1979 257.43 58.8736L259.039 57.2669C259.251 57.0568 259.513 56.9046 259.8 56.8249C260.089 56.7474 260.394 56.7476 260.683 56.8253C260.973 56.9029 261.236 57.0554 261.448 57.2674" stroke="#333333" stroke-linecap="round" stroke-linejoin="round"/>
<path d="M151.032 53.624H154.74C155.436 53.624 155.98 53.82 156.372 54.212C156.772 54.604 156.972 55.128 156.972 55.784C156.972 56.096 156.928 56.364 156.84 56.588C156.752 56.804 156.64 56.984 156.504 57.128C156.368 57.264 156.212 57.368 156.036 57.44C155.86 57.504 155.688 57.544 155.52 57.56V57.632C155.688 57.64 155.872 57.68 156.072 57.752C156.28 57.824 156.472 57.94 156.648 58.1C156.824 58.252 156.972 58.452 157.092 58.7C157.212 58.94 157.272 59.236 157.272 59.588C157.272 59.924 157.216 60.24 157.104 60.536C157 60.832 156.852 61.088 156.66 61.304C156.468 61.52 156.24 61.692 155.976 61.82C155.712 61.94 155.424 62 155.112 62H151.032V53.624ZM152.388 60.836H154.716C155.068 60.836 155.344 60.744 155.544 60.56C155.744 60.376 155.844 60.112 155.844 59.768V59.36C155.844 59.016 155.744 58.752 155.544 58.568C155.344 58.384 155.068 58.292 154.716 58.292H152.388V60.836ZM152.388 57.164H154.488C154.824 57.164 155.084 57.08 155.268 56.912C155.452 56.736 155.544 56.488 155.544 56.168V55.784C155.544 55.464 155.452 55.22 155.268 55.052C155.084 54.876 154.824 54.788 154.488 54.788H152.388V57.164Z" fill="#333333"/>
<path d="M170.072 62L170.228 61.232H171.224L172.592 54.392H171.596L171.752 53.624H174.668L174.512 54.392H173.516L172.148 61.232H173.144L172.988 62H170.072Z" fill="#333333"/>
<path d="M193.112 59L192.664 57.576H190.68L190.24 59H189.168L191.04 53.416H192.352L194.208 59H193.112ZM191.688 54.376H191.648L190.936 56.672H192.408L191.688 54.376Z" fill="#333333"/>
<rect x="187" y="61" width="10" height="1" fill="#333333"/>
<path d="M222.137 53.7178V57.5788C222.137 58.0708 222.044 58.4398 221.858 58.6858C221.666 58.9318 221.345 59.0548 220.895 59.0548C220.445 59.0548 220.127 58.9318 219.941 58.6858C219.749 58.4398 219.653 58.0708 219.653 57.5788V53.7178H218.483V57.4258C218.483 57.8878 218.528 58.2868 218.618 58.6228C218.702 58.9588 218.84 59.2378 219.032 59.4598C219.224 59.6818 219.476 59.8468 219.788 59.9548C220.094 60.0568 220.466 60.1078 220.904 60.1078C221.348 60.1078 221.723 60.0568 222.029 59.9548C222.329 59.8468 222.575 59.6818 222.767 59.4598C222.959 59.2378 223.097 58.9588 223.181 58.6228C223.265 58.2868 223.307 57.8878 223.307 57.4258V53.7178H222.137Z" fill="#333333"/>
<rect x="218" y="61" width="6" height="1" fill="#333333"/>
<path d="M240.468 62.664C239.788 62.664 239.208 62.536 238.728 62.28C238.248 62.016 237.84 61.656 237.504 61.2L238.248 60.576C238.544 60.968 238.872 61.268 239.232 61.476C239.592 61.676 240.016 61.776 240.504 61.776C241.104 61.776 241.56 61.632 241.872 61.344C242.192 61.056 242.352 60.672 242.352 60.192C242.352 59.792 242.232 59.484 241.992 59.268C241.752 59.052 241.356 58.88 240.804 58.752L240.12 58.596C239.352 58.42 238.764 58.156 238.356 57.804C237.956 57.444 237.756 56.94 237.756 56.292C237.756 55.924 237.824 55.596 237.96 55.308C238.096 55.02 238.284 54.78 238.524 54.588C238.772 54.396 239.064 54.252 239.4 54.156C239.744 54.052 240.12 54 240.528 54C241.16 54 241.7 54.116 242.148 54.348C242.604 54.58 242.988 54.92 243.3 55.368L242.544 55.92C242.312 55.6 242.032 55.348 241.704 55.164C241.376 54.98 240.968 54.888 240.48 54.888C239.944 54.888 239.52 55.004 239.208 55.236C238.904 55.46 238.752 55.8 238.752 56.256C238.752 56.656 238.88 56.96 239.136 57.168C239.4 57.368 239.796 57.528 240.324 57.648L241.008 57.804C241.832 57.988 242.428 58.268 242.796 58.644C243.164 59.02 243.348 59.52 243.348 60.144C243.348 60.528 243.28 60.876 243.144 61.188C243.016 61.5 242.828 61.764 242.58 61.98C242.332 62.196 242.028 62.364 241.668 62.484C241.316 62.604 240.916 62.664 240.468 62.664Z" fill="#333333"/>
<rect x="237" y="58.52" width="7" height="1" fill="#333333"/>
<path opacity="0.5" d="M205 57L207 59L209 57" stroke="black" stroke-linecap="round" stroke-linejoin="round"/>
<path opacity="0.5" d="M130 57L132 59L134 57" stroke="black" stroke-linecap="round" stroke-linejoin="round"/>
<path opacity="0.5" d="M85 57L87 59L89 57" stroke="black" stroke-linecap="round" stroke-linejoin="round"/>
<path d="M317.25 60.5L314.75 58L317.25 55.5" stroke="#333333" stroke-linecap="round" stroke-linejoin="round"/>
<path d="M320.622 60.5L323.122 58L320.622 55.5" stroke="#333333" stroke-linecap="round" stroke-linejoin="round"/>
<rect x="281" y="53" width="5" height="1" fill="#333333"/>
<path d="M279.499 54.5H279.083V52.3991H278.124V52.0055L279.499 52V54.5Z" fill="#333333"/>
<rect x="281" y="57" width="5" height="1" fill="#333333"/>
<path d="M279.763 58.0843V58.5L278.011 58.4945V58.0621L279.319 56.9701V56.4157H278.421H278.251H278V56H279.763V57.2528L278.671 58.0843H279.763Z" fill="#333333"/>
<rect x="281" y="61" width="5" height="1" fill="#333333"/>
<path d="M279.314 61.4135H278.455V61.0809L279.092 60.4157H278V60L279.752 60.0055V60.4379L279.12 61.0809H279.763V62.5H278V62.0843H278.251H278.421H279.314V61.4135Z" fill="#333333"/>
<rect opacity="0.5" x="37" y="56" width="42" height="4" rx="2" fill="#688FA1"/>
<rect opacity="0.5" x="102" y="56" width="23" height="4" rx="2" fill="#688FA1"/>
<g opacity="0.1" filter="url(#filter0_f_659_2683)">
<rect x="74" y="123" width="208" height="54" rx="8" fill="#04B6DC"/>
</g>
<rect x="67" y="119" width="222.157" height="58.2578" rx="8" fill="white"/>
<path d="M96.5101 152.217H89.5332L88.2162 155.889C88.0663 156.306 87.6702 156.585 87.2262 156.585C86.49 156.585 85.9817 155.848 86.2431 155.16L91.7196 140.746C91.9251 140.205 92.4434 139.848 93.022 139.848C93.6002 139.848 94.1184 140.205 94.3241 140.745L99.8125 155.165C100.074 155.851 99.5671 156.585 98.8335 156.585C98.3931 156.585 97.9997 156.31 97.849 155.896L96.5101 152.217ZM90.1966 150.401H95.8582L93.0217 142.572L90.1966 150.401Z" fill="#B9554A"/>
<path d="M109.748 156.585C109.626 156.34 109.527 155.903 109.451 155.275C108.467 156.302 107.293 156.815 105.928 156.815C104.708 156.815 103.705 156.47 102.92 155.78C102.142 155.083 101.753 154.202 101.753 153.136C101.753 151.841 102.241 150.837 103.217 150.125C104.201 149.404 105.581 149.044 107.358 149.044H109.417V148.067C109.417 147.324 109.195 146.733 108.753 146.297C108.311 145.852 107.659 145.63 106.797 145.63C106.042 145.63 105.41 145.821 104.899 146.205C104.73 146.331 104.589 146.467 104.476 146.611C104.114 147.073 103.656 147.596 103.069 147.596C102.481 147.596 101.99 147.103 102.215 146.56C102.322 146.303 102.469 146.051 102.657 145.802C103.099 145.22 103.694 144.76 104.441 144.423C105.196 144.086 106.023 143.917 106.923 143.917C108.349 143.917 109.466 144.277 110.274 144.998C111.083 145.71 111.502 146.695 111.532 147.952V153.677C111.532 154.819 111.677 155.727 111.967 156.401V156.585H109.748ZM106.237 154.964C106.9 154.964 107.529 154.792 108.124 154.447C108.719 154.102 109.15 153.654 109.417 153.102V150.55H107.758C105.166 150.55 103.869 151.313 103.869 152.838C103.869 153.504 104.09 154.025 104.533 154.401C104.975 154.776 105.543 154.964 106.237 154.964Z" fill="#B9554A"/>
<path d="M96.5101 152.217H89.5332L88.2162 155.889C88.0663 156.306 87.6702 156.585 87.2262 156.585C86.49 156.585 85.9817 155.848 86.2431 155.16L91.7196 140.746C91.9251 140.205 92.4434 139.848 93.022 139.848C93.6002 139.848 94.1184 140.205 94.3241 140.745L99.8125 155.165C100.074 155.851 99.5671 156.585 98.8335 156.585C98.3931 156.585 97.9997 156.31 97.849 155.896L96.5101 152.217ZM90.1966 150.401H95.8582L93.0217 142.572L90.1966 150.401Z" stroke="#B9554A"/>
<path d="M109.748 156.585C109.626 156.34 109.527 155.903 109.451 155.275C108.467 156.302 107.293 156.815 105.928 156.815C104.708 156.815 103.705 156.47 102.92 155.78C102.142 155.083 101.753 154.202 101.753 153.136C101.753 151.841 102.241 150.837 103.217 150.125C104.201 149.404 105.581 149.044 107.358 149.044H109.417V148.067C109.417 147.324 109.195 146.733 108.753 146.297C108.311 145.852 107.659 145.63 106.797 145.63C106.042 145.63 105.41 145.821 104.899 146.205C104.73 146.331 104.589 146.467 104.476 146.611C104.114 147.073 103.656 147.596 103.069 147.596C102.481 147.596 101.99 147.103 102.215 146.56C102.322 146.303 102.469 146.051 102.657 145.802C103.099 145.22 103.694 144.76 104.441 144.423C105.196 144.086 106.023 143.917 106.923 143.917C108.349 143.917 109.466 144.277 110.274 144.998C111.083 145.71 111.502 146.695 111.532 147.952V153.677C111.532 154.819 111.677 155.727 111.967 156.401V156.585H109.748ZM106.237 154.964C106.9 154.964 107.529 154.792 108.124 154.447C108.719 154.102 109.15 153.654 109.417 153.102V150.55H107.758C105.166 150.55 103.869 151.313 103.869 152.838C103.869 153.504 104.09 154.025 104.533 154.401C104.975 154.776 105.543 154.964 106.237 154.964Z" stroke="#B9554A"/>
<rect x="153.315" y="143.104" width="20.0194" height="19.0661" rx="1.90661" fill="white" stroke="#F5A623" stroke-width="1.5"/>
<rect x="136.155" y="136.43" width="20.9727" height="18.1128" rx="1.90661" fill="white" stroke="#F5A623" stroke-width="1.5"/>
<path d="M136.632 153.113L141.678 148.067C142.05 147.695 142.653 147.695 143.026 148.067L145.491 150.532C145.863 150.905 146.467 150.905 146.839 150.532L150.734 146.637C151.106 146.265 151.71 146.265 152.082 146.637L157.128 151.683" stroke="#F5A623" stroke-width="1.5"/>
<circle cx="143.782" cy="141.197" r="1.90661" fill="#F5A623"/>
<path d="M153.792 158.356H173.334" stroke="#F5A623" stroke-width="1.5"/>
<path d="M166.661 151.207L160.941 154.543L160.941 147.87L166.661 151.207Z" fill="#F5A623"/>
<g opacity="0.7">
<path d="M217.144 151.883V143.069M205.026 153.535V145.823M205.026 145.823V141.417L217.144 138.663V143.069M205.026 145.823L217.144 143.069" stroke="#009FC1" stroke-width="1.55354"/>
<circle cx="201.721" cy="153.534" r="3.30501" stroke="#009FC1" stroke-width="1.55354"/>
<circle cx="213.839" cy="151.33" r="3.30501" stroke="#009FC1" stroke-width="1.55354"/>
</g>
<path d="M250.837 139.156C250.837 138.556 251.323 138.069 251.923 138.069H262.422C262.678 138.069 262.926 138.16 263.122 138.325L263.615 137.741L263.122 138.325L267.53 142.042C267.774 142.248 267.916 142.552 267.916 142.872V156.856C267.916 157.456 267.429 157.943 266.829 157.943H251.923C251.323 157.943 250.837 157.456 250.837 156.856V139.156Z" stroke="#688FA1" stroke-width="1.55354"/>
<line x1="256.427" y1="148.627" x2="262.326" y2="148.627" stroke="#688FA1" stroke-width="1.55354" stroke-linecap="round" stroke-linejoin="round"/>
<line x1="256.427" y1="152.354" x2="262.326" y2="152.354" stroke="#688FA1" stroke-width="1.55354" stroke-linecap="round" stroke-linejoin="round"/>
<path d="M261.394 142.883C261.394 143.312 261.742 143.659 262.171 143.659H266.829C267.159 143.659 267.453 143.451 267.562 143.14C267.671 142.829 267.572 142.482 267.314 142.276L262.656 138.55C262.423 138.363 262.104 138.327 261.834 138.456C261.565 138.585 261.394 138.858 261.394 139.156V142.883Z" stroke="#688FA1" stroke-width="1.55354" stroke-linecap="round" stroke-linejoin="round"/>
<g filter="url(#filter1_f_659_2683)">
<rect x="17" y="162" width="15" height="15" rx="7.5" fill="#DEE3E9" fill-opacity="0.6"/>
</g>
<g filter="url(#filter2_f_659_2683)">
<rect x="308.5" y="161" width="15" height="15" rx="7.5" fill="#DEE3E9" fill-opacity="0.6"/>
</g>
<g filter="url(#filter3_f_659_2683)">
<rect x="326.5" y="161" width="15" height="15" rx="7.5" fill="#DEE3E9" fill-opacity="0.6"/>
</g>
<rect x="17" y="158" width="14.9789" height="15.1194" rx="3.14987" fill="white"/>
<rect x="16.37" y="157.37" width="16.2389" height="16.3793" rx="3.77984" stroke="#31C178" stroke-opacity="0.3" stroke-width="1.25995"/>
<rect x="21.4097" y="164.93" width="6.29973" height="1.25995" rx="0.629973" fill="#9DB5C4"/>
<rect x="25.1895" y="162.41" width="6.29973" height="1.25995" rx="0.629973" transform="rotate(90 25.1895 162.41)" fill="#9DB5C4"/>
<rect x="308" y="158" width="15.1194" height="15.1194" rx="3.14987" fill="white"/>
<path d="M318.395 167.835V164.142C318.395 163.766 318.246 163.406 317.98 163.14C317.714 162.874 317.353 162.725 316.978 162.725H313.285C313.381 162.449 313.561 162.21 313.8 162.041C314.038 161.872 314.323 161.78 314.615 161.78H317.923C318.298 161.78 318.659 161.929 318.925 162.195C319.191 162.461 319.34 162.821 319.34 163.197V166.505C319.339 166.797 319.248 167.082 319.079 167.32C318.91 167.558 318.671 167.738 318.395 167.835ZM317.923 164.615V167.922C317.923 168.298 317.773 168.658 317.507 168.924C317.242 169.19 316.881 169.339 316.505 169.339H313.198C312.822 169.339 312.461 169.19 312.195 168.924C311.93 168.658 311.78 168.298 311.78 167.922V164.615C311.78 164.239 311.93 163.878 312.195 163.612C312.461 163.347 312.822 163.197 313.198 163.197H316.505C316.881 163.197 317.242 163.347 317.507 163.612C317.773 163.878 317.923 164.239 317.923 164.615ZM312.725 164.615V167.922C312.725 168.047 312.775 168.168 312.864 168.256C312.952 168.345 313.072 168.395 313.198 168.395H316.505C316.63 168.395 316.751 168.345 316.839 168.256C316.928 168.168 316.978 168.047 316.978 167.922V164.615C316.978 164.489 316.928 164.369 316.839 164.281C316.751 164.192 316.63 164.142 316.505 164.142H313.198C313.072 164.142 312.952 164.192 312.864 164.281C312.775 164.369 312.725 164.489 312.725 164.615Z" fill="#9DB5C4"/>
<rect x="326.27" y="158" width="15.1194" height="15.1194" rx="3.14987" fill="white"/>
<path fill-rule="evenodd" clip-rule="evenodd" d="M332.884 162.725H334.774C335.035 162.725 335.247 162.513 335.247 162.252C335.247 161.991 335.035 161.78 334.774 161.78H332.884C332.623 161.78 332.412 161.991 332.412 162.252C332.412 162.513 332.623 162.725 332.884 162.725ZM330.994 164.142H330.522C330.265 164.142 330.049 163.93 330.049 163.67C330.049 163.409 330.265 163.197 330.522 163.197H331.467H336.192H337.137C337.393 163.197 337.609 163.409 337.609 163.67C337.609 163.93 337.393 164.142 337.137 164.142H336.664V168.867C336.664 169.128 336.455 169.339 336.192 169.339H331.467C331.206 169.339 330.994 169.128 330.994 168.867V164.142ZM331.939 168.395C331.939 168.395 331.962 166.28 331.939 165.049C331.93 164.58 331.939 164.142 331.939 164.142H335.719C335.719 164.142 335.764 168.395 335.719 168.395H333.988H331.939ZM334.774 165.087C335.035 165.087 335.247 165.297 335.247 165.559V166.977C335.247 167.238 335.037 167.449 334.774 167.449C334.513 167.449 334.302 167.24 334.302 166.977V165.559C334.302 165.298 334.511 165.087 334.774 165.087ZM333.357 165.559C333.357 165.297 333.145 165.087 332.884 165.087C332.621 165.087 332.412 165.298 332.412 165.559V166.977C332.412 167.24 332.623 167.449 332.884 167.449C333.147 167.449 333.357 167.238 333.357 166.977V165.559Z" fill="#F25A3E"/>
</g>
<defs>
<filter id="filter0_f_659_2683" x="55.9" y="104.9" width="244.2" height="90.2" filterUnits="userSpaceOnUse" color-interpolation-filters="sRGB">
<feFlood flood-opacity="0" result="BackgroundImageFix"/>
<feBlend mode="normal" in="SourceGraphic" in2="BackgroundImageFix" result="shape"/>
<feGaussianBlur stdDeviation="9.05" result="effect1_foregroundBlur_659_2683"/>
</filter>
<filter id="filter1_f_659_2683" x="7" y="152" width="35" height="35" filterUnits="userSpaceOnUse" color-interpolation-filters="sRGB">
<feFlood flood-opacity="0" result="BackgroundImageFix"/>
<feBlend mode="normal" in="SourceGraphic" in2="BackgroundImageFix" result="shape"/>
<feGaussianBlur stdDeviation="5" result="effect1_foregroundBlur_659_2683"/>
</filter>
<filter id="filter2_f_659_2683" x="298.5" y="151" width="35" height="35" filterUnits="userSpaceOnUse" color-interpolation-filters="sRGB">
<feFlood flood-opacity="0" result="BackgroundImageFix"/>
<feBlend mode="normal" in="SourceGraphic" in2="BackgroundImageFix" result="shape"/>
<feGaussianBlur stdDeviation="5" result="effect1_foregroundBlur_659_2683"/>
</filter>
<filter id="filter3_f_659_2683" x="316.5" y="151" width="35" height="35" filterUnits="userSpaceOnUse" color-interpolation-filters="sRGB">
<feFlood flood-opacity="0" result="BackgroundImageFix"/>
<feBlend mode="normal" in="SourceGraphic" in2="BackgroundImageFix" result="shape"/>
<feGaussianBlur stdDeviation="5" result="effect1_foregroundBlur_659_2683"/>
</filter>
<clipPath id="clip0_659_2683">
<rect width="358" height="190" fill="white"/>
</clipPath>
</defs>
</svg>
