<svg width="358" height="190" viewBox="0 0 358 190" fill="none" xmlns="http://www.w3.org/2000/svg">
<g clip-path="url(#clip0_659_2336)">
<rect width="358" height="190" fill="white"/>
<path opacity="0.7" d="M0 0H235V218H0V0Z" fill="url(#paint0_linear_659_2336)"/>
<rect opacity="0.5" x="29" y="106" width="99" height="4" rx="2" fill="#688FA1"/>
<rect opacity="0.5" x="29" y="114" width="66" height="4" rx="2" fill="#688FA1"/>
<rect opacity="0.2" x="29" y="126" width="138" height="4" rx="2" fill="#688FA1"/>
<rect opacity="0.2" x="29" y="134" width="110" height="4" rx="2" fill="#688FA1"/>
<rect x="29.2899" y="152.29" width="169.42" height="26.4203" rx="2.02899" stroke="#92EABD" stroke-width="0.57971" stroke-dasharray="6.96 6.96"/>
<rect x="29" y="20" width="170" height="75" rx="6" fill="#F2F6FC"/>
<path opacity="0.7" d="M227 0H358V218H227V0Z" fill="url(#paint1_linear_659_2336)"/>
<g filter="url(#filter0_f_659_2336)">
<rect x="14.5552" y="120.641" width="45" height="48" rx="8.9928" transform="rotate(-15 14.5552 120.641)" fill="#DEE3E9"/>
</g>
<rect x="11.4937" y="114.527" width="49" height="49" rx="9.27027" transform="rotate(-15 11.4937 114.527)" fill="white"/>
<rect x="28.061" y="124.092" width="9.14414" height="9.14414" rx="1.82883" transform="rotate(-15 28.061 124.092)" stroke="#04B29C" stroke-width="1.82883" stroke-miterlimit="10" stroke-linecap="round"/>
<rect x="31.374" y="136.458" width="9.14414" height="9.14414" rx="1.82883" transform="rotate(-15 31.374 136.458)" stroke="#04B29C" stroke-width="1.82883" stroke-miterlimit="10" stroke-linecap="round"/>
<rect x="40.4263" y="120.779" width="9.14414" height="9.14414" rx="1.82883" transform="rotate(-15 40.4263 120.779)" stroke="#04B29C" stroke-width="1.82883" stroke-miterlimit="10" stroke-linecap="round"/>
<rect x="43.7397" y="133.144" width="9.14414" height="9.14414" rx="1.82883" transform="rotate(-15 43.7397 133.144)" stroke="#04B29C" stroke-width="1.82883" stroke-miterlimit="10" stroke-linecap="round"/>
<g filter="url(#filter1_f_659_2336)">
<rect x="86.8936" y="40.9146" width="53.2127" height="40.234" rx="8.49275" fill="#DEE3E9"/>
</g>
<rect x="83" y="35.7231" width="61" height="42.8298" rx="8.49275" fill="white"/>
<g filter="url(#filter2_f_659_2336)">
<path fill-rule="evenodd" clip-rule="evenodd" d="M88.9405 37.478C85.9355 37.478 83.4995 39.914 83.4995 42.919H83.4998L108.007 62.6585C111.117 65.1635 115.552 65.1635 118.661 62.6585L143.168 42.919H143.168C143.168 42.9189 143.168 42.9189 143.168 42.9188L143.169 42.9188H143.168C143.168 39.9139 140.732 37.478 137.728 37.478H88.9405Z" fill="#C1841F" fill-opacity="0.3"/>
</g>
<path fill-rule="evenodd" clip-rule="evenodd" d="M90.7873 35.7231C86.4865 35.7231 83.0001 39.2096 83.0001 43.5104H144C144 39.2096 140.514 35.7231 136.213 35.7231H90.7873ZM83 43.5107L108.354 62.0169C111.324 64.1847 115.351 64.1951 118.333 62.0428L144 43.5107H83Z" fill="#F5A623"/>
<rect opacity="0.5" x="239" y="17" width="43" height="4" rx="2" fill="#D6E3E3"/>
<rect x="304" y="12" width="42" height="14" rx="2.31925" fill="white"/>
<rect opacity="0.5" x="309" y="17" width="14" height="4" rx="2" fill="#D6E3E3"/>
<rect opacity="0.5" x="239" y="37" width="36" height="4" rx="2" fill="#D6E3E3"/>
<rect x="304" y="32" width="42" height="14" rx="2.31925" fill="white"/>
<rect opacity="0.5" x="309" y="37" width="14" height="4" rx="2" fill="#D6E3E3"/>
<rect opacity="0.5" x="239" y="57" width="49" height="4" rx="2" fill="#D6E3E3"/>
<rect x="304" y="52" width="42" height="14" rx="2.31925" fill="white"/>
<rect opacity="0.5" x="309" y="57" width="14" height="4" rx="2" fill="#D6E3E3"/>
<rect opacity="0.5" x="239" y="77" width="58" height="4" rx="2" fill="#D6E3E3"/>
<rect x="314" y="72" width="32" height="14" rx="2.31925" fill="white"/>
<rect opacity="0.5" x="319" y="77" width="14" height="4" rx="2" fill="#D6E3E3"/>
<rect opacity="0.5" x="239" y="97" width="32" height="4" rx="2" fill="#D6E3E3"/>
<rect x="314" y="92" width="32" height="14" rx="2.31925" fill="white"/>
<rect x="278" y="92" width="32" height="14" rx="2.31925" fill="white"/>
<rect opacity="0.5" x="319" y="97" width="14" height="4" rx="2" fill="#D6E3E3"/>
<rect opacity="0.5" x="283" y="97" width="14" height="4" rx="2" fill="#D6E3E3"/>
<path d="M134.915 72.9667L124.242 65.3101" stroke="#DCE6EB" stroke-width="1.29787" stroke-linecap="round"/>
<path d="M90.7866 72.9667L101.459 65.3101" stroke="#DCE6EB" stroke-width="1.29787" stroke-linecap="round"/>
</g>
<defs>
<filter id="filter0_f_659_2336" x="8.32848" y="102.767" width="68.3435" height="70.4651" filterUnits="userSpaceOnUse" color-interpolation-filters="sRGB">
<feFlood flood-opacity="0" result="BackgroundImageFix"/>
<feBlend mode="normal" in="SourceGraphic" in2="BackgroundImageFix" result="shape"/>
<feGaussianBlur stdDeviation="4.12287" result="effect1_foregroundBlur_659_2336"/>
</filter>
<filter id="filter1_f_659_2336" x="79.1063" y="33.1273" width="68.7874" height="55.8083" filterUnits="userSpaceOnUse" color-interpolation-filters="sRGB">
<feFlood flood-opacity="0" result="BackgroundImageFix"/>
<feBlend mode="normal" in="SourceGraphic" in2="BackgroundImageFix" result="shape"/>
<feGaussianBlur stdDeviation="3.89362" result="effect1_foregroundBlur_659_2336"/>
</filter>
<filter id="filter2_f_659_2336" x="78.308" y="32.2865" width="70.0519" height="37.4421" filterUnits="userSpaceOnUse" color-interpolation-filters="sRGB">
<feFlood flood-opacity="0" result="BackgroundImageFix"/>
<feBlend mode="normal" in="SourceGraphic" in2="BackgroundImageFix" result="shape"/>
<feGaussianBlur stdDeviation="2.59574" result="effect1_foregroundBlur_659_2336"/>
</filter>
<linearGradient id="paint0_linear_659_2336" x1="117.5" y1="0" x2="117.5" y2="218" gradientUnits="userSpaceOnUse">
<stop stop-color="#F8FBFF"/>
<stop offset="1" stop-color="#F4F9FB" stop-opacity="0"/>
</linearGradient>
<linearGradient id="paint1_linear_659_2336" x1="292.5" y1="0" x2="292.5" y2="218" gradientUnits="userSpaceOnUse">
<stop offset="0.608413" stop-color="#F2F6FC"/>
<stop offset="1" stop-color="#F4F9FB" stop-opacity="0"/>
</linearGradient>
<clipPath id="clip0_659_2336">
<rect width="358" height="190" fill="white"/>
</clipPath>
</defs>
</svg>
