<svg width="358" height="190" viewBox="0 0 358 190" fill="none" xmlns="http://www.w3.org/2000/svg">
<g clip-path="url(#clip0_661_3116)">
<rect width="358" height="190" fill="white"/>
<rect x="12" y="9" width="60" height="20" rx="6" fill="#8AE8FB"/>
<rect opacity="0.7" x="12" y="39" width="210" height="111" rx="8" fill="#F4F9FB"/>
<path d="M240 47C240 42.5817 243.582 39 248 39L360 39V69H248C243.582 69 240 65.4183 240 61V47Z" fill="#E6EEF1"/>
<path opacity="0.7" d="M240 88C240 81.3726 245.373 76 252 76L386 76C392.627 76 398 81.3726 398 88V178C398 184.627 392.627 190 386 190H252C245.373 190 240 184.627 240 178V88Z" fill="#F4F9FB"/>
<rect opacity="0.5" x="20" y="17" width="44" height="4" rx="2" fill="white"/>
<rect x="240" y="9" width="74" height="20" rx="6" fill="#FADE9C"/>
<rect opacity="0.5" x="248" y="17" width="58" height="4" rx="2" fill="white"/>
<g filter="url(#filter0_f_661_3116)">
<rect x="51" y="64" width="200" height="119" fill="#202023" fill-opacity="0.08"/>
</g>
<rect x="42" y="54" width="209" height="129" rx="8" fill="white"/>
<g clip-path="url(#clip1_661_3116)">
<path fill-rule="evenodd" clip-rule="evenodd" d="M65.1082 97.5981C65.9982 98.2211 65.9513 99.5542 65.0197 100.113L61.1577 102.43C60.4451 102.858 59.555 102.858 58.8424 102.43L54.9803 100.113C54.0487 99.5542 54.0018 98.2211 54.8918 97.598L58.7098 94.9255C59.4845 94.3832 60.5156 94.3832 61.2903 94.9255L65.1082 97.5981ZM64.248 98.8269L60.4301 96.1544C60.1719 95.9736 59.8282 95.9736 59.5699 96.1544L55.752 98.8269L59.6142 101.144C59.8517 101.287 60.1484 101.287 60.3859 101.144L64.248 98.8269Z" fill="black"/>
<path fill-rule="evenodd" clip-rule="evenodd" d="M57 100C57.4142 100 57.75 100.336 57.75 100.75V103.591C57.75 103.825 57.8952 104.035 58.1143 104.117C59.3301 104.573 60.6699 104.573 61.8857 104.117C62.1048 104.035 62.25 103.825 62.25 103.591V100.75C62.25 100.336 62.5858 100 63 100C63.4142 100 63.75 100.336 63.75 100.75V103.591C63.75 104.45 63.217 105.22 62.4123 105.521C60.857 106.105 59.143 106.105 57.5877 105.521C56.783 105.22 56.25 104.45 56.25 103.591V100.75C56.25 100.336 56.5858 100 57 100Z" fill="black"/>
<path fill-rule="evenodd" clip-rule="evenodd" d="M65.25 97.9375C65.6642 97.9375 66 98.2733 66 98.6875V101.688C66 102.102 65.6642 102.438 65.25 102.438C64.8358 102.438 64.5 102.102 64.5 101.688V98.6875C64.5 98.2733 64.8358 97.9375 65.25 97.9375Z" fill="black"/>
</g>
<path fill-rule="evenodd" clip-rule="evenodd" d="M60 116.5C59.3773 116.5 58.875 117.004 58.875 117.627C58.875 118.228 59.3368 118.712 59.9205 118.749C59.9713 118.746 60.024 118.746 60.0763 118.749C60.6585 118.712 61.1217 118.228 61.125 117.626C61.1242 117.004 60.6191 116.5 60 116.5ZM57.375 117.627C57.375 116.179 58.545 115 60 115C61.4496 115 62.625 116.178 62.625 117.627V117.63L62.625 117.63C62.6191 119.045 61.5044 120.202 60.0928 120.25C60.0614 120.251 60.0301 120.25 59.9988 120.247L59.9968 120.247C59.9959 120.247 59.9957 120.247 59.9962 120.247C59.9652 120.25 59.9341 120.251 59.903 120.25C58.492 120.202 57.375 119.044 57.375 117.627Z" fill="black"/>
<path fill-rule="evenodd" clip-rule="evenodd" d="M58.0295 123.033C57.5529 123.351 57.375 123.707 57.375 124C57.375 124.293 57.5529 124.649 58.0295 124.967C58.501 125.281 59.1954 125.5 60 125.5C60.8046 125.5 61.499 125.281 61.9705 124.967C62.4471 124.649 62.625 124.293 62.625 124C62.625 123.707 62.4471 123.351 61.9705 123.033C61.499 122.719 60.8046 122.5 60 122.5C59.1954 122.5 58.501 122.719 58.0295 123.033ZM57.1975 121.785C57.9476 121.285 58.9406 121 60 121C61.0594 121 62.0524 121.285 62.8025 121.785C63.5474 122.282 64.125 123.05 64.125 124C64.125 124.95 63.5474 125.718 62.8025 126.215C62.0524 126.715 61.0594 127 60 127C58.9406 127 57.9476 126.715 57.1975 126.215C56.4526 125.718 55.875 124.95 55.875 124C55.875 123.05 56.4526 122.282 57.1975 121.785Z" fill="black"/>
<g clip-path="url(#clip2_661_3116)">
<path fill-rule="evenodd" clip-rule="evenodd" d="M57.375 140.5C57.262 140.5 57.1567 140.508 57.0585 140.522C57.0519 140.523 57.0453 140.524 57.0388 140.525C56.5274 140.586 56.1529 140.79 55.9067 141.065C55.6611 141.34 55.5 141.733 55.5 142.25V144.75C55.5 145.318 55.6946 145.739 55.9891 146.019C56.287 146.303 56.7473 146.5 57.375 146.5H62.625C63.2527 146.5 63.713 146.303 64.0109 146.019C64.3054 145.739 64.5 145.318 64.5 144.75V142.25C64.5 141.73 64.3363 141.334 64.0865 141.059C63.836 140.782 63.455 140.578 62.9362 140.52C62.9245 140.519 62.9128 140.518 62.9012 140.516C62.8326 140.505 62.7468 140.5 62.625 140.5H57.375ZM56.851 139.036C57.0225 139.012 57.1974 139 57.375 139H62.625C62.7711 139 62.9412 139.005 63.118 139.031C63.9468 139.127 64.6752 139.474 65.1981 140.051C65.7254 140.633 66 141.4 66 142.25V144.75C66 145.682 65.6696 146.511 65.0454 147.106C64.4245 147.697 63.5723 148 62.625 148H57.375C56.4277 148 55.5755 147.697 54.9546 147.106C54.3304 146.511 54 145.682 54 144.75V142.25C54 141.407 54.2694 140.645 54.789 140.065C55.3059 139.487 56.0277 139.137 56.851 139.036Z" fill="black"/>
<path fill-rule="evenodd" clip-rule="evenodd" d="M58.998 136.859C59.0216 136.841 59.0461 136.825 59.0716 136.811C60.0388 136.252 60.9943 135.953 61.9215 136.202C62.8459 136.449 63.5225 137.182 64.08 138.145L65.5143 140.483C65.7309 140.836 65.6203 141.298 65.2673 141.514C64.9142 141.731 64.4524 141.62 64.2358 141.267L62.7963 138.921C62.7928 138.916 62.7894 138.91 62.7861 138.904C62.3016 138.065 61.8882 137.746 61.5333 137.651C61.1836 137.557 60.6761 137.623 59.8588 138.088L56.3235 140.726C55.9915 140.974 55.5216 140.906 55.2739 140.574C55.0262 140.242 55.0945 139.772 55.4265 139.524L58.998 136.859Z" fill="black"/>
<path fill-rule="evenodd" clip-rule="evenodd" d="M61.5 143.5C61.5 142.257 62.5074 141.25 63.75 141.25H65.25C65.6642 141.25 66 141.586 66 142C66 142.414 65.6642 142.75 65.25 142.75H63.75C63.3358 142.75 63 143.086 63 143.5C63 143.914 63.3358 144.25 63.75 144.25H65.25C65.6642 144.25 66 144.586 66 145C66 145.414 65.6642 145.75 65.25 145.75H63.75C62.5074 145.75 61.5 144.743 61.5 143.5Z" fill="black"/>
</g>
<rect opacity="0.5" x="54" y="66" width="149" height="4" rx="2" fill="#688FA1"/>
<rect opacity="0.5" x="54" y="78" width="54" height="4" rx="2" fill="#688FA1"/>
<rect opacity="0.5" x="112" y="78" width="22" height="4" rx="2" fill="#688FA1"/>
<rect opacity="0.5" x="76" y="99" width="59" height="4" rx="2" fill="#D6E3E3"/>
<rect opacity="0.5" x="77" y="119" width="82" height="4" rx="2" fill="#D6E3E3"/>
<rect opacity="0.5" x="78" y="140" width="44" height="4" rx="2" fill="#D6E3E3"/>
<rect opacity="0.5" x="78" y="162" width="46" height="4" rx="2" fill="#D6E3E3"/>
<rect opacity="0.5" x="128" y="162" width="24" height="4" rx="2" fill="#D6E3E3"/>
<circle cx="60" cy="165" r="6" fill="url(#paint0_linear_661_3116)"/>
<g filter="url(#filter1_f_661_3116)">
<circle cx="211.347" cy="135.328" r="11.25" fill="#202023" fill-opacity="0.2"/>
</g>
<path fill-rule="evenodd" clip-rule="evenodd" d="M201.422 117.89C199.763 118.513 199.065 119.725 199.02 121.004C198.99 121.846 199.168 122.643 199.535 123.682C199.477 123.518 199.751 124.343 199.806 124.525C199.919 124.907 198.72 124.393 197.99 124.542C197.178 124.703 196.098 125.407 195.535 126.342C194.874 127.437 194.841 128.697 195.351 130.963C195.63 132.199 196.167 133.239 196.937 134.226C197.279 134.665 198.212 135.687 198.283 135.778L200.177 137.9C200.513 138.207 200.752 138.433 201.462 139.114C202.164 139.788 202.499 140.103 202.808 140.369C202.938 140.48 203.048 140.774 203.092 141.212C203.128 141.572 203.115 141.974 203.072 142.361C203.057 142.494 203.042 142.591 203.034 142.637C202.94 143.153 203.33 143.63 203.849 143.635C204.331 143.64 204.709 143.646 205.684 143.663C205.896 143.667 205.896 143.667 206.108 143.671C208.716 143.716 210.02 143.704 210.968 143.584C211.982 143.454 213.036 142.205 213.93 140.66C214.695 142.038 215.756 143.381 216.83 143.553C217.167 143.608 217.578 143.625 218.054 143.615C218.413 143.607 218.792 143.583 219.175 143.549C219.46 143.523 219.687 143.497 219.822 143.479C220.326 143.413 220.656 142.912 220.521 142.416C220.492 142.309 220.445 142.113 220.398 141.865C220.343 141.577 220.304 141.296 220.286 141.039C220.275 140.878 220.273 140.733 220.28 140.606C220.293 140.385 220.297 140.261 220.304 139.972C220.306 139.871 220.306 139.871 220.309 139.781C220.321 139.473 220.362 139.183 220.491 138.552C220.547 138.281 220.82 137.758 221.25 137.109C221.377 136.917 221.517 136.716 221.666 136.509C221.95 136.115 222.255 135.716 222.561 135.335C222.744 135.106 222.886 134.936 222.964 134.843C223.627 133.887 224.332 132.319 224.592 131.401C224.841 130.517 225.043 128.862 225.159 127.301C225.226 126.399 225.251 125.668 225.251 124.525C225.251 124.305 225.251 124.305 225.251 124.127C225.252 123.876 225.252 123.876 225.252 123.659C225.25 123.305 225.239 122.952 225.205 122.091C225.136 120.256 224.141 119.069 222.674 118.84C221.426 118.645 220.312 119.025 219.822 119.554C219.653 119.736 219.83 118.926 219.34 118.148C218.973 117.565 218.016 116.818 217.285 116.673C216.536 116.525 215.644 116.542 214.827 116.688C214.11 116.818 213.296 117.449 212.881 118.148C212.604 118.614 212.968 118.134 212.672 117.62C212.265 116.911 211.316 116.277 210.409 116.09C209.636 115.929 208.754 115.989 207.956 116.233C206.989 116.524 205.684 117.62 205.838 118.84C205.071 117.62 203.048 117.28 201.422 117.89Z" fill="black"/>
<path fill-rule="evenodd" clip-rule="evenodd" d="M205.394 122.113C205.457 122.307 205.111 121.216 205.004 120.905C204.893 120.583 204.79 120.316 204.694 120.105C204.409 119.479 202.899 119.14 202.003 119.476C201.049 119.835 200.715 120.416 200.691 121.065C200.671 121.642 200.809 122.26 201.111 123.113C201.031 122.888 201.433 123.995 201.505 124.236C201.582 124.498 201.699 124.766 201.894 125.149L201.996 125.35L201.996 125.35C202.329 126.003 202.385 126.114 202.42 126.23C202.428 126.254 202.434 126.278 202.442 126.307L202.442 126.307C202.45 126.339 202.46 126.377 202.474 126.427C202.547 126.675 202.583 126.824 202.596 126.962C202.67 127.771 201.77 128.277 201.144 127.697C201.051 127.611 200.981 127.523 200.846 127.339L200.839 127.33C200.699 127.137 200.607 127.01 200.528 126.903C200.412 126.748 200.327 126.653 200.251 126.586C200.202 126.543 200.148 126.505 200.068 126.457C200.001 126.417 199.924 126.374 199.703 126.252C199.546 126.165 198.698 126.124 198.315 126.202C197.941 126.276 197.27 126.713 196.963 127.223C196.582 127.854 196.56 128.711 196.982 130.587C197.2 131.554 197.624 132.375 198.251 133.178C198.428 133.406 198.852 133.883 199.171 134.242C199.369 134.465 199.527 134.643 199.561 134.687L201.349 136.697C201.641 136.956 201.884 137.187 202.628 137.901C203.291 138.538 203.616 138.842 203.889 139.078C204.419 139.529 204.673 140.209 204.756 141.042C204.779 141.266 204.684 141.469 204.611 141.626C204.522 141.818 204.466 141.939 204.694 141.943C204.945 141.947 205.342 141.958 205.663 141.966L205.663 141.966L205.666 141.966C205.875 141.972 206.052 141.977 206.136 141.978C208.647 142.022 209.924 142.01 210.759 141.904C211.015 141.872 211.887 140.838 212.486 139.802C213.157 138.653 214.795 138.59 215.469 139.891C215.91 140.74 216.772 141.83 217.093 141.881C217.314 141.918 217.633 141.931 218.017 141.923C218.334 141.916 218.852 141.943 218.852 141.943C218.852 141.943 218.639 141.489 218.616 141.158C218.6 140.929 218.596 140.713 218.608 140.506C218.62 140.309 218.624 140.202 218.63 139.932C218.631 139.879 218.632 139.852 218.632 139.825C218.633 139.798 218.634 139.771 218.636 139.716L218.636 139.714C218.652 139.302 218.705 138.923 218.852 138.207C218.965 137.658 219.314 136.988 219.859 136.167C219.999 135.955 220.151 135.737 220.312 135.513C220.614 135.092 220.937 134.672 221.26 134.269C221.454 134.027 221.605 133.844 221.642 133.808C222.141 133.082 222.77 131.683 222.981 130.936C223.188 130.202 223.382 128.618 223.489 127.174C223.553 126.317 223.576 125.627 223.576 124.525C223.576 124.302 223.576 124.302 223.577 124.124L223.577 124.121L223.577 124.12V124.12V124.119C223.578 123.872 223.578 123.871 223.577 123.669C223.575 123.339 223.565 123.002 223.532 122.157C223.493 121.114 223.074 120.615 222.418 120.513C221.806 120.417 221.108 120.708 220.838 121.138C220.769 121.248 220.701 121.387 220.636 121.55C220.544 121.784 220.483 121.989 220.389 122.352C220.35 122.506 220.322 122.607 220.286 122.694C220.294 122.754 220.299 122.799 220.284 122.836C220.237 122.947 219.994 122.975 219.013 123.088L219.013 123.088C218.624 122.539 218.624 122.539 218.647 122.434C218.491 120.972 218.216 119.514 217.927 119.056C217.79 118.839 217.205 118.382 216.963 118.334C216.434 118.23 215.745 118.242 215.119 118.354C214.869 118.399 214.315 118.769 214.156 119.037C214.04 119.232 213.929 119.719 213.845 120.422C213.808 120.73 213.691 121.967 213.721 121.666C213.688 121.993 213.661 122.201 213.619 122.381C213.604 122.447 213.604 122.447 213.524 122.614C213.432 122.753 213.373 122.841 213.291 122.892C213.148 122.981 212.935 122.958 212.349 122.893C212.046 122.694 211.853 121.146 211.753 120.345L211.753 120.345C211.727 120.134 211.707 119.974 211.694 119.906C211.571 119.291 211.411 118.796 211.224 118.469C211.07 118.201 210.534 117.843 210.072 117.747C209.584 117.646 208.981 117.687 208.435 117.854C208.01 117.982 207.651 118.37 207.446 118.907C207.337 119.194 207.268 119.681 207.239 120.348C207.226 120.637 207.222 120.857 207.217 121.385C207.212 121.835 207.208 122.029 207.195 122.227C207.277 122.416 207.277 122.416 206.347 123.074L206.347 123.074C205.561 122.693 205.561 122.693 205.556 122.551C205.507 122.447 205.462 122.323 205.394 122.113ZM217.317 136.9C216.855 136.9 216.48 136.521 216.48 136.054V128.249C216.48 127.781 216.855 127.402 217.317 127.402C217.779 127.402 218.154 127.781 218.154 128.249V136.054C218.154 136.521 217.779 136.9 217.317 136.9ZM211.982 136.085C211.984 136.552 212.361 136.93 212.823 136.927C213.285 136.925 213.658 136.545 213.656 136.077L213.62 128.241C213.618 127.773 213.241 127.396 212.779 127.398C212.317 127.4 211.944 127.781 211.946 128.248L211.982 136.085ZM208.36 127.469C208.822 127.466 209.199 127.843 209.202 128.31L209.248 136.041C209.251 136.508 208.879 136.889 208.417 136.892C207.955 136.895 207.578 136.518 207.575 136.051L207.528 128.32C207.525 127.853 207.897 127.472 208.36 127.469Z" fill="white"/>
</g>
<defs>
<filter id="filter0_f_661_3116" x="36" y="49" width="230" height="149" filterUnits="userSpaceOnUse" color-interpolation-filters="sRGB">
<feFlood flood-opacity="0" result="BackgroundImageFix"/>
<feBlend mode="normal" in="SourceGraphic" in2="BackgroundImageFix" result="shape"/>
<feGaussianBlur stdDeviation="7.5" result="effect1_foregroundBlur_661_3116"/>
</filter>
<filter id="filter1_f_661_3116" x="185.097" y="109.078" width="52.5" height="52.5" filterUnits="userSpaceOnUse" color-interpolation-filters="sRGB">
<feFlood flood-opacity="0" result="BackgroundImageFix"/>
<feBlend mode="normal" in="SourceGraphic" in2="BackgroundImageFix" result="shape"/>
<feGaussianBlur stdDeviation="7.5" result="effect1_foregroundBlur_661_3116"/>
</filter>
<linearGradient id="paint0_linear_661_3116" x1="54" y1="165" x2="66" y2="165" gradientUnits="userSpaceOnUse">
<stop stop-color="#B3C7D0"/>
<stop offset="1" stop-color="#CCE3ED"/>
</linearGradient>
<clipPath id="clip0_661_3116">
<rect width="358" height="190" fill="white"/>
</clipPath>
<clipPath id="clip1_661_3116">
<rect width="12" height="12" fill="white" transform="translate(54 94)"/>
</clipPath>
<clipPath id="clip2_661_3116">
<rect width="12" height="12" fill="white" transform="translate(54 136)"/>
</clipPath>
</defs>
</svg>
