<svg width="32" height="32" viewBox="0 0 32 32" fill="none" xmlns="http://www.w3.org/2000/svg">
<g clip-path="url(#clip0_471_1249)">
<path d="M16.0001 31.3601C18.5601 31.3601 20.7361 29.6321 21.3761 27.2001C21.6321 26.3041 20.8641 25.6001 19.9681 25.6001H11.9681C11.0721 25.6001 10.3681 26.3681 10.5601 27.2001C11.2641 29.6321 13.4401 31.3601 16.0001 31.3601Z" fill="#A244FA"/>
<path d="M3.19978 17.5359C2.62378 18.4319 2.23978 19.5199 2.17578 20.6079V20.9279C2.17578 22.3999 2.62378 23.7439 3.58378 24.8959M3.58378 24.8959C3.64778 24.8959 3.64778 24.8959 3.58378 24.8959C4.86378 26.1759 6.52778 27.0079 8.31978 27.1999C13.3758 27.7759 18.4958 27.7759 23.6158 27.1999C25.4078 27.0079 27.0718 26.2399 28.2878 24.9599C29.2478 23.8719 29.7598 22.3999 29.6958 20.9919V20.6719C29.6318 19.5839 29.3118 18.5599 28.6718 17.6639V17.5999C27.7758 16.6399 27.1998 15.4239 26.8798 14.2079V12.4799V12.4159C26.8798 11.9039 26.8798 11.3279 26.8158 10.8159C26.3678 5.50392 21.1198 1.91992 16.0638 1.91992H15.9358C10.8798 1.91992 5.63178 5.50392 5.18378 10.8159C5.11978 11.8399 5.11978 12.8639 5.11978 13.8879C5.11978 14.0159 5.11978 14.0799 5.05578 14.2079C4.73578 15.4239 4.15978 16.5759 3.26378 17.5359C3.26378 17.5359 3.26378 17.5359 3.26378 17.5999" fill="#F0EDFF"/>
<path d="M15.9999 28.8641C13.3759 28.8641 10.8159 28.7361 8.19192 28.4801C6.07992 28.2881 4.15992 27.3281 2.68792 25.8561C2.68792 25.8561 2.68792 25.8561 2.62392 25.7921C2.62392 25.7921 2.62392 25.7921 2.55992 25.7281C1.40792 24.3841 0.831921 22.6561 0.895921 20.9281V20.6081V20.5441C0.959921 19.2641 1.40792 17.9841 2.11192 16.8961C2.11192 16.8321 2.17592 16.8321 2.17592 16.8321C2.17592 16.7681 2.23992 16.7681 2.23992 16.7041C2.94392 15.9361 3.45592 14.9761 3.71192 13.9521C3.71192 12.8641 3.71192 11.8401 3.83992 10.8161C4.47992 4.48014 10.6239 0.640137 15.9359 0.640137H16.0639C21.3759 0.640137 27.5199 4.48014 28.0959 10.6881C28.1599 11.3281 28.1599 11.9041 28.1599 12.4161L28.2239 13.8881C28.4799 14.9121 28.9919 15.8081 29.6959 16.6401L29.7599 16.7041C29.7599 16.7041 29.8239 16.7681 29.8239 16.8321C30.5919 17.9201 30.9759 19.2001 31.0399 20.5441V20.6081V20.9281C31.1039 22.7201 30.4639 24.3841 29.3119 25.7921L29.2479 25.8561C27.8399 27.3281 25.8559 28.2881 23.7439 28.4801C21.1839 28.7361 18.5599 28.8641 15.9999 28.8641ZM4.60792 24.0641C5.63192 25.0881 7.03992 25.7921 8.51192 25.9201H8.57592C13.5039 26.4321 18.5599 26.4321 23.5519 25.9201C25.0879 25.7921 26.4319 25.1521 27.4559 24.0641C28.1599 23.1681 28.5439 22.0801 28.5439 20.9281V20.5441C28.4799 19.7761 28.2239 18.9441 27.7759 18.3041C26.8159 17.2161 26.0479 15.8081 25.7279 14.3361C25.7279 14.2721 25.7279 14.2081 25.7279 14.0801L25.5999 12.5441V12.4801C25.5999 11.9681 25.5999 11.4561 25.5359 10.9441C25.0879 6.14414 20.2879 3.20014 16.0639 3.20014H15.9359C11.7119 3.20014 6.91192 6.14414 6.46392 10.8801C6.39992 11.8401 6.39992 12.7361 6.39992 13.8241C6.39992 14.0161 6.39992 14.2081 6.33592 14.4001C6.01592 15.8081 5.31192 17.1521 4.28792 18.2401C3.83992 18.9441 3.58392 19.7761 3.51992 20.5441V20.8001C3.45592 22.0801 3.83992 23.1681 4.60792 24.0641Z" fill="#A244FA"/>
</g>
<defs>
<clipPath id="clip0_471_1249">
<rect width="32" height="32" fill="white"/>
</clipPath>
</defs>
</svg>
