<svg width="32" height="32" viewBox="0 0 32 32" fill="none" xmlns="http://www.w3.org/2000/svg">
<g clip-path="url(#clip0_471_1246)">
<path d="M21.883 5.17082L21.9033 5.171C26.2241 5.17631 29.384 8.40248 29.384 12.8215V19.2497C29.384 23.6701 26.2243 26.8947 21.9036 26.9002L21.8827 26.9004C17.9102 26.9705 14.0103 26.9676 10.1763 26.9004L10.1554 26.9002C5.83475 26.8948 2.67355 23.6701 2.67355 19.2497V12.8215C2.67355 8.40119 5.83467 5.17655 10.1552 5.171L10.1764 5.1708C14.0316 5.10214 17.9343 5.10357 21.883 5.17082Z" fill="#E7F3FF" stroke="#247FF9" stroke-width="2.56" stroke-linecap="round" stroke-linejoin="round"/>
<path d="M30.0801 11.52V11.52C31.1405 11.52 32.0001 12.4458 32.0001 13.5877V18.4123C32.0001 19.5543 31.1405 20.48 30.0801 20.48V20.48V11.52Z" fill="#247FF9"/>
<path d="M1.91992 20.48V20.48C0.859535 20.48 -7.87164e-05 19.5542 -7.86166e-05 18.4123L-7.81948e-05 13.5877C-7.8095e-05 12.4457 0.859536 11.52 1.91992 11.52V11.52L1.91992 20.48Z" fill="#247FF9"/>
<path d="M12.8002 13.4399C12.8002 14.8537 11.654 15.9999 10.2402 15.9999C8.82633 15.9999 7.68018 14.8537 7.68018 13.4399C7.68018 12.026 8.82633 10.8799 10.2402 10.8799C11.654 10.8799 12.8002 12.026 12.8002 13.4399Z" fill="#247FF9"/>
<path d="M24.3202 13.4399C24.3202 14.8537 23.174 15.9999 21.7602 15.9999C20.3463 15.9999 19.2002 14.8537 19.2002 13.4399C19.2002 12.026 20.3463 10.8799 21.7602 10.8799C23.174 10.8799 24.3202 12.026 24.3202 13.4399Z" fill="#247FF9"/>
<path d="M16.0285 22.3013C18.2452 22.3013 20.1165 20.8229 20.7104 18.7983C20.927 18.0596 20.2829 17.4229 19.5131 17.4229H12.5439C11.7742 17.4229 11.13 18.0596 11.3467 18.7983C11.9405 20.8229 13.8119 22.3013 16.0285 22.3013Z" fill="#247FF9"/>
<path d="M17.2802 1.92014C17.2802 2.62706 16.7071 3.20014 16.0002 3.20014C15.2933 3.20014 14.7202 2.62706 14.7202 1.92014C14.7202 1.21321 15.2933 0.640137 16.0002 0.640137C16.7071 0.640137 17.2802 1.21321 17.2802 1.92014Z" fill="#247FF9"/>
</g>
<defs>
<clipPath id="clip0_471_1246">
<rect width="32" height="32" fill="white"/>
</clipPath>
</defs>
</svg>
