<svg width="22" height="24" viewBox="0 0 22 24" fill="none" xmlns="http://www.w3.org/2000/svg">
<path d="M16.7472 0H4.99714C2.29598 0 0 2.25857 0 4.91572V14.88C0 17.67 2.29598 19.9286 4.99714 19.9286H13.3707V23.25C17.9627 23.25 21.7443 19.53 21.7443 15.0129V5.04857C21.8794 2.25857 19.5834 0 16.7472 0ZM8.23854 11.6914C7.29313 11.6914 6.48278 10.8943 6.48278 9.96429C6.48278 9.03429 7.29313 8.23714 8.23854 8.23714C9.18394 8.23714 9.99429 9.03429 9.99429 9.96429C9.99429 10.8943 9.18394 11.6914 8.23854 11.6914ZM13.6408 11.6914C12.6954 11.6914 11.8851 10.8943 11.8851 9.96429C11.8851 9.03429 12.6954 8.23714 13.6408 8.23714C14.5863 8.23714 15.3966 9.03429 15.3966 9.96429C15.5317 10.8943 14.7213 11.6914 13.6408 11.6914Z" fill="white"/>
</svg>
