<svg width="32" height="32" viewBox="0 0 32 32" fill="none" xmlns="http://www.w3.org/2000/svg">
<g clip-path="url(#clip0_471_1253)">
<path d="M1.91992 8.31993C1.91992 4.78531 4.7853 1.91992 8.31992 1.91992H23.6799C27.2145 1.91992 30.0799 4.7853 30.0799 8.31992V22.3999C30.0799 26.6415 26.6415 30.0799 22.3999 30.0799H8.31993C4.78531 30.0799 1.91992 27.2145 1.91992 23.6799V8.31993Z" fill="#FBEFFD"/>
<path d="M1.91992 8.31992C1.91992 4.7853 4.7853 1.91992 8.31992 1.91992H23.6799C27.2145 1.91992 30.0799 4.7853 30.0799 8.31992V22.3999C30.0799 26.6415 26.6415 30.0799 22.3999 30.0799H8.31992C4.7853 30.0799 1.91992 27.2145 1.91992 23.6799V8.31992Z" fill="#FBEFFD"/>
<line x1="4.47998" y1="9.59988" x2="28.16" y2="9.59988" stroke="#AD13C1" stroke-width="2.56"/>
<path d="M18.7346 19.5586C18.5417 19.0441 19.0441 18.5417 19.5586 18.7346L31.3849 23.1695C31.9633 23.3864 31.9291 24.2159 31.3348 24.3844L26.6075 25.7253C26.1803 25.8465 25.8465 26.1803 25.7253 26.6075L24.3844 31.3348C24.2159 31.9291 23.3864 31.9633 23.1695 31.3849L18.7346 19.5586Z" fill="#AD13C1"/>
<path fill-rule="evenodd" clip-rule="evenodd" d="M8.31992 4.47992H23.6799C25.8007 4.47992 27.5199 6.19915 27.5199 8.31992V19.12L30.0799 20.08V8.31992C30.0799 4.7853 27.2145 1.91992 23.6799 1.91992H8.31992C4.7853 1.91992 1.91992 4.7853 1.91992 8.31992V23.6799C1.91992 27.2145 4.7853 30.0799 8.31992 30.0799H20.08L19.12 27.5199H8.31992C6.19915 27.5199 4.47992 25.8007 4.47992 23.6799V8.31992C4.47992 6.19915 6.19915 4.47992 8.31992 4.47992Z" fill="#AD13C1"/>
</g>
<defs>
<clipPath id="clip0_471_1253">
<rect width="32" height="32" fill="white"/>
</clipPath>
</defs>
</svg>
