<svg width="24" height="24" viewBox="0 0 24 24" fill="none" xmlns="http://www.w3.org/2000/svg">
<g clip-path="url(#clip0_471_1463)">
<path fill-rule="evenodd" clip-rule="evenodd" d="M0 11.6376C0 4.95276 5.24144 0 11.9985 0C18.7555 0 23.997 4.95276 23.997 11.6467C23.997 18.3315 18.7555 23.2843 11.9985 23.2843C10.7806 23.2843 9.61683 23.1219 8.52524 22.8242C8.31775 22.761 8.08319 22.7791 7.88472 22.8693L5.50306 23.9158C4.88059 24.1954 4.17692 23.7444 4.15887 23.0678L4.09572 20.9297C4.0867 20.6681 3.96942 20.4155 3.77095 20.2441C1.43441 18.1601 0 15.1379 0 11.6376ZM8.31834 9.45438L4.79097 15.0477C4.45718 15.5799 5.11574 16.1844 5.62094 15.7964L9.40993 12.9186C9.66253 12.7292 10.0144 12.7292 10.276 12.9186L13.0817 15.0206C13.9297 15.6521 15.1295 15.4356 15.6888 14.5425L19.2162 8.9582C19.55 8.42594 18.8914 7.81248 18.3862 8.2004L14.5973 11.0782C14.3447 11.2677 13.9928 11.2677 13.7312 11.0782L10.9255 8.97624C10.0775 8.34474 8.87767 8.56126 8.31834 9.45438Z" fill="white"/>
</g>
<defs>
<clipPath id="clip0_471_1463">
<rect width="24" height="24" fill="white"/>
</clipPath>
</defs>
</svg>
