<svg width="32" height="32" viewBox="0 0 32 32" fill="none" xmlns="http://www.w3.org/2000/svg">
<g clip-path="url(#clip0_471_1248)">
<path d="M16.0001 30.0801C8.22397 30.0801 1.92014 23.7763 1.92014 16.0001C1.92014 8.22397 8.22397 1.92014 16.0001 1.92014C23.7763 1.92014 30.0801 8.22397 30.0801 16.0001C30.0801 18.4004 29.8491 19.9318 28.9038 21.7809C28.6953 22.1889 28.6702 22.6058 28.6843 22.9105C28.6989 23.2244 28.7616 23.5365 28.83 23.8103C28.9144 24.148 29.0453 24.5599 29.1654 24.9378C29.2254 25.1266 29.2827 25.3069 29.3302 25.4651C29.4953 26.0159 29.6006 26.4718 29.6151 26.8421C29.628 27.1719 29.5648 27.3121 29.516 27.3783C29.4937 27.3908 29.3852 27.4474 29.0889 27.4779C28.6907 27.5188 28.18 27.4907 27.57 27.4307C27.4174 27.4157 27.2536 27.398 27.0847 27.3798C26.6428 27.3321 26.166 27.2807 25.7623 27.2633C25.4724 27.2509 25.1526 27.2515 24.8458 27.2948C24.5568 27.3356 24.1458 27.4314 23.7814 27.7094C21.4699 29.4732 19.2869 30.0801 16.0001 30.0801Z" fill="#E3FCF7" stroke="#17CAA6" stroke-width="2.56"/>
<path d="M18.5599 15.9999C18.5599 17.4138 17.4138 18.5599 15.9999 18.5599C14.5861 18.5599 13.4399 17.4138 13.4399 15.9999C13.4399 14.5861 14.5861 13.4399 15.9999 13.4399C17.4138 13.4399 18.5599 14.5861 18.5599 15.9999Z" fill="#17CAA6"/>
<path d="M11.5199 15.9999C11.5199 17.4138 10.3738 18.5599 8.9599 18.5599C7.54605 18.5599 6.3999 17.4138 6.3999 15.9999C6.3999 14.5861 7.54605 13.4399 8.9599 13.4399C10.3738 13.4399 11.5199 14.5861 11.5199 15.9999Z" fill="#17CAA6"/>
<path d="M25.6 15.9999C25.6 17.4138 24.4538 18.5599 23.04 18.5599C21.6261 18.5599 20.48 17.4138 20.48 15.9999C20.48 14.5861 21.6261 13.4399 23.04 13.4399C24.4538 13.4399 25.6 14.5861 25.6 15.9999Z" fill="#17CAA6"/>
</g>
<defs>
<clipPath id="clip0_471_1248">
<rect width="32" height="32" fill="white"/>
</clipPath>
</defs>
</svg>
