<svg width="24" height="24" viewBox="0 0 24 24" fill="none" xmlns="http://www.w3.org/2000/svg">
<path fill-rule="evenodd" clip-rule="evenodd" d="M24 12C24 18.6274 18.6274 24 12 24C5.37258 24 0 18.6274 0 12C0 5.37258 5.37258 0 12 0C18.6274 0 24 5.37258 24 12ZM13.2735 8.18935L4.44049 11.8287C2.88618 12.4353 3.79602 13.0039 3.79602 13.0039C3.79602 13.0039 5.12286 13.4588 6.26016 13.8C7.39746 14.1412 8.00402 13.7621 8.00402 13.7621L13.3493 10.1607C15.2448 8.87173 14.7899 9.93321 14.335 10.3881C13.3493 11.3738 11.7192 12.9281 10.3544 14.1791C9.74787 14.7099 10.0511 15.1648 10.3165 15.3922C11.088 16.045 12.9045 17.2319 13.7303 17.7715C13.9595 17.9213 14.1125 18.0212 14.1454 18.0459C14.335 18.1976 15.3964 18.8799 16.0409 18.7283C16.6854 18.5767 16.7612 17.7047 16.7612 17.7047L17.7089 11.7529C17.7932 11.1949 17.8774 10.6486 17.9559 10.1391C18.1602 8.81422 18.326 7.73868 18.3534 7.35534C18.4671 6.0664 17.1024 6.59714 17.1024 6.59714C17.1024 6.59714 14.1454 7.81025 13.2735 8.18935Z" fill="white"/>
</svg>
