<svg width="28" height="29" viewBox="0 0 28 29" fill="none" xmlns="http://www.w3.org/2000/svg">
<path d="M27.2242 6.91978L27.2158 6.88655C26.544 4.17069 23.5153 1.25642 20.7339 0.650128L20.7026 0.643668C16.2038 -0.214556 11.6423 -0.214556 7.14448 0.643668L7.11218 0.650128C4.33172 1.25642 1.30302 4.17069 0.630287 6.88655L0.622904 6.91978C-0.207635 10.7126 -0.207635 14.5589 0.622904 18.3517L0.630287 18.3849C1.27432 20.9849 4.07749 23.7652 6.75505 24.5299V27.5615C6.75505 28.6588 8.09222 29.1977 8.85262 28.4059L11.9242 25.213C12.5904 25.2503 13.257 25.2711 13.9235 25.2711C16.1881 25.2711 18.4537 25.057 20.7026 24.6279L20.7339 24.6214C23.5153 24.0151 26.544 21.1009 27.2158 18.385L27.2242 18.3518C28.0547 14.5589 28.0547 10.7126 27.2242 6.91978ZM24.7934 17.8017C24.3449 19.5735 22.0453 21.7763 20.2181 22.1832C17.826 22.6381 15.4151 22.8325 13.0065 22.7658C12.9586 22.7645 12.9126 22.7831 12.8792 22.8174C12.5374 23.1683 10.6364 25.1197 10.6364 25.1197L8.25094 27.5679C8.07653 27.7497 7.77016 27.626 7.77016 27.375V22.3529C7.77016 22.2699 7.71091 22.1994 7.62942 22.1834C7.62896 22.1833 7.6285 22.1832 7.62804 22.1831C5.80085 21.7762 3.50211 19.5734 3.05269 17.8016C2.30521 14.3733 2.30521 10.898 3.05269 7.46968C3.50211 5.69787 5.80085 3.49509 7.62804 3.08813C11.8057 2.29358 16.0414 2.29358 20.2181 3.08813C22.0462 3.49509 24.3449 5.69787 24.7934 7.46968C25.5418 10.8981 25.5418 14.3734 24.7934 17.8017Z" fill="white"/>
<path d="M17.8982 20.1201C17.6172 20.0348 17.3495 19.9775 17.1009 19.8743C14.5248 18.8055 12.1539 17.4266 10.2758 15.3129C9.20785 14.1109 8.37196 12.7539 7.66535 11.3178C7.33028 10.6368 7.0479 9.92909 6.76007 9.22599C6.49762 8.58481 6.88419 7.92241 7.29124 7.43931C7.6732 6.98593 8.16469 6.63895 8.69698 6.38324C9.11243 6.18363 9.52226 6.29871 9.82568 6.65086C10.4816 7.41218 11.0841 8.21245 11.572 9.09495C11.872 9.63775 11.7897 10.3013 11.246 10.6707C11.1138 10.7605 10.9934 10.8658 10.8703 10.9673C10.7623 11.0561 10.6607 11.1459 10.5867 11.2663C10.4514 11.4864 10.445 11.7461 10.5321 11.9855C11.2026 13.8282 12.3328 15.2611 14.1875 16.0328C14.4843 16.1563 14.7823 16.3001 15.1242 16.2602C15.6969 16.1933 15.8822 15.5652 16.2835 15.2371C16.6757 14.9164 17.1769 14.9121 17.5993 15.1795C18.0219 15.4469 18.4315 15.734 18.8387 16.0241C19.2384 16.3089 19.6363 16.5875 20.005 16.9122C20.3594 17.2244 20.4815 17.6339 20.2819 18.0576C19.9165 18.8335 19.3847 19.479 18.6177 19.891C18.4011 20.0072 18.1424 20.0449 17.8982 20.1201C18.1424 20.0449 17.6172 20.0347 17.8982 20.1201Z" fill="white"/>
<path d="M13.9303 5.49603C17.3 5.59044 20.0676 7.82671 20.6607 11.1581C20.7617 11.7257 20.7977 12.3061 20.8427 12.8822C20.8616 13.1245 20.7244 13.3548 20.4628 13.3579C20.1927 13.3611 20.0712 13.1351 20.0537 12.8929C20.019 12.4134 19.9949 11.9318 19.9288 11.4563C19.58 8.94609 17.5784 6.86937 15.0798 6.42374C14.7039 6.35665 14.3191 6.33903 13.9382 6.29907C13.6974 6.27379 13.3821 6.2592 13.3288 5.95993C13.284 5.70902 13.4958 5.50923 13.7347 5.4964C13.7997 5.4928 13.865 5.49575 13.9303 5.49603C13.865 5.49575 17.3 5.59044 13.9303 5.49603Z" fill="white"/>
<path d="M19.0514 12.1348C19.0459 12.1768 19.0429 12.2758 19.0183 12.369C18.9288 12.7073 18.4159 12.7496 18.2978 12.4082C18.2628 12.3069 18.2576 12.1916 18.2574 12.0825C18.2562 11.3688 18.1011 10.6559 17.7412 10.0349C17.3712 9.39666 16.806 8.86014 16.143 8.53549C15.7422 8.3392 15.3086 8.21721 14.8693 8.14449C14.6772 8.11274 14.4832 8.09346 14.2902 8.0666C14.0564 8.03412 13.9315 7.88508 13.9426 7.65465C13.9529 7.43871 14.1107 7.2834 14.346 7.29669C15.1194 7.34062 15.8663 7.50774 16.5538 7.87179C17.9519 8.61217 18.7505 9.78084 18.9836 11.3413C18.9941 11.412 19.0111 11.4821 19.0164 11.553C19.0296 11.7283 19.0379 11.9037 19.0514 12.1348C19.0379 11.9037 19.0459 12.1768 19.0514 12.1348Z" fill="white"/>
<path d="M16.9553 12.0529C16.6734 12.0579 16.5225 11.9019 16.4935 11.6434C16.4732 11.4632 16.4573 11.2806 16.4143 11.1052C16.3296 10.7599 16.146 10.4399 15.8555 10.2283C15.7184 10.1283 15.563 10.0555 15.4002 10.0085C15.1934 9.94883 14.9786 9.96526 14.7723 9.91469C14.5482 9.85978 14.4243 9.67836 14.4596 9.46814C14.4916 9.27684 14.6777 9.12752 14.8867 9.14266C16.1932 9.23697 17.1269 9.91238 17.2601 11.4504C17.2695 11.5589 17.2806 11.6736 17.2565 11.7774C17.2153 11.9551 17.0837 12.0442 16.9553 12.0529C17.0837 12.0442 16.6734 12.0579 16.9553 12.0529Z" fill="white"/>
</svg>
