<svg xmlns="http://www.w3.org/2000/svg" width="50" height="50" fill="none"><g clip-path="url(#a)"><path fill="#F9E6E6" fill-rule="evenodd" d="M14.06 16A4.06 4.06 0 0 0 10 20.06V33c0 3.866 6.716 7 15 7 8.284 0 15-3.134 15-7V20.06A4.06 4.06 0 0 0 35.94 16H14.06Z" clip-rule="evenodd"/><path fill="#FE7474" d="M12 20.06A2.06 2.06 0 0 1 14.06 18v-4A6.06 6.06 0 0 0 8 20.06h4ZM12 33V20.06H8V33h4Zm13 5c-3.917 0-7.366-.745-9.76-1.863C12.681 34.944 12 33.694 12 33H8c0 3.172 2.676 5.422 5.548 6.762C16.582 41.178 20.633 42 25 42v-4Zm13-5c0 .694-.682 1.944-3.24 3.137C32.367 37.255 28.918 38 25 38v4c4.367 0 8.418-.822 11.452-2.238C39.324 38.422 42 36.172 42 33h-4Zm0-12.94V33h4V20.06h-4ZM35.94 18A2.06 2.06 0 0 1 38 20.06h4A6.06 6.06 0 0 0 35.94 14v4Zm-21.88 0h21.88v-4H14.06v4Z"/><path fill="#fff" stroke="#FE7474" stroke-linecap="round" stroke-width="4" d="M2.943 18.71a.406.406 0 0 1 0-.755l21.846-8.739c.242-.096.512-.096.754 0l21.846 8.739c.34.136.34.618 0 .754l-21.846 8.739a1.015 1.015 0 0 1-.754 0L2.943 18.709Z"/><path stroke="#FE7474" stroke-linecap="round" stroke-width="4" d="M48 19v4.121"/></g><defs><clipPath id="a"><path fill="#fff" d="M0 0h50v50H0z"/></clipPath></defs></svg>