<svg width="50" height="50" viewBox="0 0 50 50" fill="none" xmlns="http://www.w3.org/2000/svg">
<path d="M39 11L40.898 11.632C42.878 12.292 43.868 12.622 44.434 13.408C45 14.194 45 15.238 45 17.324V17.47C45 19.19 45 20.052 44.586 20.756C44.172 21.46 43.418 21.878 41.914 22.716L36 26M11 11L9.102 11.632C7.122 12.292 6.132 12.622 5.566 13.408C5 14.194 5 15.24 5 17.324V17.47C5 19.19 5 20.052 5.414 20.756C5.828 21.46 6.582 21.878 8.086 22.716L14 26" fill="#F6F9E6"/>
<path d="M39 11L40.898 11.632C42.878 12.292 43.868 12.622 44.434 13.408C45 14.194 45 15.238 45 17.324V17.47C45 19.19 45 20.052 44.586 20.756C44.172 21.46 43.418 21.878 41.914 22.716L36 26M11 11L9.102 11.632C7.122 12.292 6.132 12.622 5.566 13.408C5 14.194 5 15.24 5 17.324V17.47C5 19.19 5 20.052 5.414 20.756C5.828 21.46 6.582 21.878 8.086 22.716L14 26" stroke="#F99622" stroke-width="4" stroke-linecap="round"/>
<path d="M24.9999 33.0005C13.4799 33.0005 11.4399 21.5205 11.0799 12.4125C10.9779 9.88047 10.9279 8.61247 11.8799 7.44247C12.8299 6.27047 13.9679 6.07847 16.2459 5.69447C19.1396 5.22022 22.0677 4.98809 24.9999 5.00047C28.5679 5.00047 31.5059 5.31447 33.7539 5.69447C36.0319 6.07847 37.1699 6.27047 38.1219 7.44247C39.0739 8.61447 39.0219 9.88047 38.9219 12.4125C38.5619 21.5185 36.5219 33.0005 25.0019 33.0005H24.9999Z" fill="#F6F9E6" stroke="#F99622" stroke-width="4" stroke-linecap="round"/>
<path d="M25 33V39V33Z" fill="#F6F9E6"/>
<path d="M25 33V39" stroke="#F99622" stroke-width="4" stroke-linecap="round"/>
<path d="M32 45H18L18.68 41.608C18.7706 41.1548 19.0154 40.7469 19.3727 40.4538C19.73 40.1606 20.1778 40.0003 20.64 40H29.36C29.8222 40.0003 30.27 40.1606 30.6273 40.4538C30.9846 40.7469 31.2294 41.1548 31.32 41.608L32 45Z" stroke="#F99622" stroke-width="4" stroke-linecap="round" stroke-linejoin="round"/>
<path d="M37 45H13H37Z" fill="#F6F9E6"/>
<path d="M37 45H13" stroke="#F99622" stroke-width="4" stroke-linecap="round"/>
</svg>
