<svg viewBox="0 0 200 60" id="viessmann" xmlns="http://www.w3.org/2000/svg"><path d="M38.4 37.6V18.7h-7v18.9h7m81.1-18.9H110l-2.9 7.8c-.2.6-.3 1.9-.3 1.9s-.1-1.3-.3-1.9l-2.9-7.8h-9.5v18.9h6.1V26.4s0 .7.3 1.3l4.3 10h4.2l4.3-10.2c.3-.6.3-1.3.3-1.3v11.5h6.1v-19m52.3 0h-6.7v10.4s0-.7-.4-1.2l-7.9-9.2h-7v18.9h7V27.2s0 .7.4 1.2l7.6 9.2h7V18.7m-24.2 18.9l-9.6-18.9h-7.4l-9.6 18.9h7.4l1.8-3.5h8.2l1.8 3.5h7.4zm-15.6-8.3l2-4c.3-.6.3-1.3.3-1.3s0 .7.3 1.3l2 4h-4.6m-80.8 3.3V30H62v-4.3H51.4v-2.3h12.9v-4.6H44.8v18.9h20.1v-5l-13.5-.1M0 18.7l10.1 19h8.2l10-19h-7.9l-5.6 11.5c-.3.6-.3 1.3-.3 1.3s0-.7-.3-1.3L8.5 18.7H0m89.1-9.9H73.6s-6.1.1-6.1 6.2c0 6.2 6.1 6 6.1 6h9.2s1.2 0 1.2 1.3c0 1.1-1.2 1.1-1.2 1.1H67.9v5.2h15.4s6.6.3 6.6-6.5c0-5.8-6.6-6-6.6-6h-8.8s-1.4 0-1.4-1.1 1.4-1.1 1.4-1.1H89V8.8m111 9.9h-6.7v10.4s0-.7-.4-1.2l-7.9-9.2h-7v18.9h7V27.2s0 .7.4 1.2l7.6 9.2h7V18.7M89.1 31.4H73.6s-6.1.1-6.1 6.2c0 6.2 6.1 6 6.1 6h9.2s1.2 0 1.2 1.3c0 1.1-1.2 1.1-1.2 1.1H67.9v5.2h15.4s6.6.3 6.6-6.5c0-5.8-6.6-6-6.6-6h-8.7s-1.4 0-1.4-1.1 1.4-1.1 1.4-1.1h14.5v-5.1" fill="#e2352c"/></svg>