<svg width="39" height="42" viewBox="0 0 39 42" fill="none" xmlns="http://www.w3.org/2000/svg">
<path d="M5.00733 0C2.23679 0 0 2.26483 0 5.04725V35.0584C0 37.8408 2.23679 40.1057 5.00733 40.1057H19.3398L18.6039 39.1438C18.1622 38.5663 17.5122 37.7842 17.0161 36.8237L16.8488 36.5H5C4 36.5 3.76911 35.5 3.76911 35H16.4308L16.2233 34.5C16 33.5 15.9914 33.2407 15.9251 32.3633V31.7908H3.61121V4.5C3.61121 3.84256 4.13799 3.5 4.77644 3.5H27.3863C28.0248 3.5 28.5515 4 28.5515 4.5V19.3232L29.104 19.3657C29.9812 19.4332 30.548 19.5849 31.3387 19.8427L32.1225 20.0982V5.04725C32.1225 2.26483 29.8857 0 27.1152 0H5.00733Z" fill="#20BEE0"/>
<path fill-rule="evenodd" clip-rule="evenodd" d="M8.03063 6.64408C6.7211 6.64408 5.66868 7.71381 5.66868 9.02199V13.1795C5.66868 13.7577 5.87431 14.2894 6.21688 14.7026C6.41898 14.988 6.70256 15.2106 7.03332 15.3358C7.33592 15.4779 7.67373 15.5574 8.03063 15.5574H23.9659C25.2755 15.5574 26.3279 14.4876 26.3279 13.1795V9.02199C26.3279 7.71382 25.2755 6.64408 23.9659 6.64408H8.03063ZM9 12V10H23V12H9Z" fill="#20BEE0"/>
<path d="M28.1231 23.3361C32.7497 23.3361 36.5002 27.0865 36.5002 31.7131C36.5002 36.3397 32.7497 40.0902 28.1231 40.0902C23.4966 40.0902 19.7461 36.3397 19.7461 31.7131C19.7461 27.0865 23.4966 23.3361 28.1231 23.3361Z" fill="#EDF9FC" stroke="#20BEE0" stroke-width="3.4"/>
<path d="M27.1223 28.1131L31.3969 30.916C31.5294 31.0013 31.6335 31.1147 31.7092 31.2558C31.7849 31.3938 31.8229 31.5449 31.8229 31.7091C31.8229 31.8666 31.7866 32.0177 31.714 32.1622C31.6415 32.3068 31.5405 32.4216 31.411 32.5071L27.1364 35.4232C27.0575 35.4757 26.977 35.5152 26.895 35.5414C26.8161 35.5677 26.7308 35.5808 26.6393 35.5808C26.5194 35.5808 26.4043 35.5562 26.2939 35.507C26.1833 35.4544 26.0855 35.3854 26.0004 35.3001C25.9183 35.2113 25.852 35.1096 25.8014 34.9946C25.7541 34.8798 25.7305 34.7599 25.7305 34.635V28.9112C25.7305 28.7831 25.7541 28.6616 25.8014 28.5466C25.852 28.4317 25.9183 28.3315 26.0004 28.246C26.0823 28.1608 26.1786 28.0934 26.289 28.0441C26.3996 27.9915 26.5162 27.9653 26.6393 27.9653C26.8161 27.9653 26.977 28.0145 27.1223 28.1131Z" fill="#20BEE0"/>
</svg>
