<svg width="32" height="32" viewBox="0 0 32 32" fill="none" xmlns="http://www.w3.org/2000/svg">
<g clip-path="url(#clip0_471_1252)">
<path fill-rule="evenodd" clip-rule="evenodd" d="M8.32035 13.4399C7.96689 13.4399 7.68035 13.7265 7.68035 14.0799V22.3999C7.68035 22.4385 7.68376 22.4763 7.6903 22.513C7.68358 22.5816 7.68018 22.6506 7.68018 22.72C7.68018 25.0175 11.4052 26.88 16.0002 26.88C20.5952 26.88 24.3202 25.0175 24.3202 22.72C24.3202 22.651 24.3168 22.5824 24.3102 22.5142C24.3169 22.4771 24.3204 22.439 24.3204 22.3999V14.0799C24.3204 13.7265 24.0338 13.4399 23.6804 13.4399H8.32035Z" fill="#F9E6E6"/>
<path d="M7.6903 22.513L8.96419 22.6378L8.98141 22.4622L8.95045 22.2884L7.6903 22.513ZM24.3102 22.5142L23.0505 22.2872L23.019 22.4618L23.0362 22.6383L24.3102 22.5142ZM8.96035 14.0799C8.96035 14.4334 8.67381 14.7199 8.32035 14.7199V12.1599C7.25997 12.1599 6.40035 13.0196 6.40035 14.0799H8.96035ZM8.96035 22.3999V14.0799H6.40035V22.3999H8.96035ZM8.95045 22.2884C8.95706 22.3255 8.96035 22.3629 8.96035 22.3999H6.40035C6.40035 22.5141 6.41046 22.627 6.43015 22.7375L8.95045 22.2884ZM8.96018 22.72C8.96018 22.6924 8.96152 22.6651 8.96419 22.6378L6.41641 22.3881C6.40563 22.498 6.40018 22.6087 6.40018 22.72H8.96018ZM16.0002 25.6C13.8583 25.6 11.9825 25.1632 10.6895 24.5167C9.31993 23.8319 8.96018 23.1227 8.96018 22.72H6.40018C6.40018 24.6148 7.90292 25.9856 9.54461 26.8064C11.2629 27.6656 13.547 28.16 16.0002 28.16V25.6ZM23.0402 22.72C23.0402 23.1227 22.6804 23.8319 21.3109 24.5167C20.0179 25.1632 18.1421 25.6 16.0002 25.6V28.16C18.4533 28.16 20.7375 27.6656 22.4557 26.8064C24.0974 25.9856 25.6002 24.6148 25.6002 22.72H23.0402ZM23.0362 22.6383C23.0388 22.6654 23.0402 22.6926 23.0402 22.72H25.6002C25.6002 22.6094 25.5948 22.4994 25.5841 22.3901L23.0362 22.6383ZM23.0404 22.3999C23.0404 22.3625 23.0437 22.3247 23.0505 22.2872L25.5699 22.7413C25.59 22.6296 25.6004 22.5155 25.6004 22.3999H23.0404ZM23.0404 14.0799V22.3999H25.6004V14.0799H23.0404ZM23.6804 14.7199C23.3269 14.7199 23.0404 14.4334 23.0404 14.0799H25.6004C25.6004 13.0196 24.7407 12.1599 23.6804 12.1599V14.7199ZM8.32035 14.7199H23.6804V12.1599H8.32035V14.7199Z" fill="#FE7474"/>
<path d="M1.43237 13.6825C1.22641 13.5864 1.22641 13.2935 1.43237 13.1974L15.7172 6.53196C15.8965 6.44828 16.1037 6.44828 16.283 6.53196L30.5678 13.1974C30.7738 13.2935 30.7738 13.5864 30.5678 13.6825L16.283 20.3479C16.1037 20.4316 15.8965 20.4316 15.7172 20.3479L1.43237 13.6825Z" fill="white" stroke="#FE7474" stroke-width="2.56" stroke-linecap="round"/>
<line x1="30.7199" y1="13.4402" x2="30.7199" y2="16.2329" stroke="#FE7474" stroke-width="2.56" stroke-linecap="round"/>
</g>
<defs>
<clipPath id="clip0_471_1252">
<rect width="32" height="32" fill="white"/>
</clipPath>
</defs>
</svg>
