<svg xmlns="http://www.w3.org/2000/svg" width="50" height="50" fill="none"><path fill="#FBEFFD" fill-rule="evenodd" d="M43.936 36.207A21.897 21.897 0 0 0 47 25c0-12.15-9.85-22-22-22S3 12.85 3 25s9.85 22 22 22c3.62 0 7.035-.874 10.047-2.423l8.181 1.091a2 2 0 0 0 2.22-2.401l-1.512-7.06Z" clip-rule="evenodd"/><path fill="#AD13C1" d="m43.936 36.207-1.72-1.02-.4.673.164.766 1.956-.42Zm-8.89 8.37.265-1.982-.621-.083-.558.287.915 1.778Zm8.182 1.091.265-1.982-.265 1.982Zm2.22-2.401 1.956-.42-1.956.42ZM45 25c0 3.724-1.016 7.205-2.785 10.187l3.44 2.04A23.897 23.897 0 0 0 49 25h-4ZM25 5c11.046 0 20 8.954 20 20h4C49 11.745 38.255 1 25 1v4ZM5 25C5 13.954 13.954 5 25 5V1C11.745 1 1 11.745 1 25h4Zm20 20C13.954 45 5 36.046 5 25H1c0 13.255 10.745 24 24 24v-4Zm9.132-2.201A19.906 19.906 0 0 1 25 45v4c3.945 0 7.673-.953 10.961-2.644l-1.829-3.557Zm9.36.887-8.181-1.091-.529 3.965 8.182 1.09.529-3.964Zm0 0-.528 3.965c2.743.365 5.02-2.098 4.44-4.803l-3.911.838Zm-1.512-7.06 1.513 7.06 3.911-.838-1.513-7.06-3.911.838Z"/><rect width="18.831" height="18.831" x="12.4" y="15.601" fill="#AD13C1" rx="3"/><path fill="#AD13C1" d="M22.927 25.923a1 1 0 0 1 0-1.816l13.304-6.14a1 1 0 0 1 1.419.908v12.28a1 1 0 0 1-1.42.909l-13.303-6.141Z"/></svg>