<svg width="358" height="190" viewBox="0 0 358 190" fill="none" xmlns="http://www.w3.org/2000/svg">
<g clip-path="url(#clip0_659_2531)">
<rect width="358" height="190" fill="white"/>
<path opacity="0.5" d="M358 24H0V190H350C354.418 190 358 186.418 358 182V24Z" fill="url(#paint0_linear_659_2531)"/>
<path d="M358 0H0V24H358V0Z" fill="#ECF4F7"/>
<g opacity="0.1" filter="url(#filter0_f_659_2531)">
<rect x="53" y="47" width="271" height="81" rx="8" fill="#04B6DC"/>
</g>
<rect x="40" y="41" width="297" height="79" rx="12" fill="white"/>
<g opacity="0.2" filter="url(#filter1_f_659_2531)">
<rect x="270" y="55" width="57" height="57" rx="16" fill="#02C7F1"/>
</g>
<rect x="268" y="51" width="59" height="59" rx="16" fill="url(#paint1_linear_659_2531)"/>
<rect opacity="0.5" x="111" y="78" width="65" height="4" rx="2" fill="#688FA1"/>
<rect opacity="0.5" x="111" y="62" width="117" height="4" rx="2" fill="#688FA1"/>
<rect opacity="0.5" x="111" y="94" width="73" height="4" rx="2" fill="#688FA1"/>
<rect opacity="0.5" x="188" y="94" width="62" height="4" rx="2" fill="#688FA1"/>
<g clip-path="url(#clip1_659_2531)">
<path d="M96.4599 72.1261H77.0008C72.6518 72.1219 69.1227 75.644 69.1183 79.993C69.117 81.3438 69.4632 82.6723 70.1236 83.8506L60.394 67.1563C67.4807 57.9844 80.6608 56.294 89.8328 63.3806C92.7783 65.6565 95.0655 68.6748 96.4599 72.1261Z" fill="#F44336"/>
<path d="M97.9999 80.0006C97.9902 91.5941 88.5943 100.99 77.0009 101C76.1228 101.003 75.2457 100.944 74.376 100.825L83.8256 83.938C85.9913 80.1676 84.7003 75.3558 80.9382 73.1759C79.7471 72.4863 78.3947 72.124 77.0183 72.126H96.4599C97.4818 74.6254 98.005 77.3004 97.9999 80.0006Z" fill="#FFC107"/>
<path d="M83.8254 83.938L74.3758 100.825H74.3584C62.8591 99.3719 54.7149 88.8721 56.1678 77.3728C56.638 73.6508 58.0974 70.1229 60.394 67.1562L70.1235 83.8505L70.176 83.938C72.3457 87.7072 77.1601 89.0038 80.9293 86.8342C82.1333 86.1411 83.1324 85.1419 83.8254 83.938Z" fill="#4CAF50"/>
<path d="M83.8257 83.9395C81.656 87.7087 76.8417 89.0053 73.0725 86.8356C71.8686 86.1426 70.8694 85.1434 70.1763 83.9395L70.1238 83.852C67.9976 80.0581 69.3496 75.2589 73.1434 73.1327C74.3218 72.4723 75.6503 72.1261 77.001 72.1274H77.0185C78.3948 72.1255 79.7472 72.4878 80.9384 73.1774C84.7006 75.3574 85.9915 80.1692 83.8257 83.9395Z" fill="#F44336"/>
<path d="M83.8257 83.9395C81.656 87.7087 76.8417 89.0053 73.0725 86.8356C71.8686 86.1426 70.8694 85.1434 70.1763 83.9395L70.1238 83.852C67.9976 80.0581 69.3496 75.2589 73.1434 73.1327C74.3218 72.4723 75.6503 72.1261 77.001 72.1274H77.0185C78.3948 72.1255 79.7472 72.4878 80.9384 73.1774C84.7006 75.3574 85.9915 80.1692 83.8257 83.9395Z" fill="#2196F3"/>
<path d="M76.971 88.7502C75.4454 88.75 73.9468 88.348 72.6259 87.5847C71.294 86.8144 70.1879 85.7077 69.4183 84.3754C67.0022 80.1905 68.436 74.8394 72.6209 72.4232C73.9525 71.6545 75.4632 71.2502 77.0008 71.251C81.833 71.2472 85.7534 75.1616 85.7571 79.9938C85.7584 81.532 85.354 83.0433 84.5849 84.3754C83.008 87.0864 80.1072 88.7531 76.971 88.7502ZM77.0164 73.0009C74.5053 72.9875 72.1805 74.324 70.9284 76.5007C68.9955 79.8524 70.1456 84.1364 73.4973 86.0693C76.8489 88.0022 81.133 86.8521 83.0659 83.5005C84.9988 80.1526 83.8517 75.8717 80.5038 73.9387C79.4439 73.3268 78.242 73.0034 77.0182 73.001H77.0164V73.0009Z" fill="#FAFAFA"/>
</g>
<path fill-rule="evenodd" clip-rule="evenodd" d="M313.76 84.7382L313.719 86.0169H299.903L299.803 85.2772L298.553 76.5132L292.704 98.3779H288.211L285.05 85.1645H279V80.9021H288.936L289.028 81.376L290.578 87.9009L297.118 63H301.779L301.872 63.7492L304.037 81.7546H313.719L313.76 82.1808V84.7382Z" fill="white"/>
<path d="M317.604 83.8858C317.604 86.3575 315.575 88.3613 313.071 88.3613C310.567 88.3613 308.538 86.3575 308.538 83.8858C308.538 81.414 310.567 79.4102 313.071 79.4102C315.575 79.4102 317.604 81.414 317.604 83.8858Z" fill="white"/>
<g clip-path="url(#clip2_659_2531)">
<path d="M90.1562 16.8516H102.633C103.299 16.8516 103.909 16.7969 104.461 16.6875C105.013 16.5781 105.487 16.3255 105.883 15.9297C106.284 15.5286 106.536 15.0547 106.641 14.5078C106.745 13.9609 106.797 13.3516 106.797 12.6797V10.0391C106.797 9.3724 106.745 8.76562 106.641 8.21875C106.536 7.67188 106.284 7.19792 105.883 6.79688C105.482 6.40104 105.005 6.14844 104.453 6.03906C103.906 5.92969 103.299 5.875 102.633 5.875H90.1406C89.4844 5.875 88.8802 5.92969 88.3281 6.03906C87.7812 6.14844 87.3073 6.40365 86.9062 6.80469C86.5104 7.20052 86.2578 7.67188 86.1484 8.21875C86.0443 8.76562 85.9922 9.36719 85.9922 10.0234V12.6797C85.9922 13.3516 86.0443 13.9609 86.1484 14.5078C86.2526 15.0547 86.5052 15.5286 86.9062 15.9297C87.3073 16.3255 87.7812 16.5781 88.3281 16.6875C88.8802 16.7969 89.4896 16.8516 90.1562 16.8516ZM89.9453 15.5938C89.5443 15.5938 89.1484 15.5547 88.7578 15.4766C88.3724 15.3984 88.0599 15.2422 87.8203 15.0078C87.5859 14.7734 87.4323 14.4635 87.3594 14.0781C87.2865 13.6927 87.25 13.2995 87.25 12.8984V9.85156C87.25 9.4401 87.2865 9.04167 87.3594 8.65625C87.4323 8.26562 87.5859 7.95052 87.8203 7.71094C88.0547 7.47656 88.3672 7.32292 88.7578 7.25C89.1536 7.17188 89.5573 7.13281 89.9688 7.13281H102.844C103.245 7.13281 103.638 7.17188 104.023 7.25C104.414 7.32292 104.729 7.47917 104.969 7.71875C105.203 7.95312 105.357 8.26302 105.43 8.64844C105.503 9.03385 105.539 9.42708 105.539 9.82812V12.8984C105.539 13.2995 105.503 13.6927 105.43 14.0781C105.357 14.4635 105.203 14.7734 104.969 15.0078C104.729 15.2474 104.414 15.4062 104.023 15.4844C103.638 15.5573 103.245 15.5938 102.844 15.5938H89.9453ZM107.859 13.3828C108.068 13.3672 108.284 13.276 108.508 13.1094C108.732 12.9375 108.922 12.7031 109.078 12.4062C109.234 12.1094 109.312 11.7604 109.312 11.3594C109.312 10.9635 109.234 10.6172 109.078 10.3203C108.922 10.0234 108.732 9.78906 108.508 9.61719C108.284 9.44531 108.068 9.35417 107.859 9.34375V13.3828ZM89.6328 14.6016H103.164C103.435 14.6016 103.654 14.5807 103.82 14.5391C103.987 14.4974 104.13 14.4193 104.25 14.3047C104.365 14.1901 104.443 14.0495 104.484 13.8828C104.531 13.7109 104.555 13.4896 104.555 13.2188V9.50781C104.555 9.23698 104.531 9.01823 104.484 8.85156C104.443 8.67969 104.365 8.53646 104.25 8.42188C104.13 8.30208 103.987 8.22396 103.82 8.1875C103.654 8.14583 103.435 8.125 103.164 8.125H89.6328C89.3568 8.125 89.1354 8.14583 88.9688 8.1875C88.8021 8.22396 88.6615 8.30208 88.5469 8.42188C88.4323 8.53646 88.3516 8.67969 88.3047 8.85156C88.263 9.01823 88.2422 9.23698 88.2422 9.50781V13.2188C88.2422 13.4896 88.263 13.7109 88.3047 13.8828C88.3516 14.0495 88.4323 14.1901 88.5469 14.3047C88.6667 14.4193 88.8073 14.4974 88.9688 14.5391C89.1354 14.5807 89.3568 14.6016 89.6328 14.6016Z" fill="#9EA5A7"/>
<path d="M129.805 14.5234C130.451 14.5234 131.057 14.401 131.625 14.1562C132.193 13.9115 132.693 13.5729 133.125 13.1406C133.557 12.7031 133.896 12.2005 134.141 11.6328C134.391 11.0651 134.516 10.4583 134.516 9.8125C134.516 9.16667 134.391 8.5599 134.141 7.99219C133.896 7.42448 133.557 6.92448 133.125 6.49219C132.693 6.0599 132.193 5.72135 131.625 5.47656C131.057 5.22656 130.451 5.10156 129.805 5.10156C129.159 5.10156 128.552 5.22656 127.984 5.47656C127.417 5.72135 126.914 6.0599 126.477 6.49219C126.044 6.92448 125.706 7.42448 125.461 7.99219C125.216 8.5599 125.094 9.16667 125.094 9.8125C125.094 10.4583 125.216 11.0651 125.461 11.6328C125.706 12.2005 126.044 12.7031 126.477 13.1406C126.914 13.5729 127.417 13.9115 127.984 14.1562C128.552 14.401 129.159 14.5234 129.805 14.5234ZM129.805 15.8203C128.977 15.8203 128.201 15.6641 127.477 15.3516C126.753 15.0391 126.115 14.6068 125.562 14.0547C125.01 13.5026 124.578 12.8646 124.266 12.1406C123.953 11.4167 123.797 10.6406 123.797 9.8125C123.797 8.98438 123.953 8.20833 124.266 7.48438C124.578 6.75521 125.01 6.11719 125.562 5.57031C126.115 5.01823 126.753 4.58594 127.477 4.27344C128.206 3.96094 128.982 3.80469 129.805 3.80469C130.633 3.80469 131.409 3.96094 132.133 4.27344C132.857 4.58594 133.495 5.01823 134.047 5.57031C134.599 6.1224 135.031 6.76042 135.344 7.48438C135.656 8.20833 135.812 8.98438 135.812 9.8125C135.812 10.6406 135.656 11.4167 135.344 12.1406C135.031 12.8646 134.599 13.5026 134.047 14.0547C133.495 14.6068 132.857 15.0391 132.133 15.3516C131.409 15.6641 130.633 15.8203 129.805 15.8203ZM137.641 18.6562C137.521 18.6562 137.406 18.6354 137.297 18.5938C137.188 18.5521 137.089 18.487 137 18.3984L132.852 14.25L134.133 13.0078L138.258 17.1406C138.346 17.224 138.409 17.3203 138.445 17.4297C138.487 17.5391 138.508 17.651 138.508 17.7656C138.508 17.9323 138.469 18.0807 138.391 18.2109C138.318 18.3464 138.216 18.4531 138.086 18.5312C137.956 18.6146 137.807 18.6562 137.641 18.6562Z" fill="#9EA5A7"/>
<rect x="152" width="37" height="24" rx="4" fill="#EBEBF5" fill-opacity="0.2"/>
<path d="M165.344 18.75H174.016C174.635 18.75 175.198 18.6146 175.703 18.3438C176.208 18.0781 176.609 17.7031 176.906 17.2188C177.208 16.7396 177.359 16.1797 177.359 15.5391C177.359 14.8984 177.208 14.3385 176.906 13.8594C176.609 13.375 176.208 13 175.703 12.7344C175.198 12.4635 174.635 12.3281 174.016 12.3281H165.344C164.724 12.3281 164.161 12.4635 163.656 12.7344C163.151 13 162.747 13.375 162.445 13.8594C162.148 14.3385 162 14.8984 162 15.5391C162 16.1797 162.148 16.7396 162.445 17.2188C162.747 17.7031 163.151 18.0781 163.656 18.3438C164.161 18.6146 164.724 18.75 165.344 18.75ZM174.219 17.5703C173.844 17.5651 173.503 17.4714 173.195 17.2891C172.888 17.1068 172.643 16.862 172.461 16.5547C172.284 16.2474 172.195 15.9062 172.195 15.5312C172.195 15.1615 172.284 14.8229 172.461 14.5156C172.643 14.2083 172.888 13.9635 173.195 13.7812C173.503 13.599 173.844 13.5078 174.219 13.5078C174.594 13.5078 174.935 13.599 175.242 13.7812C175.555 13.9635 175.802 14.2083 175.984 14.5156C176.167 14.8177 176.255 15.1536 176.25 15.5234C176.25 15.8984 176.156 16.2422 175.969 16.5547C175.786 16.8672 175.542 17.1146 175.234 17.2969C174.932 17.4792 174.594 17.5703 174.219 17.5703ZM165.664 11.125H173.703C174.37 11.125 174.979 10.9766 175.531 10.6797C176.089 10.3828 176.531 9.96615 176.859 9.42969C177.193 8.89323 177.359 8.27083 177.359 7.5625C177.359 6.85417 177.193 6.23177 176.859 5.69531C176.531 5.15885 176.089 4.74219 175.531 4.44531C174.979 4.14844 174.37 4 173.703 4H165.664C164.992 4 164.378 4.14844 163.82 4.44531C163.268 4.74219 162.826 5.15885 162.492 5.69531C162.164 6.23177 162 6.85417 162 7.5625C162 8.27083 162.164 8.89323 162.492 9.42969C162.826 9.96615 163.268 10.3828 163.82 10.6797C164.378 10.9766 164.992 11.125 165.664 11.125ZM165.664 9.94531C165.227 9.94531 164.818 9.84635 164.438 9.64844C164.062 9.44531 163.758 9.16667 163.523 8.8125C163.294 8.45312 163.18 8.03646 163.18 7.5625C163.18 7.08854 163.294 6.67448 163.523 6.32031C163.758 5.96094 164.062 5.68229 164.438 5.48438C164.818 5.28125 165.227 5.17969 165.664 5.17969H173.703C174.135 5.17969 174.539 5.28125 174.914 5.48438C175.294 5.68229 175.599 5.96094 175.828 6.32031C176.062 6.67448 176.18 7.08854 176.18 7.5625C176.18 8.03646 176.062 8.45312 175.828 8.8125C175.599 9.16667 175.294 9.44531 174.914 9.64844C174.539 9.84635 174.135 9.94531 173.703 9.94531H165.664ZM165.664 9.41406C166.008 9.41927 166.318 9.33854 166.594 9.17188C166.875 9 167.099 8.77344 167.266 8.49219C167.438 8.20573 167.523 7.89062 167.523 7.54688C167.529 7.20312 167.448 6.89323 167.281 6.61719C167.115 6.33594 166.888 6.11458 166.602 5.95312C166.32 5.78646 166.008 5.70312 165.664 5.70312C165.32 5.70312 165.008 5.78646 164.727 5.95312C164.445 6.11979 164.221 6.34375 164.055 6.625C163.893 6.90625 163.812 7.21615 163.812 7.55469C163.812 7.89844 163.893 8.21094 164.055 8.49219C164.221 8.77344 164.445 8.9974 164.727 9.16406C165.008 9.33073 165.32 9.41406 165.664 9.41406Z" fill="#9EA5A7"/>
<path d="M200.237 16.5H201.632V9.26074H201.741L204.633 16.5H205.768L208.666 9.26074H208.769V16.5H210.163V6.63574H208.399L205.255 14.5039H205.146L202.001 6.63574H200.237V16.5ZM215.261 16.6436C217.435 16.6436 218.768 15.1875 218.768 12.7949V12.7812C218.768 10.3887 217.428 8.93262 215.261 8.93262C213.087 8.93262 211.748 10.3955 211.748 12.7812V12.7949C211.748 15.1875 213.081 16.6436 215.261 16.6436ZM215.261 15.4062C213.983 15.4062 213.265 14.4424 213.265 12.7949V12.7812C213.265 11.1338 213.983 10.1699 215.261 10.1699C216.533 10.1699 217.257 11.1338 217.257 12.7812V12.7949C217.257 14.4355 216.533 15.4062 215.261 15.4062ZM220.189 16.5H221.672V12.1455C221.672 10.9492 222.349 10.2041 223.436 10.2041C224.523 10.2041 225.035 10.8125 225.035 12.043V16.5H226.512V11.6943C226.512 9.92383 225.596 8.93262 223.935 8.93262C222.855 8.93262 222.144 9.41113 221.781 10.2041H221.672V9.07617H220.189V16.5ZM234.186 16.7393C236.121 16.7393 237.262 15.5977 237.262 13.6562V6.63574H235.731V13.6426C235.731 14.7637 235.184 15.3721 234.172 15.3721C233.256 15.3721 232.785 14.7842 232.723 14.0322L232.716 13.9707H231.205L231.212 14.0527C231.294 15.625 232.361 16.7393 234.186 16.7393ZM241.684 16.6436C242.764 16.6436 243.516 16.1787 243.871 15.3789H243.987V16.5H245.464V9.07617H243.987V13.4307C243.987 14.627 243.352 15.3721 242.162 15.3721C241.075 15.3721 240.624 14.7637 240.624 13.5332V9.07617H239.141V13.8818C239.141 15.6387 240.009 16.6436 241.684 16.6436ZM247.254 16.5H248.737V12.1455C248.737 10.9492 249.414 10.2041 250.501 10.2041C251.588 10.2041 252.1 10.8125 252.1 12.043V16.5H253.577V11.6943C253.577 9.92383 252.661 8.93262 251 8.93262C249.92 8.93262 249.209 9.41113 248.846 10.2041H248.737V9.07617H247.254V16.5ZM258.776 16.5H265.421V15.1943H260.861V15.0576L262.953 12.9727C264.744 11.1953 265.263 10.334 265.263 9.21289V9.19238C265.263 7.56543 263.91 6.39648 262.071 6.39648C260.089 6.39648 258.694 7.66797 258.687 9.47266L258.701 9.48633H260.137L260.143 9.46582C260.143 8.38574 260.882 7.66113 261.989 7.66113C263.069 7.66113 263.732 8.37207 263.732 9.33594V9.35645C263.732 10.1562 263.356 10.6621 262.051 12.0225L258.776 15.4609V16.5ZM267.08 16.5H273.725V15.1943H269.165V15.0576L271.257 12.9727C273.048 11.1953 273.568 10.334 273.568 9.21289V9.19238C273.568 7.56543 272.214 6.39648 270.375 6.39648C268.393 6.39648 266.998 7.66797 266.992 9.47266L267.005 9.48633H268.441L268.448 9.46582C268.448 8.38574 269.186 7.66113 270.293 7.66113C271.373 7.66113 272.037 8.37207 272.037 9.33594V9.35645C272.037 10.1562 271.661 10.6621 270.355 12.0225L267.08 15.4609V16.5Z" fill="#9EA5A7"/>
<path d="M293.443 6.39648C291.372 6.39648 289.868 7.8457 289.868 9.82812V9.8418C289.868 11.7285 291.222 13.123 293.102 13.123C294.441 13.123 295.337 12.4189 295.692 11.626H295.829C295.829 11.7012 295.822 11.7764 295.822 11.8516C295.747 13.8203 295.05 15.4404 293.389 15.4404C292.466 15.4404 291.823 14.9619 291.543 14.21L291.522 14.1416H289.998L290.019 14.2236C290.34 15.7139 291.639 16.7393 293.389 16.7393C295.829 16.7393 297.285 14.7705 297.285 11.4277V11.4141C297.285 7.79102 295.419 6.39648 293.443 6.39648ZM293.437 11.8857C292.247 11.8857 291.379 11.0107 291.379 9.80078V9.78711C291.379 8.60449 292.302 7.68164 293.457 7.68164C294.619 7.68164 295.528 8.625 295.528 9.82812V9.83496C295.528 11.0244 294.619 11.8857 293.437 11.8857ZM299.977 9.97852C300.545 9.97852 300.975 9.53418 300.975 8.98047C300.975 8.41992 300.545 7.98242 299.977 7.98242C299.41 7.98242 298.972 8.41992 298.972 8.98047C298.972 9.53418 299.41 9.97852 299.977 9.97852ZM299.977 15.1465C300.545 15.1465 300.975 14.7021 300.975 14.1484C300.975 13.5879 300.545 13.1504 299.977 13.1504C299.41 13.1504 298.972 13.5879 298.972 14.1484C298.972 14.7021 299.41 15.1465 299.977 15.1465ZM307.427 16.5H308.904V14.5381H310.264V13.2393H308.904V6.63574H306.723C305.363 8.67969 303.913 11.0107 302.614 13.2393V14.5381H307.427V16.5ZM304.084 13.2666V13.1709C305.096 11.4414 306.299 9.52051 307.359 7.92773H307.447V13.2666H304.084ZM314.043 16.5H315.574V6.63574H314.043L311.445 8.48145V9.98535L313.927 8.21484H314.043V16.5ZM320.91 16.5H322.517L323.412 13.834H327.186L328.074 16.5H329.688L326.126 6.63574H324.472L320.91 16.5ZM325.237 8.36523H325.354L326.775 12.6035H323.822L325.237 8.36523ZM331.053 16.5H332.448V9.26074H332.557L335.449 16.5H336.584L339.482 9.26074H339.585V16.5H340.979V6.63574H339.215L336.071 14.5039H335.962L332.817 6.63574H331.053V16.5Z" fill="#9EA5A7"/>
</g>
</g>
<defs>
<filter id="filter0_f_659_2531" x="34.9" y="28.9" width="307.2" height="117.2" filterUnits="userSpaceOnUse" color-interpolation-filters="sRGB">
<feFlood flood-opacity="0" result="BackgroundImageFix"/>
<feBlend mode="normal" in="SourceGraphic" in2="BackgroundImageFix" result="shape"/>
<feGaussianBlur stdDeviation="9.05" result="effect1_foregroundBlur_659_2531"/>
</filter>
<filter id="filter1_f_659_2531" x="260" y="45" width="77" height="77" filterUnits="userSpaceOnUse" color-interpolation-filters="sRGB">
<feFlood flood-opacity="0" result="BackgroundImageFix"/>
<feBlend mode="normal" in="SourceGraphic" in2="BackgroundImageFix" result="shape"/>
<feGaussianBlur stdDeviation="5" result="effect1_foregroundBlur_659_2531"/>
</filter>
<linearGradient id="paint0_linear_659_2531" x1="179" y1="24" x2="179" y2="190" gradientUnits="userSpaceOnUse">
<stop offset="0.802009" stop-color="#F4F9FB"/>
<stop offset="1" stop-color="#F4F9FB" stop-opacity="0"/>
</linearGradient>
<linearGradient id="paint1_linear_659_2531" x1="297.5" y1="51" x2="297.5" y2="110" gradientUnits="userSpaceOnUse">
<stop stop-color="#02C7F1"/>
<stop offset="1" stop-color="#009FC1"/>
</linearGradient>
<clipPath id="clip0_659_2531">
<rect width="358" height="190" fill="white"/>
</clipPath>
<clipPath id="clip1_659_2531">
<rect width="42" height="42" fill="white" transform="translate(56 59)"/>
</clipPath>
<clipPath id="clip2_659_2531">
<rect width="263" height="24" fill="white" transform="translate(84)"/>
</clipPath>
</defs>
</svg>
