<svg width="358" height="190" viewBox="0 0 358 190" fill="none" xmlns="http://www.w3.org/2000/svg">
<g clip-path="url(#clip0_659_2664)">
<rect width="358" height="190" fill="white"/>
<path opacity="0.7" d="M0 0H358V72H0V0Z" fill="#F4F9FB"/>
<path opacity="0.7" d="M0 84H358V190H0V84Z" fill="url(#paint0_linear_659_2664)"/>
<g opacity="0.1" filter="url(#filter0_f_659_2664)">
<rect x="75" y="33" width="144" height="144" rx="8" fill="#04B6DC"/>
</g>
<g opacity="0.1" filter="url(#filter1_f_659_2664)">
<rect x="143" y="33" width="138" height="144" rx="8" fill="#DC04CA"/>
</g>
<rect x="69" y="19" width="220" height="154" rx="8" fill="white"/>
<rect opacity="0.5" x="118" y="42" width="123" height="4" rx="2" fill="#688FA1"/>
<rect opacity="0.5" x="132" y="57" width="94" height="4" rx="2" fill="#688FA1"/>
<circle cx="287" cy="21" r="6" fill="#F5F5F7"/>
<path d="M288.667 19.2856L285.333 22.6191" stroke="#818791" stroke-width="0.776471" stroke-linecap="round"/>
<path d="M288.619 22.6191L285.286 19.2856" stroke="#818791" stroke-width="0.776471" stroke-linecap="round"/>
<rect x="94" y="128" width="170" height="20" rx="4" fill="#04B6DC"/>
<rect opacity="0.5" x="101.646" y="108" width="32" height="4" rx="2" fill="#688FA1"/>
<rect x="94.5" y="100.5" width="169" height="19" rx="3.5" stroke="#DEEDEF"/>
<rect opacity="0.5" x="101.646" y="84" width="45" height="4" rx="2" fill="#688FA1"/>
<rect x="94.5" y="76.5" width="169" height="19" rx="3.5" stroke="#DEEDEF"/>
<rect opacity="0.5" x="146" y="136" width="66" height="4" rx="2" fill="white"/>
</g>
<defs>
<filter id="filter0_f_659_2664" x="56.9" y="14.9" width="180.2" height="180.2" filterUnits="userSpaceOnUse" color-interpolation-filters="sRGB">
<feFlood flood-opacity="0" result="BackgroundImageFix"/>
<feBlend mode="normal" in="SourceGraphic" in2="BackgroundImageFix" result="shape"/>
<feGaussianBlur stdDeviation="9.05" result="effect1_foregroundBlur_659_2664"/>
</filter>
<filter id="filter1_f_659_2664" x="124.9" y="14.9" width="174.2" height="180.2" filterUnits="userSpaceOnUse" color-interpolation-filters="sRGB">
<feFlood flood-opacity="0" result="BackgroundImageFix"/>
<feBlend mode="normal" in="SourceGraphic" in2="BackgroundImageFix" result="shape"/>
<feGaussianBlur stdDeviation="9.05" result="effect1_foregroundBlur_659_2664"/>
</filter>
<linearGradient id="paint0_linear_659_2664" x1="179" y1="84" x2="179" y2="190" gradientUnits="userSpaceOnUse">
<stop offset="0.608413" stop-color="#F4F9FB"/>
<stop offset="1" stop-color="#F4F9FB" stop-opacity="0"/>
</linearGradient>
<clipPath id="clip0_659_2664">
<rect width="358" height="190" fill="white"/>
</clipPath>
</defs>
</svg>
