<svg width="358" height="190" viewBox="0 0 358 190" fill="none" xmlns="http://www.w3.org/2000/svg">
<rect width="358" height="190" fill="white"/>
<line x1="309" y1="154.999" x2="326" y2="154.999" stroke="#2F80ED" stroke-width="2"/>
<path d="M330.164 155.331L324.686 151.642L324.686 159.105L330.164 155.331Z" fill="#2F7EEA"/>
<path d="M282.649 46.9985H314C320.627 46.9985 326 52.3711 326 58.9985V87.8496C326 94.477 320.627 99.8496 314 99.8496H41C34.3726 99.8496 29 105.222 29 111.85V142.999C29 149.626 34.3726 154.999 41 154.999H239.786" stroke="#EFF6F6"/>
<path d="M234.064 46.9985H273C279.627 46.9985 285 52.3711 285 58.9985V87.9985C285 94.626 279.627 99.9985 273 99.9985H201" stroke="#EFF6F6"/>
<path d="M169.521 46.9985H203C209.627 46.9985 215 52.3711 215 58.9985V87.9985C215 94.626 209.627 99.9985 203 99.9985H140" stroke="#EFF6F6"/>
<path d="M194.979 99.9985H190C183.373 99.9985 178 105.371 178 111.999V142.999C178 149.626 183.373 154.999 190 154.999H206" stroke="#EFF6F6"/>
<path d="M129.862 99.9985H117C110.373 99.9985 105 105.371 105 111.999V142.999C105 149.626 110.373 154.999 117 154.999H146" stroke="#EFF6F6"/>
<path d="M81.8592 46.9985H130C136.627 46.9985 142 52.3711 142 58.9985V87.9985C142 94.626 136.627 99.9985 130 99.9985H81" stroke="#EFF6F6"/>
<circle cx="142.956" cy="154.409" r="28.0884" fill="white" stroke="#EFF6F6"/>
<path d="M158.229 151.209C159.038 148.814 158.761 146.193 157.468 144.012C155.524 140.676 151.611 138.96 147.794 139.759C146.091 137.876 143.651 136.804 141.091 136.816C137.19 136.816 133.723 139.294 132.516 142.952C130.003 143.464 127.842 145.013 126.573 147.206C124.617 150.542 125.064 154.736 127.685 157.596C126.875 159.991 127.153 162.612 128.445 164.78C130.39 168.129 134.303 169.844 138.132 169.046C139.823 170.929 142.262 172.013 144.823 172.001C148.724 172.001 152.19 169.523 153.398 165.865C155.91 165.352 158.072 163.803 159.328 161.611C161.297 158.275 160.85 154.081 158.229 151.221V151.209ZM155.451 145.168C156.224 146.503 156.514 148.063 156.248 149.577C156.2 149.541 156.104 149.493 156.043 149.458L148.941 145.406C148.579 145.204 148.132 145.204 147.77 145.406L139.448 150.149V146.669L146.321 142.749C149.521 140.926 153.603 142.011 155.451 145.168ZM139.448 152.401L142.951 150.399L146.453 152.401V156.392L142.951 158.394L139.448 156.392V152.401ZM141.079 139.115C142.649 139.115 144.159 139.651 145.366 140.64C145.318 140.664 145.221 140.724 145.149 140.759L138.047 144.799C137.685 145.001 137.468 145.383 137.468 145.8V155.284L134.412 153.544V145.704C134.412 142.058 137.395 139.115 141.091 139.103L141.079 139.115ZM128.602 148.361C129.387 147.027 130.607 146.002 132.081 145.466V153.795C132.081 154.212 132.298 154.581 132.661 154.796L140.97 159.526L137.902 161.277L131.042 157.369C127.854 155.546 126.755 151.519 128.602 148.361ZM130.474 163.649C129.689 162.326 129.412 160.753 129.677 159.24C129.726 159.276 129.822 159.323 129.883 159.359L136.984 163.41C137.347 163.613 137.794 163.613 138.156 163.41L146.465 158.668V162.147L139.593 166.055C136.393 167.866 132.31 166.794 130.462 163.649H130.474ZM144.835 169.701C143.277 169.701 141.755 169.165 140.559 168.176C140.608 168.152 140.716 168.093 140.777 168.057L147.879 164.018C148.241 163.815 148.47 163.434 148.458 163.017V153.544L151.514 155.284V163.112C151.514 166.758 148.519 169.713 144.835 169.713V169.701ZM157.323 160.455C156.538 161.79 155.306 162.814 153.845 163.339V155.01C153.845 154.593 153.628 154.212 153.265 154.009L144.944 149.267L147.999 147.527L154.872 151.435C158.072 153.258 159.159 157.286 157.311 160.443L157.323 160.455Z" fill="#333333"/>
<circle cx="284.976" cy="45.5884" r="28.0884" fill="white" stroke="#EFF6F6"/>
<g clip-path="url(#clip0_661_3078)">
<path d="M279.479 45.589C279.479 42.5528 281.94 40.0908 284.976 40.0908C288.013 40.0908 290.475 42.5528 290.475 45.589C290.475 48.6252 288.013 51.0872 284.976 51.0872C281.94 51.0872 279.479 48.6252 279.479 45.589ZM276.507 45.589C276.507 50.2665 280.299 54.0581 284.976 54.0581C289.654 54.0581 293.446 50.2665 293.446 45.589C293.446 40.9115 289.654 37.1199 284.976 37.1199C280.299 37.1199 276.507 40.9115 276.507 45.589ZM291.802 36.7841C291.802 37.1755 291.918 37.5582 292.135 37.8838C292.352 38.2094 292.661 38.4632 293.023 38.6131C293.385 38.7631 293.783 38.8024 294.166 38.7262C294.55 38.65 294.903 38.4616 295.18 38.1849C295.457 37.9083 295.646 37.5557 295.722 37.1718C295.799 36.7879 295.76 36.3899 295.61 36.0282C295.46 35.6665 295.207 35.3573 294.881 35.1397C294.556 34.9221 294.173 34.8058 293.782 34.8057H293.781C293.256 34.8059 292.753 35.0144 292.382 35.3854C292.011 35.7563 291.802 36.2594 291.802 36.7841ZM278.313 59.0142C276.705 58.9409 275.831 58.6731 275.25 58.4468C274.48 58.147 273.93 57.79 273.353 57.2131C272.775 56.6362 272.417 56.0873 272.119 55.3173C271.892 54.7367 271.625 53.8624 271.551 52.2544C271.472 50.5159 271.456 49.9936 271.456 45.5891C271.456 41.1846 271.473 40.6638 271.551 38.9239C271.625 37.3158 271.895 36.4433 272.119 35.861C272.419 35.091 272.776 34.5415 273.353 33.9639C273.93 33.3862 274.478 33.0286 275.25 32.7302C275.83 32.5037 276.705 32.2359 278.313 32.1628C280.051 32.0828 280.574 32.0669 284.976 32.0669C289.379 32.0669 289.902 32.0842 291.642 32.1628C293.25 32.236 294.123 32.5059 294.705 32.7302C295.475 33.0286 296.024 33.387 296.602 33.9639C297.18 34.5407 297.536 35.091 297.836 35.861C298.062 36.4416 298.33 37.3158 298.403 38.9239C298.483 40.6638 298.499 41.1846 298.499 45.5891C298.499 49.9936 298.483 50.5144 298.403 52.2544C298.33 53.8624 298.061 54.7365 297.836 55.3173C297.536 56.0873 297.179 56.6368 296.602 57.2131C296.025 57.7894 295.475 58.147 294.705 58.4468C294.124 58.6732 293.25 58.9411 291.642 59.0142C289.903 59.0941 289.381 59.1101 284.976 59.1101C280.572 59.1101 280.051 59.0941 278.313 59.0142ZM278.176 29.1956C276.42 29.2755 275.221 29.554 274.173 29.9617C273.088 30.3827 272.169 30.9476 271.251 31.8641C270.333 32.7806 269.769 33.7006 269.348 34.7858C268.941 35.8342 268.662 37.0333 268.582 38.7892C268.501 40.5477 268.482 41.11 268.482 45.589C268.482 50.0681 268.501 50.6303 268.582 52.3889C268.662 54.1448 268.941 55.3438 269.348 56.3923C269.769 57.4767 270.333 58.3978 271.251 59.3139C272.169 60.2301 273.088 60.7941 274.173 61.2164C275.223 61.6241 276.42 61.9025 278.176 61.9824C279.936 62.0624 280.497 62.0823 284.976 62.0823C289.456 62.0823 290.018 62.0637 291.777 61.9824C293.533 61.9025 294.732 61.6241 295.78 61.2164C296.865 60.7941 297.784 60.2304 298.702 59.3139C299.62 58.3974 300.182 57.4767 300.604 56.3923C301.012 55.3438 301.292 54.1447 301.37 52.3889C301.45 50.629 301.469 50.0681 301.469 45.589C301.469 41.11 301.45 40.5477 301.37 38.7892C301.291 37.0332 301.012 35.8335 300.604 34.7858C300.182 33.7013 299.618 32.782 298.702 31.8641C297.785 30.9461 296.865 30.3827 295.781 29.9617C294.732 29.554 293.532 29.2742 291.778 29.1956C290.019 29.1156 289.457 29.0957 284.978 29.0957C280.498 29.0957 279.936 29.1143 278.176 29.1956Z" fill="url(#paint0_linear_661_3078)"/>
</g>
<circle cx="213.966" cy="45.5884" r="28.0884" fill="white" stroke="#EFF6F6"/>
<path d="M225.654 33.8884C222.553 30.7988 218.429 29.0965 214.035 29.0947C204.982 29.0947 197.614 36.4269 197.611 45.4393C197.61 48.3202 198.366 51.1323 199.803 53.611L197.473 62.0813L206.18 59.8084C208.579 61.1105 211.28 61.7968 214.029 61.7979H214.036C223.087 61.7979 230.456 54.4649 230.46 45.4523C230.462 41.0848 228.755 36.978 225.654 33.8884ZM214.036 59.0373H214.03C211.58 59.0364 209.178 58.3815 207.082 57.1436L206.583 56.8492L201.417 58.1981L202.796 53.1847L202.471 52.6707C201.104 50.5076 200.383 48.0074 200.384 45.4404C200.387 37.9497 206.511 31.8554 214.041 31.8554C217.687 31.8568 221.115 33.2718 223.692 35.8398C226.269 38.4077 227.688 41.8212 227.687 45.4513C227.684 52.9427 221.56 59.0373 214.036 59.0373ZM221.524 48.8622C221.113 48.6578 219.095 47.6697 218.719 47.5334C218.343 47.3971 218.07 47.3289 217.796 47.7379C217.522 48.1467 216.736 49.0667 216.496 49.3392C216.257 49.6118 216.018 49.6459 215.607 49.4415C215.197 49.237 213.875 48.8058 212.307 47.4143C211.087 46.3315 210.263 44.9939 210.024 44.585C209.785 44.1761 209.999 43.9551 210.204 43.7514C210.389 43.5684 210.614 43.2744 210.82 43.0359C211.025 42.7975 211.093 42.627 211.23 42.3545C211.367 42.0819 211.298 41.8433 211.196 41.6389C211.093 41.4345 210.272 39.4242 209.93 38.6064C209.597 37.81 209.259 37.9178 209.007 37.9053C208.768 37.8934 208.494 37.8909 208.22 37.8909C207.947 37.8909 207.502 37.9931 207.126 38.402C206.75 38.8109 205.69 39.799 205.69 41.8093C205.69 43.8195 207.16 45.7617 207.366 46.0342C207.571 46.3068 210.259 50.4322 214.376 52.2013C215.355 52.6221 216.12 52.8734 216.716 53.0616C217.699 53.3724 218.593 53.3286 219.301 53.2235C220.089 53.1062 221.729 52.2354 222.071 51.2814C222.413 50.3273 222.413 49.5096 222.31 49.3393C222.207 49.1689 221.934 49.0667 221.524 48.8622Z" fill="url(#paint1_linear_661_3078)"/>
<circle cx="71.947" cy="154.409" r="28.0891" fill="white" stroke="#EFF6F6"/>
<g clip-path="url(#clip1_661_3078)">
<path fill-rule="evenodd" clip-rule="evenodd" d="M55.4531 153.911C55.4531 144.723 62.6572 137.916 71.9444 137.916C81.2315 137.916 88.4356 144.723 88.4356 153.924C88.4356 163.112 81.2315 169.919 71.9444 169.919C70.2704 169.919 68.6709 169.696 67.1706 169.287C66.8854 169.2 66.563 169.225 66.2902 169.349L63.0168 170.787C62.1612 171.171 61.1941 170.551 61.1693 169.621L61.0825 166.683C61.0701 166.323 60.9089 165.976 60.6361 165.74C57.4246 162.876 55.4531 158.722 55.4531 153.911ZM66.8864 150.91L62.0382 158.598C61.5795 159.33 62.4846 160.16 63.179 159.627L68.3867 155.672C68.7339 155.411 69.2175 155.411 69.5771 155.672L73.4333 158.561C74.5989 159.429 76.248 159.131 77.0167 157.904L81.8649 150.229C82.3237 149.497 81.4185 148.654 80.7242 149.187L75.5164 153.142C75.1692 153.403 74.6856 153.403 74.3261 153.142L70.4698 150.253C69.3043 149.385 67.6552 149.683 66.8864 150.91Z" fill="url(#paint2_radial_661_3078)"/>
</g>
<path d="M171.044 45.5884C171.044 61.1012 158.469 73.6768 142.956 73.6768C127.443 73.6768 114.868 61.1012 114.868 45.5884C114.868 30.0756 127.443 17.5 142.956 17.5C158.469 17.5 171.044 30.0756 171.044 45.5884Z" fill="white" stroke="#EFF6F6"/>
<path d="M127.492 45.3503L145.799 37.7233C147.606 36.9288 153.734 34.3865 153.734 34.3865C153.734 34.3865 156.563 33.2743 156.327 35.9755C156.249 37.0877 155.62 40.9807 154.991 45.1914L153.027 57.6646C153.027 57.6646 152.87 59.4919 151.534 59.8097C150.199 60.1275 147.999 58.6975 147.606 58.3797C147.292 58.1413 141.713 54.5662 139.67 52.8183C139.12 52.3417 138.492 51.3883 139.749 50.276C142.577 47.6543 145.956 44.3969 147.999 42.3313C148.942 41.3779 149.884 39.1534 145.956 41.8546L134.878 49.4021C134.878 49.4021 133.621 50.1966 131.263 49.4815C128.906 48.7665 126.156 47.8131 126.156 47.8131C126.156 47.8131 124.271 46.6214 127.492 45.3503Z" fill="url(#paint3_linear_661_3078)"/>
<path d="M100.035 45.5884C100.035 61.1012 87.4591 73.6768 71.9463 73.6768C56.4335 73.6768 43.8579 61.1012 43.8579 45.5884C43.8579 30.0756 56.4335 17.5 71.9463 17.5C87.4591 17.5 100.035 30.0756 100.035 45.5884Z" fill="white" stroke="#EFF6F6"/>
<g clip-path="url(#clip2_661_3078)">
<path d="M84.2608 33.5616C83.4029 32.77 79.9361 30.2533 72.2141 30.2191C72.2141 30.2191 63.1078 29.67 58.6686 33.7418C56.1976 36.2135 55.3283 39.83 55.2366 44.3137C55.1449 48.7974 55.0262 57.2001 63.1259 59.4785H63.1337L63.1285 62.9552C63.1285 62.9552 63.0767 64.3627 64.0035 64.6497C65.1246 64.9978 65.7825 63.928 66.8528 62.7749C67.4403 62.1418 68.2515 61.2119 68.8628 60.5012C74.4023 60.9674 78.6627 59.9018 79.1466 59.7443C80.2651 59.3816 86.5941 58.5704 87.6234 50.1687C88.686 41.5084 87.1095 36.0306 84.2608 33.5616ZM85.1995 49.5475C84.3307 56.5629 79.1974 57.0038 78.2509 57.3074C77.8484 57.4369 74.1065 58.3678 69.4011 58.0606C69.4011 58.0606 65.8949 62.2905 64.7998 63.3903C64.6288 63.5623 64.4278 63.6317 64.2936 63.5975C64.1051 63.5514 64.0532 63.3281 64.0553 63.0018C64.0584 62.5355 64.0854 57.2245 64.0854 57.2245C64.0812 57.2245 64.0854 57.2245 64.0854 57.2245C57.2337 55.3222 57.6331 48.1705 57.7108 44.4256C57.7885 40.6806 58.492 37.6127 60.5818 35.5493C64.3366 32.1483 72.0716 32.6565 72.0716 32.6565C78.6037 32.685 81.7337 34.6521 82.4595 35.311C84.8695 37.3744 86.0973 42.3119 85.1995 49.5455V49.5475Z" fill="#7360F2"/>
<path fill-rule="evenodd" clip-rule="evenodd" d="M72.3234 41.3955C72.3366 41.1415 72.5533 40.9464 72.8073 40.9596C73.7124 41.0068 74.4687 41.2811 75.008 41.8387C75.5452 42.3942 75.8072 43.1688 75.8532 44.0952C75.8658 44.3492 75.67 44.5654 75.416 44.578C75.162 44.5906 74.9459 44.3949 74.9333 44.1408C74.8943 43.3546 74.6787 42.8231 74.346 42.479C74.0154 42.1372 73.5091 41.9185 72.7593 41.8794C72.5053 41.8661 72.3101 41.6495 72.3234 41.3955Z" fill="#7360F2"/>
<path fill-rule="evenodd" clip-rule="evenodd" d="M71.6614 39.0422C71.68 38.7885 71.9006 38.5979 72.1543 38.6165C73.9929 38.751 75.4752 39.3796 76.5554 40.5587L76.5556 40.5589C77.6237 41.726 78.131 43.1779 78.0942 44.8791C78.0887 45.1334 77.8781 45.335 77.6238 45.3295C77.3695 45.324 77.1679 45.1134 77.1734 44.8591C77.2056 43.3693 76.7677 42.1549 75.8763 41.1808C74.9879 40.2111 73.7453 39.6564 72.0871 39.5351C71.8334 39.5165 71.6428 39.2958 71.6614 39.0422Z" fill="#7360F2"/>
<path fill-rule="evenodd" clip-rule="evenodd" d="M70.8906 36.8069C70.8924 36.5526 71.1 36.3478 71.3543 36.3496C73.8945 36.3673 76.0427 37.2132 77.7674 38.8945C79.5073 40.5906 80.3667 42.899 80.3885 45.7627C80.3904 46.017 80.1858 46.2247 79.9315 46.2267C79.6771 46.2286 79.4694 46.024 79.4675 45.7697C79.4471 43.0957 78.6518 41.0429 77.1245 39.554C75.5821 38.0503 73.6671 37.2868 71.3479 37.2706C71.0936 37.2689 70.8889 37.0612 70.8906 36.8069Z" fill="#7360F2"/>
<path d="M72.87 49.967C72.87 49.967 73.4839 50.0188 73.8144 49.6116L74.4588 48.8009C74.7697 48.3989 75.5198 48.1425 76.2544 48.5517C76.8049 48.8657 77.3393 49.207 77.8557 49.5743C78.3432 49.9328 79.3414 50.7659 79.3445 50.7659C79.8201 51.1673 79.9299 51.7569 79.6062 52.3785C79.6062 52.3822 79.6036 52.3884 79.6036 52.3915C79.247 53.0097 78.7942 53.5672 78.2623 54.043C78.2561 54.0461 78.2561 54.0493 78.2504 54.0524C77.7883 54.4385 77.3343 54.658 76.8885 54.7108C76.8228 54.7223 76.7561 54.7265 76.6895 54.7232C76.4929 54.7251 76.2973 54.695 76.1104 54.6341L76.0959 54.6129C75.4089 54.4191 74.262 53.9342 72.3519 52.8805C71.2466 52.2779 70.1943 51.5828 69.2063 50.8026C68.7111 50.4118 68.2387 49.9929 67.7915 49.5479L67.7439 49.5003L67.6962 49.4526L67.6486 49.4049C67.6325 49.3894 67.617 49.3733 67.6009 49.3573C67.1559 48.9101 66.737 48.4377 66.3462 47.9425C65.5661 46.9546 64.871 45.9025 64.2683 44.7974C63.2146 42.8868 62.7297 41.7409 62.5359 41.053L62.5147 41.0384C62.454 40.8515 62.424 40.6559 62.4261 40.4593C62.4225 40.3927 62.4265 40.326 62.438 40.2603C62.4936 39.8152 62.7134 39.3608 63.0975 38.8974C63.1006 38.8917 63.1037 38.8917 63.1068 38.8854C63.5825 38.3536 64.1401 37.901 64.7584 37.5447C64.7615 37.5447 64.7677 37.5416 64.7713 37.5416C65.393 37.2178 65.9825 37.3277 66.3835 37.8006C66.3866 37.8038 67.2181 38.802 67.575 39.2895C67.9424 39.8064 68.2837 40.3413 68.5976 40.8924C69.0069 41.6264 68.7504 42.3781 68.3484 42.6879L67.5377 43.3324C67.1284 43.6629 67.1823 44.2768 67.1823 44.2768C67.1823 44.2768 68.3831 48.8216 72.87 49.967Z" fill="#7360F2"/>
</g>
<circle cx="231" cy="100" r="3" fill="#D6E3E3"/>
<circle cx="178" cy="125.999" r="3" fill="#D6E3E3"/>
<circle cx="285" cy="86.9985" r="3" fill="#D6E3E3"/>
<circle cx="87" cy="100" r="3" fill="#D6E3E3"/>
<circle cx="29" cy="126" r="3" fill="#D6E3E3"/>
<rect x="185.378" y="125.82" width="128.187" height="57.1768" rx="28.5884" fill="url(#paint4_linear_661_3078)"/>
<path d="M212.012 150.868C211.916 150.148 211.596 149.636 211.052 149.332C210.508 149.012 209.828 148.836 209.012 148.804C208.724 148.804 208.42 148.828 208.1 148.876C207.796 148.924 207.508 149.02 207.236 149.164C206.964 149.308 206.74 149.5 206.564 149.74C206.388 149.98 206.3 150.276 206.3 150.628C206.284 150.996 206.372 151.308 206.564 151.564C206.772 151.82 207.044 152.028 207.38 152.188C207.62 152.3 207.876 152.404 208.148 152.5C208.436 152.58 208.716 152.66 208.988 152.74C209.26 152.804 209.524 152.86 209.78 152.908C210.036 152.956 210.26 153.004 210.452 153.052C211.14 153.196 211.804 153.364 212.444 153.556C213.084 153.748 213.652 154.012 214.148 154.348C214.644 154.684 215.044 155.132 215.348 155.692C215.652 156.252 215.812 156.98 215.828 157.876C215.828 158.852 215.644 159.684 215.276 160.372C214.908 161.06 214.412 161.612 213.788 162.028C213.196 162.444 212.508 162.748 211.724 162.94C210.94 163.116 210.076 163.188 209.132 163.156C208.22 163.14 207.364 163.02 206.564 162.796C205.764 162.556 205.052 162.212 204.428 161.764C203.82 161.316 203.332 160.756 202.964 160.084C202.596 159.412 202.388 158.62 202.34 157.708H205.892C205.988 158.124 206.148 158.468 206.372 158.74C206.596 159.012 206.86 159.236 207.164 159.412C207.468 159.588 207.804 159.716 208.172 159.796C208.556 159.876 208.94 159.924 209.324 159.94C209.724 159.956 210.108 159.94 210.476 159.892C210.844 159.844 211.164 159.756 211.436 159.628C211.724 159.484 211.948 159.292 212.108 159.052C212.268 158.812 212.348 158.508 212.348 158.14C212.348 157.628 212.188 157.252 211.868 157.012C211.564 156.772 211.228 156.604 210.86 156.508C210.604 156.444 210.372 156.388 210.164 156.34C209.972 156.276 209.78 156.228 209.588 156.196C209.396 156.148 209.196 156.1 208.988 156.052C208.78 156.004 208.54 155.948 208.268 155.884C207.66 155.724 207.028 155.548 206.372 155.356C205.732 155.148 205.156 154.86 204.644 154.492C204.02 154.06 203.548 153.508 203.228 152.836C202.924 152.164 202.788 151.42 202.82 150.604C202.868 149.644 203.092 148.852 203.492 148.228C203.892 147.588 204.404 147.084 205.028 146.716C205.652 146.348 206.34 146.092 207.092 145.948C207.844 145.804 208.596 145.74 209.348 145.756C210.18 145.772 210.948 145.892 211.652 146.116C212.372 146.324 212.996 146.636 213.524 147.052C214.068 147.468 214.508 147.996 214.844 148.636C215.18 149.276 215.388 150.02 215.468 150.868H212.012ZM224.408 160.132C224.664 160.132 224.952 160.084 225.272 159.988C225.592 159.892 225.872 159.772 226.112 159.628L227.072 162.196C226.848 162.34 226.592 162.476 226.304 162.604C226.032 162.716 225.728 162.82 225.392 162.916C225.072 162.996 224.768 163.052 224.48 163.084C224.192 163.116 223.928 163.132 223.688 163.132C222.92 163.132 222.24 163.028 221.648 162.82C221.072 162.612 220.592 162.3 220.208 161.884C219.856 161.532 219.592 161.076 219.416 160.516C219.256 159.956 219.176 159.324 219.176 158.62V153.268H217.256V150.316H219.176V146.86H222.56V150.316H226.28V153.268H222.56V157.828C222.56 158.116 222.576 158.396 222.608 158.668C222.656 158.924 222.744 159.164 222.872 159.388C223.016 159.612 223.208 159.796 223.448 159.94C223.704 160.068 224.024 160.132 224.408 160.132ZM236.425 161.404C235.945 162.044 235.361 162.5 234.673 162.772C233.985 163.044 233.185 163.172 232.273 163.156C231.105 163.124 230.129 162.796 229.345 162.172C228.929 161.82 228.601 161.404 228.361 160.924C228.137 160.428 228.025 159.844 228.025 159.172C228.041 158.484 228.193 157.876 228.481 157.348C228.785 156.804 229.241 156.356 229.849 156.004C230.361 155.732 230.937 155.54 231.577 155.428C232.233 155.316 232.945 155.26 233.713 155.26H236.305C236.353 154.476 236.169 153.892 235.753 153.508C235.353 153.108 234.785 152.9 234.049 152.884C233.809 152.884 233.561 152.9 233.305 152.932C233.049 152.964 232.809 153.028 232.585 153.124C232.377 153.22 232.193 153.356 232.033 153.532C231.889 153.692 231.793 153.892 231.745 154.132H228.265C228.345 153.364 228.553 152.724 228.889 152.212C229.241 151.684 229.681 151.26 230.209 150.94C230.737 150.62 231.321 150.396 231.961 150.268C232.617 150.124 233.289 150.052 233.977 150.052C234.361 150.052 234.753 150.076 235.153 150.124C235.553 150.156 235.945 150.236 236.329 150.364C236.713 150.476 237.073 150.636 237.409 150.844C237.761 151.036 238.089 151.292 238.393 151.612C238.937 152.236 239.273 152.956 239.401 153.772C239.545 154.572 239.609 155.356 239.593 156.124V162.964H236.497L236.425 161.404ZM236.305 157.372H233.833C233.593 157.372 233.321 157.396 233.017 157.444C232.713 157.492 232.449 157.58 232.225 157.708C232.001 157.836 231.809 158.004 231.649 158.212C231.505 158.42 231.433 158.676 231.433 158.98C231.433 159.236 231.481 159.46 231.577 159.652C231.689 159.844 231.825 160.004 231.985 160.132C232.161 160.26 232.369 160.364 232.609 160.444C232.849 160.508 233.089 160.54 233.329 160.54C233.793 160.556 234.225 160.476 234.625 160.3C235.041 160.124 235.401 159.876 235.705 159.556C235.897 159.3 236.041 159.012 236.137 158.692C236.249 158.356 236.305 157.916 236.305 157.372ZM245.551 151.9C246.063 151.292 246.607 150.836 247.183 150.532C247.775 150.228 248.479 150.076 249.295 150.076C249.503 150.076 249.703 150.084 249.895 150.1C250.087 150.116 250.263 150.14 250.423 150.172V153.292C250.055 153.292 249.679 153.3 249.295 153.316C248.927 153.316 248.575 153.348 248.239 153.412C247.903 153.476 247.575 153.58 247.255 153.724C246.951 153.852 246.679 154.044 246.439 154.3C246.071 154.716 245.839 155.164 245.743 155.644C245.663 156.124 245.623 156.668 245.623 157.276V162.964H242.239V150.316H245.359L245.551 151.9ZM257.224 153.268V158.38C257.224 159.468 257.776 160.012 258.88 160.012H260.128V162.964H258.544C256.864 163.028 255.656 162.708 254.92 162.004C254.2 161.3 253.84 160.236 253.84 158.812V153.268H251.92V150.316H253.84V146.884H257.224V150.316H260.248V153.268H257.224Z" fill="white"/>
<circle cx="284.976" cy="154.409" r="11.9887" fill="white"/>
<circle cx="284.976" cy="154.409" r="8.29986" fill="#1CACB4"/>
<defs>
<linearGradient id="paint0_linear_661_3078" x1="293.645" y1="53.4429" x2="275.934" y2="37.3979" gradientUnits="userSpaceOnUse">
<stop stop-color="#FC9F4F"/>
<stop offset="0.3273" stop-color="#F2203E"/>
<stop offset="0.6485" stop-color="#B729A8"/>
<stop offset="1" stop-color="#5342D6"/>
</linearGradient>
<linearGradient id="paint1_linear_661_3078" x1="213.966" y1="29.0947" x2="213.966" y2="62.0814" gradientUnits="userSpaceOnUse">
<stop stop-color="#61FD7D"/>
<stop offset="1" stop-color="#2BB826"/>
</linearGradient>
<radialGradient id="paint2_radial_661_3078" cx="0" cy="0" r="1" gradientUnits="userSpaceOnUse" gradientTransform="translate(61.8002 170.692) scale(35.9397 35.9397)">
<stop stop-color="#0099FF"/>
<stop offset="0.6098" stop-color="#A033FF"/>
<stop offset="0.9348" stop-color="#FF5280"/>
<stop offset="1" stop-color="#FF7061"/>
</radialGradient>
<linearGradient id="paint3_linear_661_3078" x1="146.098" y1="38.4433" x2="140.464" y2="54.1658" gradientUnits="userSpaceOnUse">
<stop stop-color="#37AEE2"/>
<stop offset="1" stop-color="#1E96C8"/>
</linearGradient>
<linearGradient id="paint4_linear_661_3078" x1="249.471" y1="125.82" x2="249.471" y2="182.997" gradientUnits="userSpaceOnUse">
<stop stop-color="#3DDDB3"/>
<stop offset="1" stop-color="#2DDA82"/>
</linearGradient>
<clipPath id="clip0_661_3078">
<rect width="32.9866" height="32.9866" fill="white" transform="translate(268.482 29.0957)"/>
</clipPath>
<clipPath id="clip1_661_3078">
<rect width="32.9866" height="32.9866" fill="white" transform="translate(55.4531 137.916)"/>
</clipPath>
<clipPath id="clip2_661_3078">
<rect width="34.5243" height="34.5243" fill="white" transform="translate(54.3535 30.1943)"/>
</clipPath>
</defs>
</svg>
